<?xml version="1.0" encoding="utf-8" standalone="no"?>
<!DOCTYPE svg PUBLIC "-//W3C//DTD SVG 1.1//EN"
  "http://www.w3.org/Graphics/SVG/1.1/DTD/svg11.dtd">
<!-- Created with matplotlib (https://matplotlib.org/) -->
<svg height="288pt" version="1.1" viewBox="0 0 432 288" width="432pt" xmlns="http://www.w3.org/2000/svg" xmlns:xlink="http://www.w3.org/1999/xlink">
 <defs>
  <style type="text/css">
*{stroke-linecap:butt;stroke-linejoin:round;}
  </style>
 </defs>
 <g id="figure_1">
  <g id="patch_1">
   <path d="M 0 288 
L 432 288 
L 432 0 
L 0 0 
z
" style="fill:none;"/>
  </g>
  <g id="axes_1">
   <g id="patch_2">
    <path d="M 54 252 
L 388.8 252 
L 388.8 34.56 
L 54 34.56 
z
" style="fill:none;"/>
   </g>
   <g id="PolyCollection_1">
    <defs>
     <path d="M 81.938268 -61.339568 
L 81.861732 -61.339568 
L 81.831929 -62.472929 
L 81.785341 -63.606291 
L 81.716392 -64.739652 
L 81.619204 -65.873013 
L 81.48777 -67.006375 
L 81.315764 -68.139736 
L 81.095824 -69.273098 
L 80.818307 -70.406459 
L 80.469688 -71.53982 
L 80.030996 -72.673182 
L 79.476984 -73.806543 
L 78.776893 -74.939905 
L 77.897615 -76.073266 
L 76.809487 -77.206627 
L 75.493967 -78.339989 
L 73.951425 -79.47335 
L 72.206775 -80.606711 
L 70.311127 -81.740073 
L 68.338785 -82.873434 
L 66.380243 -84.006796 
L 64.532586 -85.140157 
L 62.888906 -86.273518 
L 61.528228 -87.40688 
L 60.507439 -88.540241 
L 59.856767 -89.673603 
L 59.58 -90.806964 
L 59.659472 -91.940325 
L 60.064179 -93.073687 
L 60.757942 -94.207048 
L 61.704485 -95.34041 
L 62.86789 -96.473771 
L 64.209531 -97.607132 
L 65.684586 -98.740494 
L 67.241347 -99.873855 
L 68.824537 -101.007217 
L 70.381176 -102.140578 
L 71.86609 -103.273939 
L 73.244769 -104.407301 
L 74.493357 -105.540662 
L 75.597248 -106.674024 
L 76.550056 -107.807385 
L 77.353564 -108.940746 
L 78.017862 -110.074108 
L 78.560375 -111.207469 
L 79.003025 -112.340831 
L 79.367998 -113.474192 
L 79.673511 -114.607553 
L 79.931146 -115.740915 
L 80.145641 -116.874276 
L 80.317007 -118.007638 
L 80.443875 -119.140999 
L 80.52656 -120.27436 
L 80.568706 -121.407722 
L 80.577217 -122.541083 
L 80.561105 -123.674444 
L 80.530316 -124.807806 
L 80.495209 -125.941167 
L 80.46653 -127.074529 
L 80.455018 -128.20789 
L 80.469912 -129.341251 
L 80.516468 -130.474613 
L 80.593658 -131.607974 
L 80.693586 -132.741336 
L 80.803481 -133.874697 
L 80.90978 -135.008058 
L 81.002643 -136.14142 
L 81.078937 -137.274781 
L 81.14247 -138.408143 
L 81.201529 -139.541504 
L 81.264965 -140.674865 
L 81.338529 -141.808227 
L 81.422877 -142.941588 
L 81.513775 -144.07495 
L 81.604054 -145.208311 
L 81.68628 -146.341672 
L 81.754968 -147.475034 
L 81.807667 -148.608395 
L 81.844811 -149.741757 
L 81.868736 -150.875118 
L 81.882454 -152.008479 
L 81.888619 -153.141841 
L 81.888912 -154.275202 
L 81.883877 -155.408564 
L 81.873131 -156.541925 
L 81.855901 -157.675286 
L 81.831783 -158.808648 
L 81.801561 -159.942009 
L 81.767795 -161.075371 
L 81.734839 -162.208732 
L 81.708086 -163.342093 
L 81.692591 -164.475455 
L 81.691517 -165.608816 
L 81.705089 -166.742177 
L 81.730518 -167.875539 
L 81.762934 -169.0089 
L 81.7969 -170.142262 
L 81.827871 -171.275623 
L 81.853067 -172.408984 
L 81.871596 -173.542346 
L 81.928404 -173.542346 
L 81.928404 -173.542346 
L 81.946933 -172.408984 
L 81.972129 -171.275623 
L 82.0031 -170.142262 
L 82.037066 -169.0089 
L 82.069482 -167.875539 
L 82.094911 -166.742177 
L 82.108483 -165.608816 
L 82.107409 -164.475455 
L 82.091914 -163.342093 
L 82.065161 -162.208732 
L 82.032205 -161.075371 
L 81.998439 -159.942009 
L 81.968217 -158.808648 
L 81.944099 -157.675286 
L 81.926869 -156.541925 
L 81.916123 -155.408564 
L 81.911088 -154.275202 
L 81.911381 -153.141841 
L 81.917546 -152.008479 
L 81.931264 -150.875118 
L 81.955189 -149.741757 
L 81.992333 -148.608395 
L 82.045032 -147.475034 
L 82.11372 -146.341672 
L 82.195946 -145.208311 
L 82.286225 -144.07495 
L 82.377123 -142.941588 
L 82.461471 -141.808227 
L 82.535035 -140.674865 
L 82.598471 -139.541504 
L 82.65753 -138.408143 
L 82.721063 -137.274781 
L 82.797357 -136.14142 
L 82.89022 -135.008058 
L 82.996519 -133.874697 
L 83.106414 -132.741336 
L 83.206342 -131.607974 
L 83.283532 -130.474613 
L 83.330088 -129.341251 
L 83.344982 -128.20789 
L 83.33347 -127.074529 
L 83.304791 -125.941167 
L 83.269684 -124.807806 
L 83.238895 -123.674444 
L 83.222783 -122.541083 
L 83.231294 -121.407722 
L 83.27344 -120.27436 
L 83.356125 -119.140999 
L 83.482993 -118.007638 
L 83.654359 -116.874276 
L 83.868854 -115.740915 
L 84.126489 -114.607553 
L 84.432002 -113.474192 
L 84.796975 -112.340831 
L 85.239625 -111.207469 
L 85.782138 -110.074108 
L 86.446436 -108.940746 
L 87.249944 -107.807385 
L 88.202752 -106.674024 
L 89.306643 -105.540662 
L 90.555231 -104.407301 
L 91.93391 -103.273939 
L 93.418824 -102.140578 
L 94.975463 -101.007217 
L 96.558653 -99.873855 
L 98.115414 -98.740494 
L 99.590469 -97.607132 
L 100.93211 -96.473771 
L 102.095515 -95.34041 
L 103.042058 -94.207048 
L 103.735821 -93.073687 
L 104.140528 -91.940325 
L 104.22 -90.806964 
L 103.943233 -89.673603 
L 103.292561 -88.540241 
L 102.271772 -87.40688 
L 100.911094 -86.273518 
L 99.267414 -85.140157 
L 97.419757 -84.006796 
L 95.461215 -82.873434 
L 93.488873 -81.740073 
L 91.593225 -80.606711 
L 89.848575 -79.47335 
L 88.306033 -78.339989 
L 86.990513 -77.206627 
L 85.902385 -76.073266 
L 85.023107 -74.939905 
L 84.323016 -73.806543 
L 83.769004 -72.673182 
L 83.330312 -71.53982 
L 82.981693 -70.406459 
L 82.704176 -69.273098 
L 82.484236 -68.139736 
L 82.31223 -67.006375 
L 82.180796 -65.873013 
L 82.083608 -64.739652 
L 82.014659 -63.606291 
L 81.968071 -62.472929 
L 81.938268 -61.339568 
z
" id="m1369995f3c" style="stroke:#3d3d3d;stroke-width:1.5;"/>
    </defs>
    <g clip-path="url(#pad2edd779a)">
     <use style="fill:#3274a1;stroke:#3d3d3d;stroke-width:1.5;" x="0" xlink:href="#m1369995f3c" y="288"/>
    </g>
   </g>
   <g id="PolyCollection_2">
    <defs>
     <path d="M 137.723039 -50.601932 
L 137.676961 -50.601932 
L 137.664279 -52.40197 
L 137.645952 -54.202008 
L 137.619859 -56.002046 
L 137.583044 -57.802084 
L 137.531336 -59.602122 
L 137.45892 -61.40216 
L 137.357922 -63.202198 
L 137.2182 -65.002236 
L 137.027515 -66.802274 
L 136.772279 -68.602312 
L 136.438974 -70.40235 
L 136.016206 -72.202388 
L 135.49714 -74.002426 
L 134.881902 -75.802464 
L 134.17943 -77.602502 
L 133.408225 -79.40254 
L 132.595662 -81.202578 
L 131.775757 -83.002616 
L 130.985635 -84.802654 
L 130.261281 -86.602692 
L 129.633337 -88.402729 
L 129.123744 -90.202767 
L 128.743831 -92.002805 
L 128.494121 -93.802843 
L 128.365677 -95.602881 
L 128.342555 -97.402919 
L 128.404693 -99.202957 
L 128.530681 -101.002995 
L 128.700028 -102.803033 
L 128.894785 -104.603071 
L 129.100599 -106.403109 
L 129.307294 -108.203147 
L 129.509067 -110.003185 
L 129.704272 -111.803223 
L 129.894785 -113.603261 
L 130.084946 -115.403299 
L 130.28024 -117.203337 
L 130.485978 -119.003375 
L 130.706263 -120.803413 
L 130.943466 -122.603451 
L 131.198264 -124.403489 
L 131.470081 -126.203527 
L 131.757689 -128.003565 
L 132.05968 -129.803603 
L 132.374633 -131.603641 
L 132.700941 -133.403679 
L 133.036418 -135.203717 
L 133.377917 -137.003755 
L 133.72115 -138.803793 
L 134.060868 -140.603831 
L 134.391382 -142.403869 
L 134.707292 -144.203907 
L 135.004205 -146.003945 
L 135.2792 -147.803983 
L 135.530898 -149.604021 
L 135.759137 -151.404059 
L 135.96439 -153.204097 
L 136.147164 -155.004135 
L 136.307613 -156.804173 
L 136.44551 -158.604211 
L 136.56056 -160.404249 
L 136.652937 -162.204287 
L 136.723809 -164.004325 
L 136.775679 -165.804363 
L 136.812399 -167.604401 
L 136.838864 -169.404439 
L 136.86046 -171.204477 
L 136.882386 -173.004515 
L 136.908991 -174.804553 
L 136.943246 -176.604591 
L 136.986413 -178.404629 
L 137.037987 -180.204667 
L 137.095914 -182.004705 
L 137.157055 -183.804743 
L 137.217815 -185.604781 
L 137.274802 -187.404819 
L 137.32538 -189.204857 
L 137.367998 -191.004895 
L 137.402234 -192.804933 
L 137.428605 -194.604971 
L 137.44823 -196.405009 
L 137.462485 -198.205047 
L 137.472749 -200.005085 
L 137.48029 -201.805123 
L 137.486273 -203.605161 
L 137.491817 -205.405199 
L 137.498019 -207.205237 
L 137.505903 -209.005275 
L 137.516292 -210.805313 
L 137.529649 -212.605351 
L 137.545957 -214.405389 
L 137.564694 -216.205427 
L 137.584917 -218.005465 
L 137.60545 -219.805503 
L 137.625103 -221.605541 
L 137.642875 -223.405579 
L 137.65809 -225.205617 
L 137.670447 -227.005655 
L 137.679979 -228.805693 
L 137.720021 -228.805693 
L 137.720021 -228.805693 
L 137.729553 -227.005655 
L 137.74191 -225.205617 
L 137.757125 -223.405579 
L 137.774897 -221.605541 
L 137.79455 -219.805503 
L 137.815083 -218.005465 
L 137.835306 -216.205427 
L 137.854043 -214.405389 
L 137.870351 -212.605351 
L 137.883708 -210.805313 
L 137.894097 -209.005275 
L 137.901981 -207.205237 
L 137.908183 -205.405199 
L 137.913727 -203.605161 
L 137.91971 -201.805123 
L 137.927251 -200.005085 
L 137.937515 -198.205047 
L 137.95177 -196.405009 
L 137.971395 -194.604971 
L 137.997766 -192.804933 
L 138.032002 -191.004895 
L 138.07462 -189.204857 
L 138.125198 -187.404819 
L 138.182185 -185.604781 
L 138.242945 -183.804743 
L 138.304086 -182.004705 
L 138.362013 -180.204667 
L 138.413587 -178.404629 
L 138.456754 -176.604591 
L 138.491009 -174.804553 
L 138.517614 -173.004515 
L 138.53954 -171.204477 
L 138.561136 -169.404439 
L 138.587601 -167.604401 
L 138.624321 -165.804363 
L 138.676191 -164.004325 
L 138.747063 -162.204287 
L 138.83944 -160.404249 
L 138.95449 -158.604211 
L 139.092387 -156.804173 
L 139.252836 -155.004135 
L 139.43561 -153.204097 
L 139.640863 -151.404059 
L 139.869102 -149.604021 
L 140.1208 -147.803983 
L 140.395795 -146.003945 
L 140.692708 -144.203907 
L 141.008618 -142.403869 
L 141.339132 -140.603831 
L 141.67885 -138.803793 
L 142.022083 -137.003755 
L 142.363582 -135.203717 
L 142.699059 -133.403679 
L 143.025367 -131.603641 
L 143.34032 -129.803603 
L 143.642311 -128.003565 
L 143.929919 -126.203527 
L 144.201736 -124.403489 
L 144.456534 -122.603451 
L 144.693737 -120.803413 
L 144.914022 -119.003375 
L 145.11976 -117.203337 
L 145.315054 -115.403299 
L 145.505215 -113.603261 
L 145.695728 -111.803223 
L 145.890933 -110.003185 
L 146.092706 -108.203147 
L 146.299401 -106.403109 
L 146.505215 -104.603071 
L 146.699972 -102.803033 
L 146.869319 -101.002995 
L 146.995307 -99.202957 
L 147.057445 -97.402919 
L 147.034323 -95.602881 
L 146.905879 -93.802843 
L 146.656169 -92.002805 
L 146.276256 -90.202767 
L 145.766663 -88.402729 
L 145.138719 -86.602692 
L 144.414365 -84.802654 
L 143.624243 -83.002616 
L 142.804338 -81.202578 
L 141.991775 -79.40254 
L 141.22057 -77.602502 
L 140.518098 -75.802464 
L 139.90286 -74.002426 
L 139.383794 -72.202388 
L 138.961026 -70.40235 
L 138.627721 -68.602312 
L 138.372485 -66.802274 
L 138.1818 -65.002236 
L 138.042078 -63.202198 
L 137.94108 -61.40216 
L 137.868664 -59.602122 
L 137.816956 -57.802084 
L 137.780141 -56.002046 
L 137.754048 -54.202008 
L 137.735721 -52.40197 
L 137.723039 -50.601932 
z
" id="medae11ce09" style="stroke:#3d3d3d;stroke-width:1.5;"/>
    </defs>
    <g clip-path="url(#pad2edd779a)">
     <use style="fill:#e1812c;stroke:#3d3d3d;stroke-width:1.5;" x="0" xlink:href="#medae11ce09" y="288"/>
    </g>
   </g>
   <g id="PolyCollection_3">
    <defs>
     <path d="M 193.509678 -52.175305 
L 193.490322 -52.175305 
L 193.481658 -53.990241 
L 193.466529 -55.805177 
L 193.440725 -57.620113 
L 193.397517 -59.435049 
L 193.326523 -61.249985 
L 193.212631 -63.064921 
L 193.035458 -64.879857 
L 192.769901 -66.694793 
L 192.388148 -68.509729 
L 191.863224 -70.324665 
L 191.173731 -72.139601 
L 190.309248 -73.954538 
L 189.275593 -75.769474 
L 188.098949 -77.58441 
L 186.827545 -79.399346 
L 185.529524 -81.214282 
L 184.286133 -83.029218 
L 183.180556 -84.844154 
L 182.284339 -86.65909 
L 181.644747 -88.474026 
L 181.276836 -90.288962 
L 181.163041 -92.103898 
L 181.260818 -93.918834 
L 181.516055 -95.73377 
L 181.877775 -97.548706 
L 182.309218 -99.363643 
L 182.791936 -101.178579 
L 183.32243 -102.993515 
L 183.903684 -104.808451 
L 184.535506 -106.623387 
L 185.207484 -108.438323 
L 185.896988 -110.253259 
L 186.572603 -112.068195 
L 187.201497 -113.883131 
L 187.757819 -115.698067 
L 188.228974 -117.513003 
L 188.617431 -119.327939 
L 188.937703 -121.142875 
L 189.210099 -122.957812 
L 189.454144 -124.772748 
L 189.684268 -126.587684 
L 189.908874 -128.40262 
L 190.13206 -130.217556 
L 190.356104 -132.032492 
L 190.582925 -133.847428 
L 190.813772 -135.662364 
L 191.047638 -137.4773 
L 191.279692 -139.292236 
L 191.501004 -141.107172 
L 191.700192 -142.922108 
L 191.866699 -144.737044 
L 191.994557 -146.551981 
L 192.085148 -148.366917 
L 192.147623 -150.181853 
L 192.196514 -151.996789 
L 192.24716 -153.811725 
L 192.310611 -155.626661 
L 192.390001 -157.441597 
L 192.479894 -159.256533 
L 192.56889 -161.071469 
L 192.64445 -162.886405 
L 192.698011 -164.701341 
L 192.728438 -166.516277 
L 192.742582 -168.331213 
L 192.75284 -170.14615 
L 192.772716 -171.961086 
L 192.812053 -173.776022 
L 192.87371 -175.590958 
L 192.952852 -177.405894 
L 193.039023 -179.22083 
L 193.120015 -181.035766 
L 193.185911 -182.850702 
L 193.231768 -184.665638 
L 193.258171 -186.480574 
L 193.269888 -188.29551 
L 193.27357 -190.110446 
L 193.275529 -191.925382 
L 193.280292 -193.740318 
L 193.290078 -195.555255 
L 193.304981 -197.370191 
L 193.323541 -199.185127 
L 193.343453 -201.000063 
L 193.362302 -202.814999 
L 193.378192 -204.629935 
L 193.390156 -206.444871 
L 193.398247 -208.259807 
L 193.40333 -210.074743 
L 193.406706 -211.889679 
L 193.409752 -213.704615 
L 193.413672 -215.519551 
L 193.419336 -217.334487 
L 193.427166 -219.149424 
L 193.437047 -220.96436 
L 193.448333 -222.779296 
L 193.460006 -224.594232 
L 193.470957 -226.409168 
L 193.480296 -228.224104 
L 193.487549 -230.03904 
L 193.492688 -231.853976 
L 193.507312 -231.853976 
L 193.507312 -231.853976 
L 193.512451 -230.03904 
L 193.519704 -228.224104 
L 193.529043 -226.409168 
L 193.539994 -224.594232 
L 193.551667 -222.779296 
L 193.562953 -220.96436 
L 193.572834 -219.149424 
L 193.580664 -217.334487 
L 193.586328 -215.519551 
L 193.590248 -213.704615 
L 193.593294 -211.889679 
L 193.59667 -210.074743 
L 193.601753 -208.259807 
L 193.609844 -206.444871 
L 193.621808 -204.629935 
L 193.637698 -202.814999 
L 193.656547 -201.000063 
L 193.676459 -199.185127 
L 193.695019 -197.370191 
L 193.709922 -195.555255 
L 193.719708 -193.740318 
L 193.724471 -191.925382 
L 193.72643 -190.110446 
L 193.730112 -188.29551 
L 193.741829 -186.480574 
L 193.768232 -184.665638 
L 193.814089 -182.850702 
L 193.879985 -181.035766 
L 193.960977 -179.22083 
L 194.047148 -177.405894 
L 194.12629 -175.590958 
L 194.187947 -173.776022 
L 194.227284 -171.961086 
L 194.24716 -170.14615 
L 194.257418 -168.331213 
L 194.271562 -166.516277 
L 194.301989 -164.701341 
L 194.35555 -162.886405 
L 194.43111 -161.071469 
L 194.520106 -159.256533 
L 194.609999 -157.441597 
L 194.689389 -155.626661 
L 194.75284 -153.811725 
L 194.803486 -151.996789 
L 194.852377 -150.181853 
L 194.914852 -148.366917 
L 195.005443 -146.551981 
L 195.133301 -144.737044 
L 195.299808 -142.922108 
L 195.498996 -141.107172 
L 195.720308 -139.292236 
L 195.952362 -137.4773 
L 196.186228 -135.662364 
L 196.417075 -133.847428 
L 196.643896 -132.032492 
L 196.86794 -130.217556 
L 197.091126 -128.40262 
L 197.315732 -126.587684 
L 197.545856 -124.772748 
L 197.789901 -122.957812 
L 198.062297 -121.142875 
L 198.382569 -119.327939 
L 198.771026 -117.513003 
L 199.242181 -115.698067 
L 199.798503 -113.883131 
L 200.427397 -112.068195 
L 201.103012 -110.253259 
L 201.792516 -108.438323 
L 202.464494 -106.623387 
L 203.096316 -104.808451 
L 203.67757 -102.993515 
L 204.208064 -101.178579 
L 204.690782 -99.363643 
L 205.122225 -97.548706 
L 205.483945 -95.73377 
L 205.739182 -93.918834 
L 205.836959 -92.103898 
L 205.723164 -90.288962 
L 205.355253 -88.474026 
L 204.715661 -86.65909 
L 203.819444 -84.844154 
L 202.713867 -83.029218 
L 201.470476 -81.214282 
L 200.172455 -79.399346 
L 198.901051 -77.58441 
L 197.724407 -75.769474 
L 196.690752 -73.954538 
L 195.826269 -72.139601 
L 195.136776 -70.324665 
L 194.611852 -68.509729 
L 194.230099 -66.694793 
L 193.964542 -64.879857 
L 193.787369 -63.064921 
L 193.673477 -61.249985 
L 193.602483 -59.435049 
L 193.559275 -57.620113 
L 193.533471 -55.805177 
L 193.518342 -53.990241 
L 193.509678 -52.175305 
z
" id="m275e92857f" style="stroke:#3d3d3d;stroke-width:1.5;"/>
    </defs>
    <g clip-path="url(#pad2edd779a)">
     <use style="fill:#3a923a;stroke:#3d3d3d;stroke-width:1.5;" x="0" xlink:href="#m275e92857f" y="288"/>
    </g>
   </g>
   <g id="PolyCollection_4">
    <defs>
     <path d="M 249.405594 -57.228522 
L 249.194406 -57.228522 
L 249.110378 -58.179637 
L 248.978603 -59.130751 
L 248.785093 -60.081866 
L 248.518718 -61.03298 
L 248.174228 -61.984095 
L 247.753898 -62.935209 
L 247.266406 -63.886324 
L 246.722533 -64.837438 
L 246.12881 -65.788553 
L 245.481734 -66.739667 
L 244.76553 -67.690782 
L 243.955297 -68.641896 
L 243.025005 -69.593011 
L 241.957544 -70.544125 
L 240.75302 -71.49524 
L 239.43224 -72.446354 
L 238.034392 -73.397469 
L 236.610091 -74.348583 
L 235.212374 -75.299698 
L 233.888424 -76.250812 
L 232.674179 -77.201927 
L 231.592778 -78.153041 
L 230.656535 -79.104156 
L 229.870966 -80.05527 
L 229.238881 -81.006385 
L 228.762852 -81.957499 
L 228.445516 -82.908614 
L 228.288473 -83.859728 
L 228.291304 -84.810843 
L 228.451828 -85.761957 
L 228.76761 -86.713072 
L 229.237551 -87.664186 
L 229.862043 -88.615301 
L 230.640814 -89.566415 
L 231.568929 -90.51753 
L 232.63258 -91.468644 
L 233.806749 -92.419759 
L 235.056186 -93.370873 
L 236.339647 -94.321988 
L 237.615789 -95.273102 
L 238.848402 -96.224217 
L 240.009187 -97.175331 
L 241.077936 -98.126446 
L 242.041372 -99.07756 
L 242.892351 -100.028675 
L 243.63016 -100.979789 
L 244.2613 -101.930904 
L 244.79937 -102.882018 
L 245.263074 -103.833133 
L 245.672544 -104.784247 
L 246.045177 -105.735362 
L 246.392519 -106.686476 
L 246.719266 -107.637591 
L 247.024565 -108.588705 
L 247.30497 -109.53982 
L 247.557782 -110.490934 
L 247.783422 -111.442049 
L 247.98592 -112.393163 
L 248.171458 -113.344278 
L 248.345778 -114.295392 
L 248.511767 -115.246507 
L 248.668325 -116.197621 
L 248.810891 -117.148736 
L 248.933227 -118.09985 
L 249.029567 -119.050965 
L 249.096329 -120.002079 
L 249.133008 -120.953194 
L 249.142321 -121.904308 
L 249.129866 -122.855423 
L 249.103475 -123.806537 
L 249.072263 -124.757652 
L 249.045309 -125.708766 
L 249.030097 -126.659881 
L 249.031079 -127.610995 
L 249.048873 -128.56211 
L 249.080457 -129.513224 
L 249.120315 -130.464339 
L 249.162101 -131.415453 
L 249.200193 -132.366568 
L 249.230613 -133.317682 
L 249.251156 -134.268797 
L 249.260928 -135.219911 
L 249.259699 -136.171026 
L 249.247491 -137.12214 
L 249.224633 -138.073255 
L 249.192255 -139.024369 
L 249.152937 -139.975484 
L 249.111075 -140.926598 
L 249.07259 -141.877713 
L 249.043869 -142.828827 
L 249.030184 -143.779942 
L 249.034191 -144.731056 
L 249.055121 -145.682171 
L 249.089036 -146.633285 
L 249.130043 -147.5844 
L 249.171961 -148.535514 
L 249.209798 -149.486629 
L 249.240576 -150.437743 
L 249.263391 -151.388858 
L 249.336609 -151.388858 
L 249.336609 -151.388858 
L 249.359424 -150.437743 
L 249.390202 -149.486629 
L 249.428039 -148.535514 
L 249.469957 -147.5844 
L 249.510964 -146.633285 
L 249.544879 -145.682171 
L 249.565809 -144.731056 
L 249.569816 -143.779942 
L 249.556131 -142.828827 
L 249.52741 -141.877713 
L 249.488925 -140.926598 
L 249.447063 -139.975484 
L 249.407745 -139.024369 
L 249.375367 -138.073255 
L 249.352509 -137.12214 
L 249.340301 -136.171026 
L 249.339072 -135.219911 
L 249.348844 -134.268797 
L 249.369387 -133.317682 
L 249.399807 -132.366568 
L 249.437899 -131.415453 
L 249.479685 -130.464339 
L 249.519543 -129.513224 
L 249.551127 -128.56211 
L 249.568921 -127.610995 
L 249.569903 -126.659881 
L 249.554691 -125.708766 
L 249.527737 -124.757652 
L 249.496525 -123.806537 
L 249.470134 -122.855423 
L 249.457679 -121.904308 
L 249.466992 -120.953194 
L 249.503671 -120.002079 
L 249.570433 -119.050965 
L 249.666773 -118.09985 
L 249.789109 -117.148736 
L 249.931675 -116.197621 
L 250.088233 -115.246507 
L 250.254222 -114.295392 
L 250.428542 -113.344278 
L 250.61408 -112.393163 
L 250.816578 -111.442049 
L 251.042218 -110.490934 
L 251.29503 -109.53982 
L 251.575435 -108.588705 
L 251.880734 -107.637591 
L 252.207481 -106.686476 
L 252.554823 -105.735362 
L 252.927456 -104.784247 
L 253.336926 -103.833133 
L 253.80063 -102.882018 
L 254.3387 -101.930904 
L 254.96984 -100.979789 
L 255.707649 -100.028675 
L 256.558628 -99.07756 
L 257.522064 -98.126446 
L 258.590813 -97.175331 
L 259.751598 -96.224217 
L 260.984211 -95.273102 
L 262.260353 -94.321988 
L 263.543814 -93.370873 
L 264.793251 -92.419759 
L 265.96742 -91.468644 
L 267.031071 -90.51753 
L 267.959186 -89.566415 
L 268.737957 -88.615301 
L 269.362449 -87.664186 
L 269.83239 -86.713072 
L 270.148172 -85.761957 
L 270.308696 -84.810843 
L 270.311527 -83.859728 
L 270.154484 -82.908614 
L 269.837148 -81.957499 
L 269.361119 -81.006385 
L 268.729034 -80.05527 
L 267.943465 -79.104156 
L 267.007222 -78.153041 
L 265.925821 -77.201927 
L 264.711576 -76.250812 
L 263.387626 -75.299698 
L 261.989909 -74.348583 
L 260.565608 -73.397469 
L 259.16776 -72.446354 
L 257.84698 -71.49524 
L 256.642456 -70.544125 
L 255.574995 -69.593011 
L 254.644703 -68.641896 
L 253.83447 -67.690782 
L 253.118266 -66.739667 
L 252.47119 -65.788553 
L 251.877467 -64.837438 
L 251.333594 -63.886324 
L 250.846102 -62.935209 
L 250.425772 -61.984095 
L 250.081282 -61.03298 
L 249.814907 -60.081866 
L 249.621397 -59.130751 
L 249.489622 -58.179637 
L 249.405594 -57.228522 
z
" id="m125fa1d346" style="stroke:#3d3d3d;stroke-width:1.5;"/>
    </defs>
    <g clip-path="url(#pad2edd779a)">
     <use style="fill:#c03d3e;stroke:#3d3d3d;stroke-width:1.5;" x="0" xlink:href="#m125fa1d346" y="288"/>
    </g>
   </g>
   <g id="PolyCollection_5">
    <defs>
     <path d="M 305.149467 -49.562103 
L 305.050533 -49.562103 
L 305.025749 -50.748937 
L 304.99135 -51.93577 
L 304.944717 -53.122604 
L 304.882809 -54.309438 
L 304.802122 -55.496271 
L 304.698669 -56.683105 
L 304.568004 -57.869939 
L 304.40535 -59.056772 
L 304.205872 -60.243606 
L 303.965101 -61.430439 
L 303.679473 -62.617273 
L 303.346872 -63.804107 
L 302.967016 -64.99094 
L 302.541542 -66.177774 
L 302.073675 -67.364608 
L 301.567515 -68.551441 
L 301.027073 -69.738275 
L 300.455361 -70.925109 
L 299.853808 -72.111942 
L 299.222272 -73.298776 
L 298.559725 -74.485609 
L 297.865472 -75.672443 
L 297.140633 -76.859277 
L 296.389481 -78.04611 
L 295.620307 -79.232944 
L 294.845612 -80.419778 
L 294.081617 -81.606611 
L 293.347227 -82.793445 
L 292.662687 -83.980279 
L 292.048109 -85.167112 
L 291.522015 -86.353946 
L 291.099959 -87.540779 
L 290.793304 -88.727613 
L 290.608272 -89.914447 
L 290.545451 -91.10128 
L 290.599958 -92.288114 
L 290.762351 -93.474948 
L 291.02021 -94.661781 
L 291.360083 -95.848615 
L 291.769337 -97.035448 
L 292.237458 -98.222282 
L 292.756478 -99.409116 
L 293.320483 -100.595949 
L 293.924435 -101.782783 
L 294.562733 -102.969617 
L 295.227996 -104.15645 
L 295.910433 -105.343284 
L 296.597977 -106.530118 
L 297.277097 -107.716951 
L 297.934081 -108.903785 
L 298.556446 -110.090618 
L 299.134183 -111.277452 
L 299.660631 -112.464286 
L 300.132889 -113.651119 
L 300.551767 -114.837953 
L 300.921386 -116.024787 
L 301.248506 -117.21162 
L 301.541704 -118.398454 
L 301.81044 -119.585288 
L 302.064085 -120.772121 
L 302.310941 -121.958955 
L 302.557352 -123.145788 
L 302.806996 -124.332622 
L 303.060501 -125.519456 
L 303.315464 -126.706289 
L 303.566904 -127.893123 
L 303.808087 -129.079957 
L 304.031578 -130.26679 
L 304.230332 -131.453624 
L 304.398626 -132.640457 
L 304.532706 -133.827291 
L 304.631081 -135.014125 
L 304.694486 -136.200958 
L 304.725589 -137.387792 
L 304.728544 -138.574626 
L 304.70849 -139.761459 
L 304.671071 -140.948293 
L 304.622034 -142.135127 
L 304.566917 -143.32196 
L 304.510849 -144.508794 
L 304.458425 -145.695627 
L 304.413642 -146.882461 
L 304.379851 -148.069295 
L 304.359699 -149.256128 
L 304.355035 -150.442962 
L 304.366788 -151.629796 
L 304.394848 -152.816629 
L 304.438004 -154.003463 
L 304.493976 -155.190297 
L 304.559583 -156.37713 
L 304.631047 -157.563964 
L 304.704382 -158.750797 
L 304.775819 -159.937631 
L 304.842177 -161.124465 
L 304.90113 -162.311298 
L 304.951316 -163.498132 
L 304.992311 -164.684966 
L 305.024477 -165.871799 
L 305.048736 -167.058633 
L 305.151264 -167.058633 
L 305.151264 -167.058633 
L 305.175523 -165.871799 
L 305.207689 -164.684966 
L 305.248684 -163.498132 
L 305.29887 -162.311298 
L 305.357823 -161.124465 
L 305.424181 -159.937631 
L 305.495618 -158.750797 
L 305.568953 -157.563964 
L 305.640417 -156.37713 
L 305.706024 -155.190297 
L 305.761996 -154.003463 
L 305.805152 -152.816629 
L 305.833212 -151.629796 
L 305.844965 -150.442962 
L 305.840301 -149.256128 
L 305.820149 -148.069295 
L 305.786358 -146.882461 
L 305.741575 -145.695627 
L 305.689151 -144.508794 
L 305.633083 -143.32196 
L 305.577966 -142.135127 
L 305.528929 -140.948293 
L 305.49151 -139.761459 
L 305.471456 -138.574626 
L 305.474411 -137.387792 
L 305.505514 -136.200958 
L 305.568919 -135.014125 
L 305.667294 -133.827291 
L 305.801374 -132.640457 
L 305.969668 -131.453624 
L 306.168422 -130.26679 
L 306.391913 -129.079957 
L 306.633096 -127.893123 
L 306.884536 -126.706289 
L 307.139499 -125.519456 
L 307.393004 -124.332622 
L 307.642648 -123.145788 
L 307.889059 -121.958955 
L 308.135915 -120.772121 
L 308.38956 -119.585288 
L 308.658296 -118.398454 
L 308.951494 -117.21162 
L 309.278614 -116.024787 
L 309.648233 -114.837953 
L 310.067111 -113.651119 
L 310.539369 -112.464286 
L 311.065817 -111.277452 
L 311.643554 -110.090618 
L 312.265919 -108.903785 
L 312.922903 -107.716951 
L 313.602023 -106.530118 
L 314.289567 -105.343284 
L 314.972004 -104.15645 
L 315.637267 -102.969617 
L 316.275565 -101.782783 
L 316.879517 -100.595949 
L 317.443522 -99.409116 
L 317.962542 -98.222282 
L 318.430663 -97.035448 
L 318.839917 -95.848615 
L 319.17979 -94.661781 
L 319.437649 -93.474948 
L 319.600042 -92.288114 
L 319.654549 -91.10128 
L 319.591728 -89.914447 
L 319.406696 -88.727613 
L 319.100041 -87.540779 
L 318.677985 -86.353946 
L 318.151891 -85.167112 
L 317.537313 -83.980279 
L 316.852773 -82.793445 
L 316.118383 -81.606611 
L 315.354388 -80.419778 
L 314.579693 -79.232944 
L 313.810519 -78.04611 
L 313.059367 -76.859277 
L 312.334528 -75.672443 
L 311.640275 -74.485609 
L 310.977728 -73.298776 
L 310.346192 -72.111942 
L 309.744639 -70.925109 
L 309.172927 -69.738275 
L 308.632485 -68.551441 
L 308.126325 -67.364608 
L 307.658458 -66.177774 
L 307.232984 -64.99094 
L 306.853128 -63.804107 
L 306.520527 -62.617273 
L 306.234899 -61.430439 
L 305.994128 -60.243606 
L 305.79465 -59.056772 
L 305.631996 -57.869939 
L 305.501331 -56.683105 
L 305.397878 -55.496271 
L 305.317191 -54.309438 
L 305.255283 -53.122604 
L 305.20865 -51.93577 
L 305.174251 -50.748937 
L 305.149467 -49.562103 
z
" id="mc2a71cc9e7" style="stroke:#3d3d3d;stroke-width:1.5;"/>
    </defs>
    <g clip-path="url(#pad2edd779a)">
     <use style="fill:#9372b2;stroke:#3d3d3d;stroke-width:1.5;" x="0" xlink:href="#mc2a71cc9e7" y="288"/>
    </g>
   </g>
   <g id="PolyCollection_6">
    <defs>
     <path d="M 360.930369 -45.883636 
L 360.869631 -45.883636 
L 360.8484 -47.880331 
L 360.816859 -49.877025 
L 360.772373 -51.873719 
L 360.712144 -53.870413 
L 360.632655 -55.867107 
L 360.528501 -57.863802 
L 360.390809 -59.860496 
L 360.205855 -61.85719 
L 359.95473 -63.853884 
L 359.61484 -65.850579 
L 359.16339 -67.847273 
L 358.582234 -69.843967 
L 357.862738 -71.840661 
L 357.009208 -73.837355 
L 356.040025 -75.83405 
L 354.986521 -77.830744 
L 353.890395 -79.827438 
L 352.800538 -81.824132 
L 351.769598 -83.820826 
L 350.849947 -85.817521 
L 350.088547 -87.814215 
L 349.520754 -89.810909 
L 349.164243 -91.807603 
L 349.015074 -93.804298 
L 349.048061 -95.800992 
L 349.222492 -97.797686 
L 349.492467 -99.79438 
L 349.819133 -101.791074 
L 350.180835 -103.787769 
L 350.577406 -105.784463 
L 351.026562 -107.781157 
L 351.553306 -109.777851 
L 352.176195 -111.774545 
L 352.89585 -113.77124 
L 353.690288 -115.767934 
L 354.518735 -117.764628 
L 355.331947 -119.761322 
L 356.084553 -121.758017 
L 356.744758 -123.754711 
L 357.298627 -125.751405 
L 357.748936 -127.748099 
L 358.11049 -129.744793 
L 358.404364 -131.741488 
L 358.652793 -133.738182 
L 358.875388 -135.734876 
L 359.086702 -137.73157 
L 359.29503 -139.728264 
L 359.502418 -141.724959 
L 359.705821 -143.721653 
L 359.899136 -145.718347 
L 360.075542 -147.715041 
L 360.229579 -149.711736 
L 360.358473 -151.70843 
L 360.462547 -153.705124 
L 360.544772 -155.701818 
L 360.609705 -157.698512 
L 360.662161 -159.695207 
L 360.706027 -161.691901 
L 360.743523 -163.688595 
L 360.775102 -165.685289 
L 360.799892 -167.681983 
L 360.81647 -169.678678 
L 360.823681 -171.675372 
L 360.821277 -173.672066 
L 360.810247 -175.66876 
L 360.792779 -177.665455 
L 360.77186 -179.662149 
L 360.750575 -181.658843 
L 360.731299 -183.655537 
L 360.715068 -185.652231 
L 360.701405 -187.648926 
L 360.688753 -189.64562 
L 360.675401 -191.642314 
L 360.66052 -193.639008 
L 360.644866 -195.635702 
L 360.63083 -197.632397 
L 360.621785 -199.629091 
L 360.620985 -201.625785 
L 360.630428 -203.622479 
L 360.650088 -205.619174 
L 360.677736 -207.615868 
L 360.709394 -209.612562 
L 360.740228 -211.609256 
L 360.765648 -213.60595 
L 360.782316 -215.602645 
L 360.788857 -217.599339 
L 360.786128 -219.596033 
L 360.776987 -221.592727 
L 360.7656 -223.589421 
L 360.756427 -225.586116 
L 360.753128 -227.58281 
L 360.757713 -229.579504 
L 360.770183 -231.576198 
L 360.788756 -233.572893 
L 360.81058 -235.569587 
L 360.832618 -237.566281 
L 360.852414 -239.562975 
L 360.868509 -241.559669 
L 360.880474 -243.556364 
L 360.919526 -243.556364 
L 360.919526 -243.556364 
L 360.931491 -241.559669 
L 360.947586 -239.562975 
L 360.967382 -237.566281 
L 360.98942 -235.569587 
L 361.011244 -233.572893 
L 361.029817 -231.576198 
L 361.042287 -229.579504 
L 361.046872 -227.58281 
L 361.043573 -225.586116 
L 361.0344 -223.589421 
L 361.023013 -221.592727 
L 361.013872 -219.596033 
L 361.011143 -217.599339 
L 361.017684 -215.602645 
L 361.034352 -213.60595 
L 361.059772 -211.609256 
L 361.090606 -209.612562 
L 361.122264 -207.615868 
L 361.149912 -205.619174 
L 361.169572 -203.622479 
L 361.179015 -201.625785 
L 361.178215 -199.629091 
L 361.16917 -197.632397 
L 361.155134 -195.635702 
L 361.13948 -193.639008 
L 361.124599 -191.642314 
L 361.111247 -189.64562 
L 361.098595 -187.648926 
L 361.084932 -185.652231 
L 361.068701 -183.655537 
L 361.049425 -181.658843 
L 361.02814 -179.662149 
L 361.007221 -177.665455 
L 360.989753 -175.66876 
L 360.978723 -173.672066 
L 360.976319 -171.675372 
L 360.98353 -169.678678 
L 361.000108 -167.681983 
L 361.024898 -165.685289 
L 361.056477 -163.688595 
L 361.093973 -161.691901 
L 361.137839 -159.695207 
L 361.190295 -157.698512 
L 361.255228 -155.701818 
L 361.337453 -153.705124 
L 361.441527 -151.70843 
L 361.570421 -149.711736 
L 361.724458 -147.715041 
L 361.900864 -145.718347 
L 362.094179 -143.721653 
L 362.297582 -141.724959 
L 362.50497 -139.728264 
L 362.713298 -137.73157 
L 362.924612 -135.734876 
L 363.147207 -133.738182 
L 363.395636 -131.741488 
L 363.68951 -129.744793 
L 364.051064 -127.748099 
L 364.501373 -125.751405 
L 365.055242 -123.754711 
L 365.715447 -121.758017 
L 366.468053 -119.761322 
L 367.281265 -117.764628 
L 368.109712 -115.767934 
L 368.90415 -113.77124 
L 369.623805 -111.774545 
L 370.246694 -109.777851 
L 370.773438 -107.781157 
L 371.222594 -105.784463 
L 371.619165 -103.787769 
L 371.980867 -101.791074 
L 372.307533 -99.79438 
L 372.577508 -97.797686 
L 372.751939 -95.800992 
L 372.784926 -93.804298 
L 372.635757 -91.807603 
L 372.279246 -89.810909 
L 371.711453 -87.814215 
L 370.950053 -85.817521 
L 370.030402 -83.820826 
L 368.999462 -81.824132 
L 367.909605 -79.827438 
L 366.813479 -77.830744 
L 365.759975 -75.83405 
L 364.790792 -73.837355 
L 363.937262 -71.840661 
L 363.217766 -69.843967 
L 362.63661 -67.847273 
L 362.18516 -65.850579 
L 361.84527 -63.853884 
L 361.594145 -61.85719 
L 361.409191 -59.860496 
L 361.271499 -57.863802 
L 361.167345 -55.867107 
L 361.087856 -53.870413 
L 361.027627 -51.873719 
L 360.983141 -49.877025 
L 360.9516 -47.880331 
L 360.930369 -45.883636 
z
" id="mf101e58509" style="stroke:#3d3d3d;stroke-width:1.5;"/>
    </defs>
    <g clip-path="url(#pad2edd779a)">
     <use style="fill:#845b53;stroke:#3d3d3d;stroke-width:1.5;" x="0" xlink:href="#mf101e58509" y="288"/>
    </g>
   </g>
   <g id="matplotlib.axis_1">
    <g id="xtick_1">
     <g id="line2d_1">
      <defs>
       <path d="M 0 0 
L 0 3.5 
" id="md66848c90d" style="stroke:#000000;stroke-width:0.8;"/>
      </defs>
      <g>
       <use style="stroke:#000000;stroke-width:0.8;" x="81.9" xlink:href="#md66848c90d" y="252"/>
      </g>
     </g>
    </g>
    <g id="xtick_2">
     <g id="line2d_2">
      <g>
       <use style="stroke:#000000;stroke-width:0.8;" x="137.7" xlink:href="#md66848c90d" y="252"/>
      </g>
     </g>
    </g>
    <g id="xtick_3">
     <g id="line2d_3">
      <g>
       <use style="stroke:#000000;stroke-width:0.8;" x="193.5" xlink:href="#md66848c90d" y="252"/>
      </g>
     </g>
    </g>
    <g id="xtick_4">
     <g id="line2d_4">
      <g>
       <use style="stroke:#000000;stroke-width:0.8;" x="249.3" xlink:href="#md66848c90d" y="252"/>
      </g>
     </g>
    </g>
    <g id="xtick_5">
     <g id="line2d_5">
      <g>
       <use style="stroke:#000000;stroke-width:0.8;" x="305.1" xlink:href="#md66848c90d" y="252"/>
      </g>
     </g>
    </g>
    <g id="xtick_6">
     <g id="line2d_6">
      <g>
       <use style="stroke:#000000;stroke-width:0.8;" x="360.9" xlink:href="#md66848c90d" y="252"/>
      </g>
     </g>
    </g>
    <g id="text_1">
     <!-- economic_typology -->
     <defs>
      <path d="M 56.203125 29.59375 
L 56.203125 25.203125 
L 14.890625 25.203125 
Q 15.484375 15.921875 20.484375 11.0625 
Q 25.484375 6.203125 34.421875 6.203125 
Q 39.59375 6.203125 44.453125 7.46875 
Q 49.3125 8.734375 54.109375 11.28125 
L 54.109375 2.78125 
Q 49.265625 0.734375 44.1875 -0.34375 
Q 39.109375 -1.421875 33.890625 -1.421875 
Q 20.796875 -1.421875 13.15625 6.1875 
Q 5.515625 13.8125 5.515625 26.8125 
Q 5.515625 40.234375 12.765625 48.109375 
Q 20.015625 56 32.328125 56 
Q 43.359375 56 49.78125 48.890625 
Q 56.203125 41.796875 56.203125 29.59375 
z
M 47.21875 32.234375 
Q 47.125 39.59375 43.09375 43.984375 
Q 39.0625 48.390625 32.421875 48.390625 
Q 24.90625 48.390625 20.390625 44.140625 
Q 15.875 39.890625 15.1875 32.171875 
z
" id="DejaVuSans-101"/>
      <path d="M 48.78125 52.59375 
L 48.78125 44.1875 
Q 44.96875 46.296875 41.140625 47.34375 
Q 37.3125 48.390625 33.40625 48.390625 
Q 24.65625 48.390625 19.8125 42.84375 
Q 14.984375 37.3125 14.984375 27.296875 
Q 14.984375 17.28125 19.8125 11.734375 
Q 24.65625 6.203125 33.40625 6.203125 
Q 37.3125 6.203125 41.140625 7.25 
Q 44.96875 8.296875 48.78125 10.40625 
L 48.78125 2.09375 
Q 45.015625 0.34375 40.984375 -0.53125 
Q 36.96875 -1.421875 32.421875 -1.421875 
Q 20.0625 -1.421875 12.78125 6.34375 
Q 5.515625 14.109375 5.515625 27.296875 
Q 5.515625 40.671875 12.859375 48.328125 
Q 20.21875 56 33.015625 56 
Q 37.15625 56 41.109375 55.140625 
Q 45.0625 54.296875 48.78125 52.59375 
z
" id="DejaVuSans-99"/>
      <path d="M 30.609375 48.390625 
Q 23.390625 48.390625 19.1875 42.75 
Q 14.984375 37.109375 14.984375 27.296875 
Q 14.984375 17.484375 19.15625 11.84375 
Q 23.34375 6.203125 30.609375 6.203125 
Q 37.796875 6.203125 41.984375 11.859375 
Q 46.1875 17.53125 46.1875 27.296875 
Q 46.1875 37.015625 41.984375 42.703125 
Q 37.796875 48.390625 30.609375 48.390625 
z
M 30.609375 56 
Q 42.328125 56 49.015625 48.375 
Q 55.71875 40.765625 55.71875 27.296875 
Q 55.71875 13.875 49.015625 6.21875 
Q 42.328125 -1.421875 30.609375 -1.421875 
Q 18.84375 -1.421875 12.171875 6.21875 
Q 5.515625 13.875 5.515625 27.296875 
Q 5.515625 40.765625 12.171875 48.375 
Q 18.84375 56 30.609375 56 
z
" id="DejaVuSans-111"/>
      <path d="M 54.890625 33.015625 
L 54.890625 0 
L 45.90625 0 
L 45.90625 32.71875 
Q 45.90625 40.484375 42.875 44.328125 
Q 39.84375 48.1875 33.796875 48.1875 
Q 26.515625 48.1875 22.3125 43.546875 
Q 18.109375 38.921875 18.109375 30.90625 
L 18.109375 0 
L 9.078125 0 
L 9.078125 54.6875 
L 18.109375 54.6875 
L 18.109375 46.1875 
Q 21.34375 51.125 25.703125 53.5625 
Q 30.078125 56 35.796875 56 
Q 45.21875 56 50.046875 50.171875 
Q 54.890625 44.34375 54.890625 33.015625 
z
" id="DejaVuSans-110"/>
      <path d="M 52 44.1875 
Q 55.375 50.25 60.0625 53.125 
Q 64.75 56 71.09375 56 
Q 79.640625 56 84.28125 50.015625 
Q 88.921875 44.046875 88.921875 33.015625 
L 88.921875 0 
L 79.890625 0 
L 79.890625 32.71875 
Q 79.890625 40.578125 77.09375 44.375 
Q 74.3125 48.1875 68.609375 48.1875 
Q 61.625 48.1875 57.5625 43.546875 
Q 53.515625 38.921875 53.515625 30.90625 
L 53.515625 0 
L 44.484375 0 
L 44.484375 32.71875 
Q 44.484375 40.625 41.703125 44.40625 
Q 38.921875 48.1875 33.109375 48.1875 
Q 26.21875 48.1875 22.15625 43.53125 
Q 18.109375 38.875 18.109375 30.90625 
L 18.109375 0 
L 9.078125 0 
L 9.078125 54.6875 
L 18.109375 54.6875 
L 18.109375 46.1875 
Q 21.1875 51.21875 25.484375 53.609375 
Q 29.78125 56 35.6875 56 
Q 41.65625 56 45.828125 52.96875 
Q 50 49.953125 52 44.1875 
z
" id="DejaVuSans-109"/>
      <path d="M 9.421875 54.6875 
L 18.40625 54.6875 
L 18.40625 0 
L 9.421875 0 
z
M 9.421875 75.984375 
L 18.40625 75.984375 
L 18.40625 64.59375 
L 9.421875 64.59375 
z
" id="DejaVuSans-105"/>
      <path d="M 50.984375 -16.609375 
L 50.984375 -23.578125 
L -0.984375 -23.578125 
L -0.984375 -16.609375 
z
" id="DejaVuSans-95"/>
      <path d="M 18.3125 70.21875 
L 18.3125 54.6875 
L 36.8125 54.6875 
L 36.8125 47.703125 
L 18.3125 47.703125 
L 18.3125 18.015625 
Q 18.3125 11.328125 20.140625 9.421875 
Q 21.96875 7.515625 27.59375 7.515625 
L 36.8125 7.515625 
L 36.8125 0 
L 27.59375 0 
Q 17.1875 0 13.234375 3.875 
Q 9.28125 7.765625 9.28125 18.015625 
L 9.28125 47.703125 
L 2.6875 47.703125 
L 2.6875 54.6875 
L 9.28125 54.6875 
L 9.28125 70.21875 
z
" id="DejaVuSans-116"/>
      <path d="M 32.171875 -5.078125 
Q 28.375 -14.84375 24.75 -17.8125 
Q 21.140625 -20.796875 15.09375 -20.796875 
L 7.90625 -20.796875 
L 7.90625 -13.28125 
L 13.1875 -13.28125 
Q 16.890625 -13.28125 18.9375 -11.515625 
Q 21 -9.765625 23.484375 -3.21875 
L 25.09375 0.875 
L 2.984375 54.6875 
L 12.5 54.6875 
L 29.59375 11.921875 
L 46.6875 54.6875 
L 56.203125 54.6875 
z
" id="DejaVuSans-121"/>
      <path d="M 18.109375 8.203125 
L 18.109375 -20.796875 
L 9.078125 -20.796875 
L 9.078125 54.6875 
L 18.109375 54.6875 
L 18.109375 46.390625 
Q 20.953125 51.265625 25.265625 53.625 
Q 29.59375 56 35.59375 56 
Q 45.5625 56 51.78125 48.09375 
Q 58.015625 40.1875 58.015625 27.296875 
Q 58.015625 14.40625 51.78125 6.484375 
Q 45.5625 -1.421875 35.59375 -1.421875 
Q 29.59375 -1.421875 25.265625 0.953125 
Q 20.953125 3.328125 18.109375 8.203125 
z
M 48.6875 27.296875 
Q 48.6875 37.203125 44.609375 42.84375 
Q 40.53125 48.484375 33.40625 48.484375 
Q 26.265625 48.484375 22.1875 42.84375 
Q 18.109375 37.203125 18.109375 27.296875 
Q 18.109375 17.390625 22.1875 11.75 
Q 26.265625 6.109375 33.40625 6.109375 
Q 40.53125 6.109375 44.609375 11.75 
Q 48.6875 17.390625 48.6875 27.296875 
z
" id="DejaVuSans-112"/>
      <path d="M 9.421875 75.984375 
L 18.40625 75.984375 
L 18.40625 0 
L 9.421875 0 
z
" id="DejaVuSans-108"/>
      <path d="M 45.40625 27.984375 
Q 45.40625 37.75 41.375 43.109375 
Q 37.359375 48.484375 30.078125 48.484375 
Q 22.859375 48.484375 18.828125 43.109375 
Q 14.796875 37.75 14.796875 27.984375 
Q 14.796875 18.265625 18.828125 12.890625 
Q 22.859375 7.515625 30.078125 7.515625 
Q 37.359375 7.515625 41.375 12.890625 
Q 45.40625 18.265625 45.40625 27.984375 
z
M 54.390625 6.78125 
Q 54.390625 -7.171875 48.1875 -13.984375 
Q 42 -20.796875 29.203125 -20.796875 
Q 24.46875 -20.796875 20.265625 -20.09375 
Q 16.0625 -19.390625 12.109375 -17.921875 
L 12.109375 -9.1875 
Q 16.0625 -11.328125 19.921875 -12.34375 
Q 23.78125 -13.375 27.78125 -13.375 
Q 36.625 -13.375 41.015625 -8.765625 
Q 45.40625 -4.15625 45.40625 5.171875 
L 45.40625 9.625 
Q 42.625 4.78125 38.28125 2.390625 
Q 33.9375 0 27.875 0 
Q 17.828125 0 11.671875 7.65625 
Q 5.515625 15.328125 5.515625 27.984375 
Q 5.515625 40.671875 11.671875 48.328125 
Q 17.828125 56 27.875 56 
Q 33.9375 56 38.28125 53.609375 
Q 42.625 51.21875 45.40625 46.390625 
L 45.40625 54.6875 
L 54.390625 54.6875 
z
" id="DejaVuSans-103"/>
     </defs>
     <g transform="translate(173.042969 270.598437)scale(0.1 -0.1)">
      <use xlink:href="#DejaVuSans-101"/>
      <use x="61.523438" xlink:href="#DejaVuSans-99"/>
      <use x="116.503906" xlink:href="#DejaVuSans-111"/>
      <use x="177.685547" xlink:href="#DejaVuSans-110"/>
      <use x="241.064453" xlink:href="#DejaVuSans-111"/>
      <use x="302.246094" xlink:href="#DejaVuSans-109"/>
      <use x="399.658203" xlink:href="#DejaVuSans-105"/>
      <use x="427.441406" xlink:href="#DejaVuSans-99"/>
      <use x="482.421875" xlink:href="#DejaVuSans-95"/>
      <use x="532.421875" xlink:href="#DejaVuSans-116"/>
      <use x="571.630859" xlink:href="#DejaVuSans-121"/>
      <use x="630.810547" xlink:href="#DejaVuSans-112"/>
      <use x="694.287109" xlink:href="#DejaVuSans-111"/>
      <use x="755.46875" xlink:href="#DejaVuSans-108"/>
      <use x="783.251953" xlink:href="#DejaVuSans-111"/>
      <use x="844.433594" xlink:href="#DejaVuSans-103"/>
      <use x="907.910156" xlink:href="#DejaVuSans-121"/>
     </g>
    </g>
   </g>
   <g id="matplotlib.axis_2">
    <g id="ytick_1">
     <g id="line2d_7">
      <defs>
       <path d="M 0 0 
L -3.5 0 
" id="m690ff3a5fb" style="stroke:#000000;stroke-width:0.8;"/>
      </defs>
      <g>
       <use style="stroke:#000000;stroke-width:0.8;" x="54" xlink:href="#m690ff3a5fb" y="237.854865"/>
      </g>
     </g>
     <g id="text_2">
      <!-- 250 -->
      <defs>
       <path d="M 19.1875 8.296875 
L 53.609375 8.296875 
L 53.609375 0 
L 7.328125 0 
L 7.328125 8.296875 
Q 12.9375 14.109375 22.625 23.890625 
Q 32.328125 33.6875 34.8125 36.53125 
Q 39.546875 41.84375 41.421875 45.53125 
Q 43.3125 49.21875 43.3125 52.78125 
Q 43.3125 58.59375 39.234375 62.25 
Q 35.15625 65.921875 28.609375 65.921875 
Q 23.96875 65.921875 18.8125 64.3125 
Q 13.671875 62.703125 7.8125 59.421875 
L 7.8125 69.390625 
Q 13.765625 71.78125 18.9375 73 
Q 24.125 74.21875 28.421875 74.21875 
Q 39.75 74.21875 46.484375 68.546875 
Q 53.21875 62.890625 53.21875 53.421875 
Q 53.21875 48.921875 51.53125 44.890625 
Q 49.859375 40.875 45.40625 35.40625 
Q 44.1875 33.984375 37.640625 27.21875 
Q 31.109375 20.453125 19.1875 8.296875 
z
" id="DejaVuSans-50"/>
       <path d="M 10.796875 72.90625 
L 49.515625 72.90625 
L 49.515625 64.59375 
L 19.828125 64.59375 
L 19.828125 46.734375 
Q 21.96875 47.46875 24.109375 47.828125 
Q 26.265625 48.1875 28.421875 48.1875 
Q 40.625 48.1875 47.75 41.5 
Q 54.890625 34.8125 54.890625 23.390625 
Q 54.890625 11.625 47.5625 5.09375 
Q 40.234375 -1.421875 26.90625 -1.421875 
Q 22.3125 -1.421875 17.546875 -0.640625 
Q 12.796875 0.140625 7.71875 1.703125 
L 7.71875 11.625 
Q 12.109375 9.234375 16.796875 8.0625 
Q 21.484375 6.890625 26.703125 6.890625 
Q 35.15625 6.890625 40.078125 11.328125 
Q 45.015625 15.765625 45.015625 23.390625 
Q 45.015625 31 40.078125 35.4375 
Q 35.15625 39.890625 26.703125 39.890625 
Q 22.75 39.890625 18.8125 39.015625 
Q 14.890625 38.140625 10.796875 36.28125 
z
" id="DejaVuSans-53"/>
       <path d="M 31.78125 66.40625 
Q 24.171875 66.40625 20.328125 58.90625 
Q 16.5 51.421875 16.5 36.375 
Q 16.5 21.390625 20.328125 13.890625 
Q 24.171875 6.390625 31.78125 6.390625 
Q 39.453125 6.390625 43.28125 13.890625 
Q 47.125 21.390625 47.125 36.375 
Q 47.125 51.421875 43.28125 58.90625 
Q 39.453125 66.40625 31.78125 66.40625 
z
M 31.78125 74.21875 
Q 44.046875 74.21875 50.515625 64.515625 
Q 56.984375 54.828125 56.984375 36.375 
Q 56.984375 17.96875 50.515625 8.265625 
Q 44.046875 -1.421875 31.78125 -1.421875 
Q 19.53125 -1.421875 13.0625 8.265625 
Q 6.59375 17.96875 6.59375 36.375 
Q 6.59375 54.828125 13.0625 64.515625 
Q 19.53125 74.21875 31.78125 74.21875 
z
" id="DejaVuSans-48"/>
      </defs>
      <g transform="translate(27.9125 241.654083)scale(0.1 -0.1)">
       <use xlink:href="#DejaVuSans-50"/>
       <use x="63.623047" xlink:href="#DejaVuSans-53"/>
       <use x="127.246094" xlink:href="#DejaVuSans-48"/>
      </g>
     </g>
    </g>
    <g id="ytick_2">
     <g id="line2d_8">
      <g>
       <use style="stroke:#000000;stroke-width:0.8;" x="54" xlink:href="#m690ff3a5fb" y="209.674035"/>
      </g>
     </g>
     <g id="text_3">
      <!-- 500 -->
      <g transform="translate(27.9125 213.473254)scale(0.1 -0.1)">
       <use xlink:href="#DejaVuSans-53"/>
       <use x="63.623047" xlink:href="#DejaVuSans-48"/>
       <use x="127.246094" xlink:href="#DejaVuSans-48"/>
      </g>
     </g>
    </g>
    <g id="ytick_3">
     <g id="line2d_9">
      <g>
       <use style="stroke:#000000;stroke-width:0.8;" x="54" xlink:href="#m690ff3a5fb" y="181.493205"/>
      </g>
     </g>
     <g id="text_4">
      <!-- 750 -->
      <defs>
       <path d="M 8.203125 72.90625 
L 55.078125 72.90625 
L 55.078125 68.703125 
L 28.609375 0 
L 18.3125 0 
L 43.21875 64.59375 
L 8.203125 64.59375 
z
" id="DejaVuSans-55"/>
      </defs>
      <g transform="translate(27.9125 185.292424)scale(0.1 -0.1)">
       <use xlink:href="#DejaVuSans-55"/>
       <use x="63.623047" xlink:href="#DejaVuSans-53"/>
       <use x="127.246094" xlink:href="#DejaVuSans-48"/>
      </g>
     </g>
    </g>
    <g id="ytick_4">
     <g id="line2d_10">
      <g>
       <use style="stroke:#000000;stroke-width:0.8;" x="54" xlink:href="#m690ff3a5fb" y="153.312375"/>
      </g>
     </g>
     <g id="text_5">
      <!-- 1000 -->
      <defs>
       <path d="M 12.40625 8.296875 
L 28.515625 8.296875 
L 28.515625 63.921875 
L 10.984375 60.40625 
L 10.984375 69.390625 
L 28.421875 72.90625 
L 38.28125 72.90625 
L 38.28125 8.296875 
L 54.390625 8.296875 
L 54.390625 0 
L 12.40625 0 
z
" id="DejaVuSans-49"/>
      </defs>
      <g transform="translate(21.55 157.111594)scale(0.1 -0.1)">
       <use xlink:href="#DejaVuSans-49"/>
       <use x="63.623047" xlink:href="#DejaVuSans-48"/>
       <use x="127.246094" xlink:href="#DejaVuSans-48"/>
       <use x="190.869141" xlink:href="#DejaVuSans-48"/>
      </g>
     </g>
    </g>
    <g id="ytick_5">
     <g id="line2d_11">
      <g>
       <use style="stroke:#000000;stroke-width:0.8;" x="54" xlink:href="#m690ff3a5fb" y="125.131546"/>
      </g>
     </g>
     <g id="text_6">
      <!-- 1250 -->
      <g transform="translate(21.55 128.930764)scale(0.1 -0.1)">
       <use xlink:href="#DejaVuSans-49"/>
       <use x="63.623047" xlink:href="#DejaVuSans-50"/>
       <use x="127.246094" xlink:href="#DejaVuSans-53"/>
       <use x="190.869141" xlink:href="#DejaVuSans-48"/>
      </g>
     </g>
    </g>
    <g id="ytick_6">
     <g id="line2d_12">
      <g>
       <use style="stroke:#000000;stroke-width:0.8;" x="54" xlink:href="#m690ff3a5fb" y="96.950716"/>
      </g>
     </g>
     <g id="text_7">
      <!-- 1500 -->
      <g transform="translate(21.55 100.749935)scale(0.1 -0.1)">
       <use xlink:href="#DejaVuSans-49"/>
       <use x="63.623047" xlink:href="#DejaVuSans-53"/>
       <use x="127.246094" xlink:href="#DejaVuSans-48"/>
       <use x="190.869141" xlink:href="#DejaVuSans-48"/>
      </g>
     </g>
    </g>
    <g id="ytick_7">
     <g id="line2d_13">
      <g>
       <use style="stroke:#000000;stroke-width:0.8;" x="54" xlink:href="#m690ff3a5fb" y="68.769886"/>
      </g>
     </g>
     <g id="text_8">
      <!-- 1750 -->
      <g transform="translate(21.55 72.569105)scale(0.1 -0.1)">
       <use xlink:href="#DejaVuSans-49"/>
       <use x="63.623047" xlink:href="#DejaVuSans-55"/>
       <use x="127.246094" xlink:href="#DejaVuSans-53"/>
       <use x="190.869141" xlink:href="#DejaVuSans-48"/>
      </g>
     </g>
    </g>
    <g id="ytick_8">
     <g id="line2d_14">
      <g>
       <use style="stroke:#000000;stroke-width:0.8;" x="54" xlink:href="#m690ff3a5fb" y="40.589056"/>
      </g>
     </g>
     <g id="text_9">
      <!-- 2000 -->
      <g transform="translate(21.55 44.388275)scale(0.1 -0.1)">
       <use xlink:href="#DejaVuSans-50"/>
       <use x="63.623047" xlink:href="#DejaVuSans-48"/>
       <use x="127.246094" xlink:href="#DejaVuSans-48"/>
       <use x="190.869141" xlink:href="#DejaVuSans-48"/>
      </g>
     </g>
    </g>
    <g id="text_10">
     <!-- gross_rent -->
     <defs>
      <path d="M 41.109375 46.296875 
Q 39.59375 47.171875 37.8125 47.578125 
Q 36.03125 48 33.890625 48 
Q 26.265625 48 22.1875 43.046875 
Q 18.109375 38.09375 18.109375 28.8125 
L 18.109375 0 
L 9.078125 0 
L 9.078125 54.6875 
L 18.109375 54.6875 
L 18.109375 46.1875 
Q 20.953125 51.171875 25.484375 53.578125 
Q 30.03125 56 36.53125 56 
Q 37.453125 56 38.578125 55.875 
Q 39.703125 55.765625 41.0625 55.515625 
z
" id="DejaVuSans-114"/>
      <path d="M 44.28125 53.078125 
L 44.28125 44.578125 
Q 40.484375 46.53125 36.375 47.5 
Q 32.28125 48.484375 27.875 48.484375 
Q 21.1875 48.484375 17.84375 46.4375 
Q 14.5 44.390625 14.5 40.28125 
Q 14.5 37.15625 16.890625 35.375 
Q 19.28125 33.59375 26.515625 31.984375 
L 29.59375 31.296875 
Q 39.15625 29.25 43.1875 25.515625 
Q 47.21875 21.78125 47.21875 15.09375 
Q 47.21875 7.46875 41.1875 3.015625 
Q 35.15625 -1.421875 24.609375 -1.421875 
Q 20.21875 -1.421875 15.453125 -0.5625 
Q 10.6875 0.296875 5.421875 2 
L 5.421875 11.28125 
Q 10.40625 8.6875 15.234375 7.390625 
Q 20.0625 6.109375 24.8125 6.109375 
Q 31.15625 6.109375 34.5625 8.28125 
Q 37.984375 10.453125 37.984375 14.40625 
Q 37.984375 18.0625 35.515625 20.015625 
Q 33.0625 21.96875 24.703125 23.78125 
L 21.578125 24.515625 
Q 13.234375 26.265625 9.515625 29.90625 
Q 5.8125 33.546875 5.8125 39.890625 
Q 5.8125 47.609375 11.28125 51.796875 
Q 16.75 56 26.8125 56 
Q 31.78125 56 36.171875 55.265625 
Q 40.578125 54.546875 44.28125 53.078125 
z
" id="DejaVuSans-115"/>
     </defs>
     <g transform="translate(15.192187 169.53625)rotate(-90)scale(0.1 -0.1)">
      <use xlink:href="#DejaVuSans-103"/>
      <use x="63.476562" xlink:href="#DejaVuSans-114"/>
      <use x="104.558594" xlink:href="#DejaVuSans-111"/>
      <use x="165.740234" xlink:href="#DejaVuSans-115"/>
      <use x="217.839844" xlink:href="#DejaVuSans-115"/>
      <use x="269.939453" xlink:href="#DejaVuSans-95"/>
      <use x="319.939453" xlink:href="#DejaVuSans-114"/>
      <use x="361.021484" xlink:href="#DejaVuSans-101"/>
      <use x="422.544922" xlink:href="#DejaVuSans-110"/>
      <use x="485.923828" xlink:href="#DejaVuSans-116"/>
     </g>
    </g>
   </g>
   <g id="line2d_15">
    <path clip-path="url(#pad2edd779a)" d="M 81.9 215.197477 
L 81.9 172.249893 
" style="fill:none;stroke:#3d3d3d;stroke-linecap:square;stroke-width:1.5;"/>
   </g>
   <g id="line2d_16">
    <path clip-path="url(#pad2edd779a)" d="M 81.9 200.656169 
L 81.9 189.102029 
" style="fill:none;stroke:#3d3d3d;stroke-linecap:square;stroke-width:4.5;"/>
   </g>
   <g id="line2d_17">
    <path clip-path="url(#pad2edd779a)" d="M 137.7 219.70641 
L 137.7 109.913898 
" style="fill:none;stroke:#3d3d3d;stroke-linecap:square;stroke-width:1.5;"/>
   </g>
   <g id="line2d_18">
    <path clip-path="url(#pad2edd779a)" d="M 137.7 195.386354 
L 137.7 161.174827 
" style="fill:none;stroke:#3d3d3d;stroke-linecap:square;stroke-width:4.5;"/>
   </g>
   <g id="line2d_19">
    <path clip-path="url(#pad2edd779a)" d="M 193.5 222.862663 
L 193.5 132.345838 
" style="fill:none;stroke:#3d3d3d;stroke-linecap:square;stroke-width:1.5;"/>
   </g>
   <g id="line2d_20">
    <path clip-path="url(#pad2edd779a)" d="M 193.5 198.908958 
L 193.5 172.249893 
" style="fill:none;stroke:#3d3d3d;stroke-linecap:square;stroke-width:4.5;"/>
   </g>
   <g id="line2d_21">
    <path clip-path="url(#pad2edd779a)" d="M 249.3 223.42628 
L 249.3 176.758826 
" style="fill:none;stroke:#3d3d3d;stroke-linecap:square;stroke-width:1.5;"/>
   </g>
   <g id="line2d_22">
    <path clip-path="url(#pad2edd779a)" d="M 249.3 209.448588 
L 249.3 196.372683 
" style="fill:none;stroke:#3d3d3d;stroke-linecap:square;stroke-width:4.5;"/>
   </g>
   <g id="line2d_23">
    <path clip-path="url(#pad2edd779a)" d="M 305.1 225.906193 
L 305.1 161.315731 
" style="fill:none;stroke:#3d3d3d;stroke-linecap:square;stroke-width:1.5;"/>
   </g>
   <g id="line2d_24">
    <path clip-path="url(#pad2edd779a)" d="M 305.1 203.812422 
L 305.1 185.663968 
" style="fill:none;stroke:#3d3d3d;stroke-linecap:square;stroke-width:4.5;"/>
   </g>
   <g id="line2d_25">
    <path clip-path="url(#pad2edd779a)" d="M 360.9 226.469809 
L 360.9 148.577996 
" style="fill:none;stroke:#3d3d3d;stroke-linecap:square;stroke-width:1.5;"/>
   </g>
   <g id="line2d_26">
    <path clip-path="url(#pad2edd779a)" d="M 360.9 199.078043 
L 360.9 176.195209 
" style="fill:none;stroke:#3d3d3d;stroke-linecap:square;stroke-width:4.5;"/>
   </g>
   <g id="patch_3">
    <path d="M 54 252 
L 54 34.56 
" style="fill:none;stroke:#000000;stroke-linecap:square;stroke-linejoin:miter;stroke-width:0.8;"/>
   </g>
   <g id="patch_4">
    <path d="M 388.8 252 
L 388.8 34.56 
" style="fill:none;stroke:#000000;stroke-linecap:square;stroke-linejoin:miter;stroke-width:0.8;"/>
   </g>
   <g id="patch_5">
    <path d="M 54 252 
L 388.8 252 
" style="fill:none;stroke:#000000;stroke-linecap:square;stroke-linejoin:miter;stroke-width:0.8;"/>
   </g>
   <g id="patch_6">
    <path d="M 54 34.56 
L 388.8 34.56 
" style="fill:none;stroke:#000000;stroke-linecap:square;stroke-linejoin:miter;stroke-width:0.8;"/>
   </g>
   <g id="PathCollection_1">
    <defs>
     <path d="M 0 1.5 
C 0.397805 1.5 0.77937 1.341951 1.06066 1.06066 
C 1.341951 0.77937 1.5 0.397805 1.5 0 
C 1.5 -0.397805 1.341951 -0.77937 1.06066 -1.06066 
C 0.77937 -1.341951 0.397805 -1.5 0 -1.5 
C -0.397805 -1.5 -0.77937 -1.341951 -1.06066 -1.06066 
C -1.341951 -0.77937 -1.5 -0.397805 -1.5 0 
C -1.5 0.397805 -1.341951 0.77937 -1.06066 1.06066 
C -0.77937 1.341951 -0.397805 1.5 0 1.5 
z
" id="m65d942944f" style="stroke:#3d3d3d;"/>
    </defs>
    <g clip-path="url(#pad2edd779a)">
     <use style="fill:#ffffff;stroke:#3d3d3d;" x="81.9" xlink:href="#m65d942944f" y="195.470897"/>
    </g>
   </g>
   <g id="PathCollection_2">
    <g clip-path="url(#pad2edd779a)">
     <use style="fill:#ffffff;stroke:#3d3d3d;" x="137.7" xlink:href="#m65d942944f" y="179.63327"/>
    </g>
   </g>
   <g id="PathCollection_3">
    <g clip-path="url(#pad2edd779a)">
     <use style="fill:#ffffff;stroke:#3d3d3d;" x="193.5" xlink:href="#m65d942944f" y="187.918434"/>
    </g>
   </g>
   <g id="PathCollection_4">
    <g clip-path="url(#pad2edd779a)">
     <use style="fill:#ffffff;stroke:#3d3d3d;" x="249.3" xlink:href="#m65d942944f" y="203.023359"/>
    </g>
   </g>
   <g id="PathCollection_5">
    <g clip-path="url(#pad2edd779a)">
     <use style="fill:#ffffff;stroke:#3d3d3d;" x="305.1" xlink:href="#m65d942944f" y="195.58362"/>
    </g>
   </g>
   <g id="PathCollection_6">
    <g clip-path="url(#pad2edd779a)">
     <use style="fill:#ffffff;stroke:#3d3d3d;" x="360.9" xlink:href="#m65d942944f" y="188.594774"/>
    </g>
   </g>
   <g id="legend_1">
    <g id="patch_7">
     <path d="M 395.8 130.62875 
L 617.078125 130.62875 
Q 619.078125 130.62875 619.078125 128.62875 
L 619.078125 41.56 
Q 619.078125 39.56 617.078125 39.56 
L 395.8 39.56 
Q 393.8 39.56 393.8 41.56 
L 393.8 128.62875 
Q 393.8 130.62875 395.8 130.62875 
z
" style="fill:#ffffff;opacity:0.8;stroke:#cccccc;stroke-linejoin:miter;"/>
    </g>
    <g id="line2d_27">
     <path d="M 397.8 47.658437 
L 417.8 47.658437 
" style="fill:none;stroke:#3d3d3d;stroke-linecap:square;stroke-width:1.5;"/>
    </g>
    <g id="line2d_28"/>
    <g id="text_11">
     <!-- Manufacturing-dependent -->
     <defs>
      <path d="M 9.8125 72.90625 
L 24.515625 72.90625 
L 43.109375 23.296875 
L 61.8125 72.90625 
L 76.515625 72.90625 
L 76.515625 0 
L 66.890625 0 
L 66.890625 64.015625 
L 48.09375 14.015625 
L 38.1875 14.015625 
L 19.390625 64.015625 
L 19.390625 0 
L 9.8125 0 
z
" id="DejaVuSans-77"/>
      <path d="M 34.28125 27.484375 
Q 23.390625 27.484375 19.1875 25 
Q 14.984375 22.515625 14.984375 16.5 
Q 14.984375 11.71875 18.140625 8.90625 
Q 21.296875 6.109375 26.703125 6.109375 
Q 34.1875 6.109375 38.703125 11.40625 
Q 43.21875 16.703125 43.21875 25.484375 
L 43.21875 27.484375 
z
M 52.203125 31.203125 
L 52.203125 0 
L 43.21875 0 
L 43.21875 8.296875 
Q 40.140625 3.328125 35.546875 0.953125 
Q 30.953125 -1.421875 24.3125 -1.421875 
Q 15.921875 -1.421875 10.953125 3.296875 
Q 6 8.015625 6 15.921875 
Q 6 25.140625 12.171875 29.828125 
Q 18.359375 34.515625 30.609375 34.515625 
L 43.21875 34.515625 
L 43.21875 35.40625 
Q 43.21875 41.609375 39.140625 45 
Q 35.0625 48.390625 27.6875 48.390625 
Q 23 48.390625 18.546875 47.265625 
Q 14.109375 46.140625 10.015625 43.890625 
L 10.015625 52.203125 
Q 14.9375 54.109375 19.578125 55.046875 
Q 24.21875 56 28.609375 56 
Q 40.484375 56 46.34375 49.84375 
Q 52.203125 43.703125 52.203125 31.203125 
z
" id="DejaVuSans-97"/>
      <path d="M 8.5 21.578125 
L 8.5 54.6875 
L 17.484375 54.6875 
L 17.484375 21.921875 
Q 17.484375 14.15625 20.5 10.265625 
Q 23.53125 6.390625 29.59375 6.390625 
Q 36.859375 6.390625 41.078125 11.03125 
Q 45.3125 15.671875 45.3125 23.6875 
L 45.3125 54.6875 
L 54.296875 54.6875 
L 54.296875 0 
L 45.3125 0 
L 45.3125 8.40625 
Q 42.046875 3.421875 37.71875 1 
Q 33.40625 -1.421875 27.6875 -1.421875 
Q 18.265625 -1.421875 13.375 4.4375 
Q 8.5 10.296875 8.5 21.578125 
z
M 31.109375 56 
z
" id="DejaVuSans-117"/>
      <path d="M 37.109375 75.984375 
L 37.109375 68.5 
L 28.515625 68.5 
Q 23.6875 68.5 21.796875 66.546875 
Q 19.921875 64.59375 19.921875 59.515625 
L 19.921875 54.6875 
L 34.71875 54.6875 
L 34.71875 47.703125 
L 19.921875 47.703125 
L 19.921875 0 
L 10.890625 0 
L 10.890625 47.703125 
L 2.296875 47.703125 
L 2.296875 54.6875 
L 10.890625 54.6875 
L 10.890625 58.5 
Q 10.890625 67.625 15.140625 71.796875 
Q 19.390625 75.984375 28.609375 75.984375 
z
" id="DejaVuSans-102"/>
      <path d="M 4.890625 31.390625 
L 31.203125 31.390625 
L 31.203125 23.390625 
L 4.890625 23.390625 
z
" id="DejaVuSans-45"/>
      <path d="M 45.40625 46.390625 
L 45.40625 75.984375 
L 54.390625 75.984375 
L 54.390625 0 
L 45.40625 0 
L 45.40625 8.203125 
Q 42.578125 3.328125 38.25 0.953125 
Q 33.9375 -1.421875 27.875 -1.421875 
Q 17.96875 -1.421875 11.734375 6.484375 
Q 5.515625 14.40625 5.515625 27.296875 
Q 5.515625 40.1875 11.734375 48.09375 
Q 17.96875 56 27.875 56 
Q 33.9375 56 38.25 53.625 
Q 42.578125 51.265625 45.40625 46.390625 
z
M 14.796875 27.296875 
Q 14.796875 17.390625 18.875 11.75 
Q 22.953125 6.109375 30.078125 6.109375 
Q 37.203125 6.109375 41.296875 11.75 
Q 45.40625 17.390625 45.40625 27.296875 
Q 45.40625 37.203125 41.296875 42.84375 
Q 37.203125 48.484375 30.078125 48.484375 
Q 22.953125 48.484375 18.875 42.84375 
Q 14.796875 37.203125 14.796875 27.296875 
z
" id="DejaVuSans-100"/>
     </defs>
     <g transform="translate(425.8 51.158437)scale(0.1 -0.1)">
      <use xlink:href="#DejaVuSans-77"/>
      <use x="86.279297" xlink:href="#DejaVuSans-97"/>
      <use x="147.558594" xlink:href="#DejaVuSans-110"/>
      <use x="210.9375" xlink:href="#DejaVuSans-117"/>
      <use x="274.316406" xlink:href="#DejaVuSans-102"/>
      <use x="309.521484" xlink:href="#DejaVuSans-97"/>
      <use x="370.800781" xlink:href="#DejaVuSans-99"/>
      <use x="425.78125" xlink:href="#DejaVuSans-116"/>
      <use x="464.990234" xlink:href="#DejaVuSans-117"/>
      <use x="528.369141" xlink:href="#DejaVuSans-114"/>
      <use x="569.482422" xlink:href="#DejaVuSans-105"/>
      <use x="597.265625" xlink:href="#DejaVuSans-110"/>
      <use x="660.644531" xlink:href="#DejaVuSans-103"/>
      <use x="724.121094" xlink:href="#DejaVuSans-45"/>
      <use x="760.205078" xlink:href="#DejaVuSans-100"/>
      <use x="823.681641" xlink:href="#DejaVuSans-101"/>
      <use x="885.205078" xlink:href="#DejaVuSans-112"/>
      <use x="948.681641" xlink:href="#DejaVuSans-101"/>
      <use x="1010.205078" xlink:href="#DejaVuSans-110"/>
      <use x="1073.583984" xlink:href="#DejaVuSans-100"/>
      <use x="1137.060547" xlink:href="#DejaVuSans-101"/>
      <use x="1198.583984" xlink:href="#DejaVuSans-110"/>
      <use x="1261.962891" xlink:href="#DejaVuSans-116"/>
     </g>
    </g>
    <g id="line2d_29">
     <path d="M 397.8 62.336562 
L 417.8 62.336562 
" style="fill:none;stroke:#3d3d3d;stroke-linecap:square;stroke-width:4.5;"/>
    </g>
    <g id="line2d_30"/>
    <g id="text_12">
     <!-- Recreation -->
     <defs>
      <path d="M 44.390625 34.1875 
Q 47.5625 33.109375 50.5625 29.59375 
Q 53.5625 26.078125 56.59375 19.921875 
L 66.609375 0 
L 56 0 
L 46.6875 18.703125 
Q 43.0625 26.03125 39.671875 28.421875 
Q 36.28125 30.8125 30.421875 30.8125 
L 19.671875 30.8125 
L 19.671875 0 
L 9.8125 0 
L 9.8125 72.90625 
L 32.078125 72.90625 
Q 44.578125 72.90625 50.734375 67.671875 
Q 56.890625 62.453125 56.890625 51.90625 
Q 56.890625 45.015625 53.6875 40.46875 
Q 50.484375 35.9375 44.390625 34.1875 
z
M 19.671875 64.796875 
L 19.671875 38.921875 
L 32.078125 38.921875 
Q 39.203125 38.921875 42.84375 42.21875 
Q 46.484375 45.515625 46.484375 51.90625 
Q 46.484375 58.296875 42.84375 61.546875 
Q 39.203125 64.796875 32.078125 64.796875 
z
" id="DejaVuSans-82"/>
     </defs>
     <g transform="translate(425.8 65.836562)scale(0.1 -0.1)">
      <use xlink:href="#DejaVuSans-82"/>
      <use x="69.419922" xlink:href="#DejaVuSans-101"/>
      <use x="130.943359" xlink:href="#DejaVuSans-99"/>
      <use x="185.923828" xlink:href="#DejaVuSans-114"/>
      <use x="227.005859" xlink:href="#DejaVuSans-101"/>
      <use x="288.529297" xlink:href="#DejaVuSans-97"/>
      <use x="349.808594" xlink:href="#DejaVuSans-116"/>
      <use x="389.017578" xlink:href="#DejaVuSans-105"/>
      <use x="416.800781" xlink:href="#DejaVuSans-111"/>
      <use x="477.982422" xlink:href="#DejaVuSans-110"/>
     </g>
    </g>
    <g id="line2d_31">
     <path d="M 397.8 77.014687 
L 417.8 77.014687 
" style="fill:none;stroke:#3d3d3d;stroke-linecap:square;stroke-width:1.5;"/>
    </g>
    <g id="line2d_32"/>
    <g id="text_13">
     <!-- Nonspecialized -->
     <defs>
      <path d="M 9.8125 72.90625 
L 23.09375 72.90625 
L 55.421875 11.921875 
L 55.421875 72.90625 
L 64.984375 72.90625 
L 64.984375 0 
L 51.703125 0 
L 19.390625 60.984375 
L 19.390625 0 
L 9.8125 0 
z
" id="DejaVuSans-78"/>
      <path d="M 5.515625 54.6875 
L 48.1875 54.6875 
L 48.1875 46.484375 
L 14.40625 7.171875 
L 48.1875 7.171875 
L 48.1875 0 
L 4.296875 0 
L 4.296875 8.203125 
L 38.09375 47.515625 
L 5.515625 47.515625 
z
" id="DejaVuSans-122"/>
     </defs>
     <g transform="translate(425.8 80.514687)scale(0.1 -0.1)">
      <use xlink:href="#DejaVuSans-78"/>
      <use x="74.804688" xlink:href="#DejaVuSans-111"/>
      <use x="135.986328" xlink:href="#DejaVuSans-110"/>
      <use x="199.365234" xlink:href="#DejaVuSans-115"/>
      <use x="251.464844" xlink:href="#DejaVuSans-112"/>
      <use x="314.941406" xlink:href="#DejaVuSans-101"/>
      <use x="376.464844" xlink:href="#DejaVuSans-99"/>
      <use x="431.445312" xlink:href="#DejaVuSans-105"/>
      <use x="459.228516" xlink:href="#DejaVuSans-97"/>
      <use x="520.507812" xlink:href="#DejaVuSans-108"/>
      <use x="548.291016" xlink:href="#DejaVuSans-105"/>
      <use x="576.074219" xlink:href="#DejaVuSans-122"/>
      <use x="628.564453" xlink:href="#DejaVuSans-101"/>
      <use x="690.087891" xlink:href="#DejaVuSans-100"/>
     </g>
    </g>
    <g id="line2d_33">
     <path d="M 397.8 91.692813 
L 417.8 91.692813 
" style="fill:none;stroke:#3d3d3d;stroke-linecap:square;stroke-width:4.5;"/>
    </g>
    <g id="line2d_34"/>
    <g id="text_14">
     <!-- Farm-dependent -->
     <defs>
      <path d="M 9.8125 72.90625 
L 51.703125 72.90625 
L 51.703125 64.59375 
L 19.671875 64.59375 
L 19.671875 43.109375 
L 48.578125 43.109375 
L 48.578125 34.8125 
L 19.671875 34.8125 
L 19.671875 0 
L 9.8125 0 
z
" id="DejaVuSans-70"/>
     </defs>
     <g transform="translate(425.8 95.192813)scale(0.1 -0.1)">
      <use xlink:href="#DejaVuSans-70"/>
      <use x="57.378906" xlink:href="#DejaVuSans-97"/>
      <use x="118.658203" xlink:href="#DejaVuSans-114"/>
      <use x="159.755859" xlink:href="#DejaVuSans-109"/>
      <use x="257.167969" xlink:href="#DejaVuSans-45"/>
      <use x="293.251953" xlink:href="#DejaVuSans-100"/>
      <use x="356.728516" xlink:href="#DejaVuSans-101"/>
      <use x="418.251953" xlink:href="#DejaVuSans-112"/>
      <use x="481.728516" xlink:href="#DejaVuSans-101"/>
      <use x="543.251953" xlink:href="#DejaVuSans-110"/>
      <use x="606.630859" xlink:href="#DejaVuSans-100"/>
      <use x="670.107422" xlink:href="#DejaVuSans-101"/>
      <use x="731.630859" xlink:href="#DejaVuSans-110"/>
      <use x="795.009766" xlink:href="#DejaVuSans-116"/>
     </g>
    </g>
    <g id="line2d_35">
     <path d="M 397.8 106.370937 
L 417.8 106.370937 
" style="fill:none;stroke:#3d3d3d;stroke-linecap:square;stroke-width:1.5;"/>
    </g>
    <g id="line2d_36"/>
    <g id="text_15">
     <!-- Mining-dependent -->
     <g transform="translate(425.8 109.870937)scale(0.1 -0.1)">
      <use xlink:href="#DejaVuSans-77"/>
      <use x="86.279297" xlink:href="#DejaVuSans-105"/>
      <use x="114.0625" xlink:href="#DejaVuSans-110"/>
      <use x="177.441406" xlink:href="#DejaVuSans-105"/>
      <use x="205.224609" xlink:href="#DejaVuSans-110"/>
      <use x="268.603516" xlink:href="#DejaVuSans-103"/>
      <use x="332.080078" xlink:href="#DejaVuSans-45"/>
      <use x="368.164062" xlink:href="#DejaVuSans-100"/>
      <use x="431.640625" xlink:href="#DejaVuSans-101"/>
      <use x="493.164062" xlink:href="#DejaVuSans-112"/>
      <use x="556.640625" xlink:href="#DejaVuSans-101"/>
      <use x="618.164062" xlink:href="#DejaVuSans-110"/>
      <use x="681.542969" xlink:href="#DejaVuSans-100"/>
      <use x="745.019531" xlink:href="#DejaVuSans-101"/>
      <use x="806.542969" xlink:href="#DejaVuSans-110"/>
      <use x="869.921875" xlink:href="#DejaVuSans-116"/>
     </g>
    </g>
    <g id="line2d_37">
     <path d="M 397.8 121.049062 
L 417.8 121.049062 
" style="fill:none;stroke:#3d3d3d;stroke-linecap:square;stroke-width:4.5;"/>
    </g>
    <g id="line2d_38"/>
    <g id="text_16">
     <!-- Federal/State government-dependent -->
     <defs>
      <path d="M 25.390625 72.90625 
L 33.6875 72.90625 
L 8.296875 -9.28125 
L 0 -9.28125 
z
" id="DejaVuSans-47"/>
      <path d="M 53.515625 70.515625 
L 53.515625 60.890625 
Q 47.90625 63.578125 42.921875 64.890625 
Q 37.9375 66.21875 33.296875 66.21875 
Q 25.25 66.21875 20.875 63.09375 
Q 16.5 59.96875 16.5 54.203125 
Q 16.5 49.359375 19.40625 46.890625 
Q 22.3125 44.4375 30.421875 42.921875 
L 36.375 41.703125 
Q 47.40625 39.59375 52.65625 34.296875 
Q 57.90625 29 57.90625 20.125 
Q 57.90625 9.515625 50.796875 4.046875 
Q 43.703125 -1.421875 29.984375 -1.421875 
Q 24.8125 -1.421875 18.96875 -0.25 
Q 13.140625 0.921875 6.890625 3.21875 
L 6.890625 13.375 
Q 12.890625 10.015625 18.65625 8.296875 
Q 24.421875 6.59375 29.984375 6.59375 
Q 38.421875 6.59375 43.015625 9.90625 
Q 47.609375 13.234375 47.609375 19.390625 
Q 47.609375 24.75 44.3125 27.78125 
Q 41.015625 30.8125 33.5 32.328125 
L 27.484375 33.5 
Q 16.453125 35.6875 11.515625 40.375 
Q 6.59375 45.0625 6.59375 53.421875 
Q 6.59375 63.09375 13.40625 68.65625 
Q 20.21875 74.21875 32.171875 74.21875 
Q 37.3125 74.21875 42.625 73.28125 
Q 47.953125 72.359375 53.515625 70.515625 
z
" id="DejaVuSans-83"/>
      <path id="DejaVuSans-32"/>
      <path d="M 2.984375 54.6875 
L 12.5 54.6875 
L 29.59375 8.796875 
L 46.6875 54.6875 
L 56.203125 54.6875 
L 35.6875 0 
L 23.484375 0 
z
" id="DejaVuSans-118"/>
     </defs>
     <g transform="translate(425.8 124.549062)scale(0.1 -0.1)">
      <use xlink:href="#DejaVuSans-70"/>
      <use x="57.441406" xlink:href="#DejaVuSans-101"/>
      <use x="118.964844" xlink:href="#DejaVuSans-100"/>
      <use x="182.441406" xlink:href="#DejaVuSans-101"/>
      <use x="243.964844" xlink:href="#DejaVuSans-114"/>
      <use x="285.078125" xlink:href="#DejaVuSans-97"/>
      <use x="346.357422" xlink:href="#DejaVuSans-108"/>
      <use x="374.140625" xlink:href="#DejaVuSans-47"/>
      <use x="407.832031" xlink:href="#DejaVuSans-83"/>
      <use x="471.308594" xlink:href="#DejaVuSans-116"/>
      <use x="510.517578" xlink:href="#DejaVuSans-97"/>
      <use x="571.796875" xlink:href="#DejaVuSans-116"/>
      <use x="611.005859" xlink:href="#DejaVuSans-101"/>
      <use x="672.529297" xlink:href="#DejaVuSans-32"/>
      <use x="704.316406" xlink:href="#DejaVuSans-103"/>
      <use x="767.792969" xlink:href="#DejaVuSans-111"/>
      <use x="828.974609" xlink:href="#DejaVuSans-118"/>
      <use x="888.154297" xlink:href="#DejaVuSans-101"/>
      <use x="949.677734" xlink:href="#DejaVuSans-114"/>
      <use x="990.775391" xlink:href="#DejaVuSans-110"/>
      <use x="1054.154297" xlink:href="#DejaVuSans-109"/>
      <use x="1151.566406" xlink:href="#DejaVuSans-101"/>
      <use x="1213.089844" xlink:href="#DejaVuSans-110"/>
      <use x="1276.46875" xlink:href="#DejaVuSans-116"/>
      <use x="1315.677734" xlink:href="#DejaVuSans-45"/>
      <use x="1351.761719" xlink:href="#DejaVuSans-100"/>
      <use x="1415.238281" xlink:href="#DejaVuSans-101"/>
      <use x="1476.761719" xlink:href="#DejaVuSans-112"/>
      <use x="1540.238281" xlink:href="#DejaVuSans-101"/>
      <use x="1601.761719" xlink:href="#DejaVuSans-110"/>
      <use x="1665.140625" xlink:href="#DejaVuSans-100"/>
      <use x="1728.617188" xlink:href="#DejaVuSans-101"/>
      <use x="1790.140625" xlink:href="#DejaVuSans-110"/>
      <use x="1853.519531" xlink:href="#DejaVuSans-116"/>
     </g>
    </g>
   </g>
  </g>
 </g>
 <defs>
  <clipPath id="pad2edd779a">
   <rect height="217.44" width="334.8" x="54" y="34.56"/>
  </clipPath>
 </defs>
</svg>
