<?xml version="1.0" encoding="utf-8" standalone="no"?>
<!DOCTYPE svg PUBLIC "-//W3C//DTD SVG 1.1//EN"
  "http://www.w3.org/Graphics/SVG/1.1/DTD/svg11.dtd">
<!-- Created with matplotlib (https://matplotlib.org/) -->
<svg height="288pt" version="1.1" viewBox="0 0 432 288" width="432pt" xmlns="http://www.w3.org/2000/svg" xmlns:xlink="http://www.w3.org/1999/xlink">
 <defs>
  <style type="text/css">
*{stroke-linecap:butt;stroke-linejoin:round;}
  </style>
 </defs>
 <g id="figure_1">
  <g id="patch_1">
   <path d="M 0 288 
L 432 288 
L 432 0 
L 0 0 
z
" style="fill:none;"/>
  </g>
  <g id="axes_1">
   <g id="patch_2">
    <path d="M 54 252 
L 388.8 252 
L 388.8 34.56 
L 54 34.56 
z
" style="fill:none;"/>
   </g>
   <g id="PolyCollection_1">
    <defs>
     <path d="M 72.640956 -45.883636 
L 72.559044 -45.883636 
L 72.530143 -47.157052 
L 72.485698 -48.430467 
L 72.420225 -49.703882 
L 72.327595 -50.977297 
L 72.201378 -52.250713 
L 72.035199 -53.524128 
L 71.823022 -54.797543 
L 71.559296 -56.070959 
L 71.238941 -57.344374 
L 70.857276 -58.617789 
L 70.41007 -59.891204 
L 69.893938 -61.16462 
L 69.30726 -62.438035 
L 68.651594 -63.71145 
L 67.93335 -64.984866 
L 67.165248 -66.258281 
L 66.367018 -67.531696 
L 65.56497 -68.805111 
L 64.790304 -70.078527 
L 64.07643 -71.351942 
L 63.455768 -72.625357 
L 62.956577 -73.898773 
L 62.600263 -75.172188 
L 62.399452 -76.445603 
L 62.356993 -77.719018 
L 62.466017 -78.992434 
L 62.711118 -80.265849 
L 63.070588 -81.539264 
L 63.519447 -82.81268 
L 64.032693 -84.086095 
L 64.588089 -85.35951 
L 65.16782 -86.632925 
L 65.758729 -87.906341 
L 66.351261 -89.179756 
L 66.937715 -90.453171 
L 67.510561 -91.726587 
L 68.061523 -93.000002 
L 68.581726 -94.273417 
L 69.062736 -95.546832 
L 69.497961 -96.820248 
L 69.883727 -98.093663 
L 70.219568 -99.367078 
L 70.507658 -100.640494 
L 70.751741 -101.913909 
L 70.956114 -103.187324 
L 71.125113 -104.460739 
L 71.263194 -105.734155 
L 71.375351 -107.00757 
L 71.46741 -108.280985 
L 71.545837 -109.5544 
L 71.61698 -110.827816 
L 71.686007 -112.101231 
L 71.755949 -113.374646 
L 71.827273 -114.648062 
L 71.898162 -115.921477 
L 71.965433 -117.194892 
L 72.025766 -118.468307 
L 72.076838 -119.741723 
L 72.117987 -121.015138 
L 72.150253 -122.288553 
L 72.17584 -123.561969 
L 72.19729 -124.835384 
L 72.216705 -126.108799 
L 72.235305 -127.382214 
L 72.25342 -128.65563 
L 72.270833 -129.929045 
L 72.287245 -131.20246 
L 72.302615 -132.475876 
L 72.317226 -133.749291 
L 72.331475 -135.022706 
L 72.34553 -136.296121 
L 72.359044 -137.569537 
L 72.371105 -138.842952 
L 72.380491 -140.116367 
L 72.386139 -141.389783 
L 72.38766 -142.663198 
L 72.385668 -143.936613 
L 72.381783 -145.210028 
L 72.37826 -146.483444 
L 72.377361 -147.756859 
L 72.380683 -149.030274 
L 72.388683 -150.30369 
L 72.400574 -151.577105 
L 72.414619 -152.85052 
L 72.428742 -154.123935 
L 72.441211 -155.397351 
L 72.451181 -156.670766 
L 72.458894 -157.944181 
L 72.465495 -159.217596 
L 72.472548 -160.491012 
L 72.481449 -161.764427 
L 72.492954 -163.037842 
L 72.506972 -164.311258 
L 72.522661 -165.584673 
L 72.53874 -166.858088 
L 72.553888 -168.131503 
L 72.56707 -169.404919 
L 72.577712 -170.678334 
L 72.585713 -171.951749 
L 72.614287 -171.951749 
L 72.614287 -171.951749 
L 72.622288 -170.678334 
L 72.63293 -169.404919 
L 72.646112 -168.131503 
L 72.66126 -166.858088 
L 72.677339 -165.584673 
L 72.693028 -164.311258 
L 72.707046 -163.037842 
L 72.718551 -161.764427 
L 72.727452 -160.491012 
L 72.734505 -159.217596 
L 72.741106 -157.944181 
L 72.748819 -156.670766 
L 72.758789 -155.397351 
L 72.771258 -154.123935 
L 72.785381 -152.85052 
L 72.799426 -151.577105 
L 72.811317 -150.30369 
L 72.819317 -149.030274 
L 72.822639 -147.756859 
L 72.82174 -146.483444 
L 72.818217 -145.210028 
L 72.814332 -143.936613 
L 72.81234 -142.663198 
L 72.813861 -141.389783 
L 72.819509 -140.116367 
L 72.828895 -138.842952 
L 72.840956 -137.569537 
L 72.85447 -136.296121 
L 72.868525 -135.022706 
L 72.882774 -133.749291 
L 72.897385 -132.475876 
L 72.912755 -131.20246 
L 72.929167 -129.929045 
L 72.94658 -128.65563 
L 72.964695 -127.382214 
L 72.983295 -126.108799 
L 73.00271 -124.835384 
L 73.02416 -123.561969 
L 73.049747 -122.288553 
L 73.082013 -121.015138 
L 73.123162 -119.741723 
L 73.174234 -118.468307 
L 73.234567 -117.194892 
L 73.301838 -115.921477 
L 73.372727 -114.648062 
L 73.444051 -113.374646 
L 73.513993 -112.101231 
L 73.58302 -110.827816 
L 73.654163 -109.5544 
L 73.73259 -108.280985 
L 73.824649 -107.00757 
L 73.936806 -105.734155 
L 74.074887 -104.460739 
L 74.243886 -103.187324 
L 74.448259 -101.913909 
L 74.692342 -100.640494 
L 74.980432 -99.367078 
L 75.316273 -98.093663 
L 75.702039 -96.820248 
L 76.137264 -95.546832 
L 76.618274 -94.273417 
L 77.138477 -93.000002 
L 77.689439 -91.726587 
L 78.262285 -90.453171 
L 78.848739 -89.179756 
L 79.441271 -87.906341 
L 80.03218 -86.632925 
L 80.611911 -85.35951 
L 81.167307 -84.086095 
L 81.680553 -82.81268 
L 82.129412 -81.539264 
L 82.488882 -80.265849 
L 82.733983 -78.992434 
L 82.843007 -77.719018 
L 82.800548 -76.445603 
L 82.599737 -75.172188 
L 82.243423 -73.898773 
L 81.744232 -72.625357 
L 81.12357 -71.351942 
L 80.409696 -70.078527 
L 79.63503 -68.805111 
L 78.832982 -67.531696 
L 78.034752 -66.258281 
L 77.26665 -64.984866 
L 76.548406 -63.71145 
L 75.89274 -62.438035 
L 75.306062 -61.16462 
L 74.78993 -59.891204 
L 74.342724 -58.617789 
L 73.961059 -57.344374 
L 73.640704 -56.070959 
L 73.376978 -54.797543 
L 73.164801 -53.524128 
L 72.998622 -52.250713 
L 72.872405 -50.977297 
L 72.779775 -49.703882 
L 72.714302 -48.430467 
L 72.669857 -47.157052 
L 72.640956 -45.883636 
z
" id="m8eac83ed10" style="stroke:#3d3d3d;stroke-width:1.5;"/>
    </defs>
    <g clip-path="url(#pbc29d8b212)">
     <use style="fill:#3274a1;stroke:#3d3d3d;stroke-width:1.5;" x="0" xlink:href="#m8eac83ed10" y="288"/>
    </g>
   </g>
   <g id="PolyCollection_2">
    <defs>
     <path d="M 109.827348 -53.14389 
L 109.772652 -53.14389 
L 109.754679 -54.353269 
L 109.727462 -55.562649 
L 109.68756 -56.772028 
L 109.630696 -57.981407 
L 109.551575 -59.190787 
L 109.443634 -60.400166 
L 109.298712 -61.609546 
L 109.106704 -62.818925 
L 108.85531 -64.028304 
L 108.530054 -65.237684 
L 108.114787 -66.447063 
L 107.592915 -67.656443 
L 106.949508 -68.865822 
L 106.174317 -70.075201 
L 105.26548 -71.284581 
L 104.233347 -72.49396 
L 103.103567 -73.70334 
L 101.918429 -74.912719 
L 100.735573 -76.122099 
L 99.623634 -77.331478 
L 98.655101 -78.540857 
L 97.897417 -79.750237 
L 97.403903 -80.959616 
L 97.206263 -82.168996 
L 97.310158 -83.378375 
L 97.694684 -84.587754 
L 98.315805 -85.797134 
L 99.113029 -87.006513 
L 100.018059 -88.215893 
L 100.963889 -89.425272 
L 101.892848 -90.634651 
L 102.762319 -91.844031 
L 103.547371 -93.05341 
L 104.240081 -94.26279 
L 104.846025 -95.472169 
L 105.378946 -96.681548 
L 105.854981 -97.890928 
L 106.287835 -99.100307 
L 106.685914 -100.309687 
L 107.051782 -101.519066 
L 107.383619 -102.728445 
L 107.677811 -103.937825 
L 107.931619 -105.147204 
L 108.145047 -106.356584 
L 108.321457 -107.565963 
L 108.466993 -108.775342 
L 108.589228 -109.984722 
L 108.695639 -111.194101 
L 108.79239 -112.403481 
L 108.883702 -113.61286 
L 108.971795 -114.822239 
L 109.057221 -116.031619 
L 109.139329 -117.240998 
L 109.216683 -118.450378 
L 109.287369 -119.659757 
L 109.349225 -120.869136 
L 109.400096 -122.078516 
L 109.438139 -123.287895 
L 109.462188 -124.497275 
L 109.472077 -125.706654 
L 109.468843 -126.916033 
L 109.454723 -128.125413 
L 109.432929 -129.334792 
L 109.407234 -130.544172 
L 109.381445 -131.753551 
L 109.358838 -132.962931 
L 109.341683 -134.17231 
L 109.330931 -135.381689 
L 109.326154 -136.591069 
L 109.325779 -137.800448 
L 109.327572 -139.009828 
L 109.329295 -140.219207 
L 109.32936 -141.428586 
L 109.327333 -142.637966 
L 109.324129 -143.847345 
L 109.321829 -145.056725 
L 109.323178 -146.266104 
L 109.330862 -147.475483 
L 109.346787 -148.684863 
L 109.371531 -149.894242 
L 109.404124 -151.103622 
L 109.442223 -152.313001 
L 109.482617 -153.52238 
L 109.52194 -154.73176 
L 109.557391 -155.941139 
L 109.587284 -157.150519 
L 109.611274 -158.359898 
L 109.630235 -159.569277 
L 109.645837 -160.778657 
L 109.659969 -161.988036 
L 109.6742 -163.197416 
L 109.689412 -164.406795 
L 109.705699 -165.616174 
L 109.722497 -166.825554 
L 109.738883 -168.034933 
L 109.753895 -169.244313 
L 109.766794 -170.453692 
L 109.777195 -171.663071 
L 109.785078 -172.872451 
L 109.814922 -172.872451 
L 109.814922 -172.872451 
L 109.822805 -171.663071 
L 109.833206 -170.453692 
L 109.846105 -169.244313 
L 109.861117 -168.034933 
L 109.877503 -166.825554 
L 109.894301 -165.616174 
L 109.910588 -164.406795 
L 109.9258 -163.197416 
L 109.940031 -161.988036 
L 109.954163 -160.778657 
L 109.969765 -159.569277 
L 109.988726 -158.359898 
L 110.012716 -157.150519 
L 110.042609 -155.941139 
L 110.07806 -154.73176 
L 110.117383 -153.52238 
L 110.157777 -152.313001 
L 110.195876 -151.103622 
L 110.228469 -149.894242 
L 110.253213 -148.684863 
L 110.269138 -147.475483 
L 110.276822 -146.266104 
L 110.278171 -145.056725 
L 110.275871 -143.847345 
L 110.272667 -142.637966 
L 110.27064 -141.428586 
L 110.270705 -140.219207 
L 110.272428 -139.009828 
L 110.274221 -137.800448 
L 110.273846 -136.591069 
L 110.269069 -135.381689 
L 110.258317 -134.17231 
L 110.241162 -132.962931 
L 110.218555 -131.753551 
L 110.192766 -130.544172 
L 110.167071 -129.334792 
L 110.145277 -128.125413 
L 110.131157 -126.916033 
L 110.127923 -125.706654 
L 110.137812 -124.497275 
L 110.161861 -123.287895 
L 110.199904 -122.078516 
L 110.250775 -120.869136 
L 110.312631 -119.659757 
L 110.383317 -118.450378 
L 110.460671 -117.240998 
L 110.542779 -116.031619 
L 110.628205 -114.822239 
L 110.716298 -113.61286 
L 110.80761 -112.403481 
L 110.904361 -111.194101 
L 111.010772 -109.984722 
L 111.133007 -108.775342 
L 111.278543 -107.565963 
L 111.454953 -106.356584 
L 111.668381 -105.147204 
L 111.922189 -103.937825 
L 112.216381 -102.728445 
L 112.548218 -101.519066 
L 112.914086 -100.309687 
L 113.312165 -99.100307 
L 113.745019 -97.890928 
L 114.221054 -96.681548 
L 114.753975 -95.472169 
L 115.359919 -94.26279 
L 116.052629 -93.05341 
L 116.837681 -91.844031 
L 117.707152 -90.634651 
L 118.636111 -89.425272 
L 119.581941 -88.215893 
L 120.486971 -87.006513 
L 121.284195 -85.797134 
L 121.905316 -84.587754 
L 122.289842 -83.378375 
L 122.393737 -82.168996 
L 122.196097 -80.959616 
L 121.702583 -79.750237 
L 120.944899 -78.540857 
L 119.976366 -77.331478 
L 118.864427 -76.122099 
L 117.681571 -74.912719 
L 116.496433 -73.70334 
L 115.366653 -72.49396 
L 114.33452 -71.284581 
L 113.425683 -70.075201 
L 112.650492 -68.865822 
L 112.007085 -67.656443 
L 111.485213 -66.447063 
L 111.069946 -65.237684 
L 110.74469 -64.028304 
L 110.493296 -62.818925 
L 110.301288 -61.609546 
L 110.156366 -60.400166 
L 110.048425 -59.190787 
L 109.969304 -57.981407 
L 109.91244 -56.772028 
L 109.872538 -55.562649 
L 109.845321 -54.353269 
L 109.827348 -53.14389 
z
" id="mbcbb6501dd" style="stroke:#3d3d3d;stroke-width:1.5;"/>
    </defs>
    <g clip-path="url(#pbc29d8b212)">
     <use style="fill:#e1812c;stroke:#3d3d3d;stroke-width:1.5;" x="0" xlink:href="#mbcbb6501dd" y="288"/>
    </g>
   </g>
   <g id="PolyCollection_3">
    <defs>
     <path d="M 147.036234 -57.852562 
L 146.963766 -57.852562 
L 146.939249 -59.164225 
L 146.90249 -60.475887 
L 146.849846 -61.78755 
L 146.777595 -63.099213 
L 146.682163 -64.410876 
L 146.560225 -65.722538 
L 146.408613 -67.034201 
L 146.224089 -68.345864 
L 146.003141 -69.657526 
L 145.742044 -70.969189 
L 145.437365 -72.280852 
L 145.086949 -73.592515 
L 144.691173 -74.904177 
L 144.254041 -76.21584 
L 143.783643 -77.527503 
L 143.291569 -78.839165 
L 142.791212 -80.150828 
L 142.295255 -81.462491 
L 141.813017 -82.774154 
L 141.348543 -84.085816 
L 140.900194 -85.397479 
L 140.462148 -86.709142 
L 140.027554 -88.020805 
L 139.59251 -89.332467 
L 139.159633 -90.64413 
L 138.740051 -91.955793 
L 138.353123 -93.267455 
L 138.023909 -94.579118 
L 137.779126 -95.890781 
L 137.642694 -97.202444 
L 137.631962 -98.514106 
L 137.755348 -99.825769 
L 138.011614 -101.137432 
L 138.39059 -102.449094 
L 138.874911 -103.760757 
L 139.442289 -105.07242 
L 140.06787 -106.384083 
L 140.726341 -107.695745 
L 141.393546 -109.007408 
L 142.047546 -110.319071 
L 142.66926 -111.630733 
L 143.242924 -112.942396 
L 143.756639 -114.254059 
L 144.203065 -115.565722 
L 144.580091 -116.877384 
L 144.891059 -118.189047 
L 145.144159 -119.50071 
L 145.350836 -120.812373 
L 145.523499 -122.124035 
L 145.673141 -123.435698 
L 145.807634 -124.747361 
L 145.931183 -126.059023 
L 146.044977 -127.370686 
L 146.148595 -128.682349 
L 146.241462 -129.994012 
L 146.323782 -131.305674 
L 146.396707 -132.617337 
L 146.461914 -133.929 
L 146.520995 -135.240662 
L 146.575029 -136.552325 
L 146.624513 -137.863988 
L 146.669551 -139.175651 
L 146.710102 -140.487313 
L 146.746093 -141.798976 
L 146.777357 -143.110639 
L 146.803508 -144.422301 
L 146.823909 -145.733964 
L 146.837829 -147.045627 
L 146.844769 -148.35729 
L 146.844818 -149.668952 
L 146.838865 -150.980615 
L 146.828576 -152.292278 
L 146.816132 -153.60394 
L 146.803836 -154.915603 
L 146.793746 -156.227266 
L 146.787433 -157.538929 
L 146.785881 -158.850591 
L 146.789473 -160.162254 
L 146.797993 -161.473917 
L 146.810606 -162.78558 
L 146.825857 -164.097242 
L 146.841774 -165.408905 
L 146.856151 -166.720568 
L 146.866983 -168.03223 
L 146.87297 -169.343893 
L 146.87392 -170.655556 
L 146.870884 -171.967219 
L 146.865956 -173.278881 
L 146.861763 -174.590544 
L 146.860789 -175.902207 
L 146.86475 -177.213869 
L 146.874206 -178.525532 
L 146.888513 -179.837195 
L 146.906101 -181.148858 
L 146.924959 -182.46052 
L 146.943146 -183.772183 
L 146.959183 -185.083846 
L 146.972241 -186.395508 
L 146.982119 -187.707171 
L 147.017881 -187.707171 
L 147.017881 -187.707171 
L 147.027759 -186.395508 
L 147.040817 -185.083846 
L 147.056854 -183.772183 
L 147.075041 -182.46052 
L 147.093899 -181.148858 
L 147.111487 -179.837195 
L 147.125794 -178.525532 
L 147.13525 -177.213869 
L 147.139211 -175.902207 
L 147.138237 -174.590544 
L 147.134044 -173.278881 
L 147.129116 -171.967219 
L 147.12608 -170.655556 
L 147.12703 -169.343893 
L 147.133017 -168.03223 
L 147.143849 -166.720568 
L 147.158226 -165.408905 
L 147.174143 -164.097242 
L 147.189394 -162.78558 
L 147.202007 -161.473917 
L 147.210527 -160.162254 
L 147.214119 -158.850591 
L 147.212567 -157.538929 
L 147.206254 -156.227266 
L 147.196164 -154.915603 
L 147.183868 -153.60394 
L 147.171424 -152.292278 
L 147.161135 -150.980615 
L 147.155182 -149.668952 
L 147.155231 -148.35729 
L 147.162171 -147.045627 
L 147.176091 -145.733964 
L 147.196492 -144.422301 
L 147.222643 -143.110639 
L 147.253907 -141.798976 
L 147.289898 -140.487313 
L 147.330449 -139.175651 
L 147.375487 -137.863988 
L 147.424971 -136.552325 
L 147.479005 -135.240662 
L 147.538086 -133.929 
L 147.603293 -132.617337 
L 147.676218 -131.305674 
L 147.758538 -129.994012 
L 147.851405 -128.682349 
L 147.955023 -127.370686 
L 148.068817 -126.059023 
L 148.192366 -124.747361 
L 148.326859 -123.435698 
L 148.476501 -122.124035 
L 148.649164 -120.812373 
L 148.855841 -119.50071 
L 149.108941 -118.189047 
L 149.419909 -116.877384 
L 149.796935 -115.565722 
L 150.243361 -114.254059 
L 150.757076 -112.942396 
L 151.33074 -111.630733 
L 151.952454 -110.319071 
L 152.606454 -109.007408 
L 153.273659 -107.695745 
L 153.93213 -106.384083 
L 154.557711 -105.07242 
L 155.125089 -103.760757 
L 155.60941 -102.449094 
L 155.988386 -101.137432 
L 156.244652 -99.825769 
L 156.368038 -98.514106 
L 156.357306 -97.202444 
L 156.220874 -95.890781 
L 155.976091 -94.579118 
L 155.646877 -93.267455 
L 155.259949 -91.955793 
L 154.840367 -90.64413 
L 154.40749 -89.332467 
L 153.972446 -88.020805 
L 153.537852 -86.709142 
L 153.099806 -85.397479 
L 152.651457 -84.085816 
L 152.186983 -82.774154 
L 151.704745 -81.462491 
L 151.208788 -80.150828 
L 150.708431 -78.839165 
L 150.216357 -77.527503 
L 149.745959 -76.21584 
L 149.308827 -74.904177 
L 148.913051 -73.592515 
L 148.562635 -72.280852 
L 148.257956 -70.969189 
L 147.996859 -69.657526 
L 147.775911 -68.345864 
L 147.591387 -67.034201 
L 147.439775 -65.722538 
L 147.317837 -64.410876 
L 147.222405 -63.099213 
L 147.150154 -61.78755 
L 147.09751 -60.475887 
L 147.060751 -59.164225 
L 147.036234 -57.852562 
z
" id="me90e3e4920" style="stroke:#3d3d3d;stroke-width:1.5;"/>
    </defs>
    <g clip-path="url(#pbc29d8b212)">
     <use style="fill:#3a923a;stroke:#3d3d3d;stroke-width:1.5;" x="0" xlink:href="#me90e3e4920" y="288"/>
    </g>
   </g>
   <g id="PolyCollection_4">
    <defs>
     <path d="M 184.239425 -58.815557 
L 184.160575 -58.815557 
L 184.138328 -60.681626 
L 184.106479 -62.547695 
L 184.062411 -64.413763 
L 184.00344 -66.279832 
L 183.927044 -68.145901 
L 183.83112 -70.01197 
L 183.714216 -71.878038 
L 183.575688 -73.744107 
L 183.41576 -75.610176 
L 183.235478 -77.476245 
L 183.036582 -79.342313 
L 182.821347 -81.208382 
L 182.592461 -83.074451 
L 182.352955 -84.94052 
L 182.106217 -86.806588 
L 181.85602 -88.672657 
L 181.606521 -90.538726 
L 181.362149 -92.404795 
L 181.127345 -94.270863 
L 180.906175 -96.136932 
L 180.701878 -98.003001 
L 180.516467 -99.86907 
L 180.350503 -101.735138 
L 180.203117 -103.601207 
L 180.072333 -105.467276 
L 179.955627 -107.333345 
L 179.850641 -109.199413 
L 179.755902 -111.065482 
L 179.671409 -112.931551 
L 179.598942 -114.79762 
L 179.542037 -116.663688 
L 179.505588 -118.529757 
L 179.495143 -120.395826 
L 179.516 -122.261895 
L 179.572257 -124.127963 
L 179.665984 -125.994032 
L 179.796686 -127.860101 
L 179.96115 -129.72617 
L 180.153733 -131.592238 
L 180.367035 -133.458307 
L 180.592847 -135.324376 
L 180.823181 -137.190445 
L 181.051192 -139.056513 
L 181.271802 -140.922582 
L 181.481912 -142.788651 
L 181.680192 -144.65472 
L 181.866525 -146.520788 
L 182.04129 -148.386857 
L 182.204707 -150.252926 
L 182.35642 -152.118995 
L 182.495456 -153.985063 
L 182.620543 -155.851132 
L 182.730671 -157.717201 
L 182.825694 -159.58327 
L 182.906746 -161.449338 
L 182.976309 -163.315407 
L 183.037891 -165.181476 
L 183.095378 -167.047545 
L 183.152258 -168.913613 
L 183.210926 -170.779682 
L 183.272276 -172.645751 
L 183.335671 -174.51182 
L 183.399283 -176.377889 
L 183.460676 -178.243957 
L 183.517466 -180.110026 
L 183.567872 -181.976095 
L 183.611042 -183.842164 
L 183.647108 -185.708232 
L 183.677007 -187.574301 
L 183.702162 -189.44037 
L 183.724131 -191.306439 
L 183.744309 -193.172507 
L 183.76376 -195.038576 
L 183.783163 -196.904645 
L 183.802859 -198.770714 
L 183.82296 -200.636782 
L 183.843444 -202.502851 
L 183.864238 -204.36892 
L 183.885253 -206.234989 
L 183.906385 -208.101057 
L 183.927516 -209.967126 
L 183.9485 -211.833195 
L 183.969185 -213.699264 
L 183.989429 -215.565332 
L 184.009126 -217.431401 
L 184.028224 -219.29747 
L 184.046714 -221.163539 
L 184.064605 -223.029607 
L 184.081888 -224.895676 
L 184.098502 -226.761745 
L 184.114317 -228.627814 
L 184.129139 -230.493882 
L 184.142738 -232.359951 
L 184.154896 -234.22602 
L 184.165441 -236.092089 
L 184.17429 -237.958157 
L 184.181457 -239.824226 
L 184.187051 -241.690295 
L 184.191254 -243.556364 
L 184.208746 -243.556364 
L 184.208746 -243.556364 
L 184.212949 -241.690295 
L 184.218543 -239.824226 
L 184.22571 -237.958157 
L 184.234559 -236.092089 
L 184.245104 -234.22602 
L 184.257262 -232.359951 
L 184.270861 -230.493882 
L 184.285683 -228.627814 
L 184.301498 -226.761745 
L 184.318112 -224.895676 
L 184.335395 -223.029607 
L 184.353286 -221.163539 
L 184.371776 -219.29747 
L 184.390874 -217.431401 
L 184.410571 -215.565332 
L 184.430815 -213.699264 
L 184.4515 -211.833195 
L 184.472484 -209.967126 
L 184.493615 -208.101057 
L 184.514747 -206.234989 
L 184.535762 -204.36892 
L 184.556556 -202.502851 
L 184.57704 -200.636782 
L 184.597141 -198.770714 
L 184.616837 -196.904645 
L 184.63624 -195.038576 
L 184.655691 -193.172507 
L 184.675869 -191.306439 
L 184.697838 -189.44037 
L 184.722993 -187.574301 
L 184.752892 -185.708232 
L 184.788958 -183.842164 
L 184.832128 -181.976095 
L 184.882534 -180.110026 
L 184.939324 -178.243957 
L 185.000717 -176.377889 
L 185.064329 -174.51182 
L 185.127724 -172.645751 
L 185.189074 -170.779682 
L 185.247742 -168.913613 
L 185.304622 -167.047545 
L 185.362109 -165.181476 
L 185.423691 -163.315407 
L 185.493254 -161.449338 
L 185.574306 -159.58327 
L 185.669329 -157.717201 
L 185.779457 -155.851132 
L 185.904544 -153.985063 
L 186.04358 -152.118995 
L 186.195293 -150.252926 
L 186.35871 -148.386857 
L 186.533475 -146.520788 
L 186.719808 -144.65472 
L 186.918088 -142.788651 
L 187.128198 -140.922582 
L 187.348808 -139.056513 
L 187.576819 -137.190445 
L 187.807153 -135.324376 
L 188.032965 -133.458307 
L 188.246267 -131.592238 
L 188.43885 -129.72617 
L 188.603314 -127.860101 
L 188.734016 -125.994032 
L 188.827743 -124.127963 
L 188.884 -122.261895 
L 188.904857 -120.395826 
L 188.894412 -118.529757 
L 188.857963 -116.663688 
L 188.801058 -114.79762 
L 188.728591 -112.931551 
L 188.644098 -111.065482 
L 188.549359 -109.199413 
L 188.444373 -107.333345 
L 188.327667 -105.467276 
L 188.196883 -103.601207 
L 188.049497 -101.735138 
L 187.883533 -99.86907 
L 187.698122 -98.003001 
L 187.493825 -96.136932 
L 187.272655 -94.270863 
L 187.037851 -92.404795 
L 186.793479 -90.538726 
L 186.54398 -88.672657 
L 186.293783 -86.806588 
L 186.047045 -84.94052 
L 185.807539 -83.074451 
L 185.578653 -81.208382 
L 185.363418 -79.342313 
L 185.164522 -77.476245 
L 184.98424 -75.610176 
L 184.824312 -73.744107 
L 184.685784 -71.878038 
L 184.56888 -70.01197 
L 184.472956 -68.145901 
L 184.39656 -66.279832 
L 184.337589 -64.413763 
L 184.293521 -62.547695 
L 184.261672 -60.681626 
L 184.239425 -58.815557 
z
" id="m76d4c213ee" style="stroke:#3d3d3d;stroke-width:1.5;"/>
    </defs>
    <g clip-path="url(#pbc29d8b212)">
     <use style="fill:#c03d3e;stroke:#3d3d3d;stroke-width:1.5;" x="0" xlink:href="#m76d4c213ee" y="288"/>
    </g>
   </g>
   <g id="PolyCollection_5">
    <defs>
     <path d="M 221.433428 -59.666706 
L 221.366572 -59.666706 
L 221.343349 -60.489517 
L 221.30943 -61.312329 
L 221.263008 -62.13514 
L 221.203196 -62.957951 
L 221.130069 -63.780763 
L 221.044153 -64.603574 
L 220.945387 -65.426385 
L 220.831836 -66.249196 
L 220.698668 -67.072008 
L 220.537833 -67.894819 
L 220.338651 -68.71763 
L 220.089204 -69.540442 
L 219.778114 -70.363253 
L 219.396275 -71.186064 
L 218.938187 -72.008875 
L 218.402667 -72.831687 
L 217.792906 -73.654498 
L 217.115858 -74.477309 
L 216.381132 -75.300121 
L 215.599594 -76.122932 
L 214.782025 -76.945743 
L 213.938157 -77.768554 
L 213.076309 -78.591366 
L 212.203744 -79.414177 
L 211.32777 -80.236988 
L 210.457545 -81.0598 
L 209.606442 -81.882611 
L 208.794537 -82.705422 
L 208.05036 -83.528233 
L 207.410694 -84.351045 
L 206.917311 -85.173856 
L 206.610409 -85.996667 
L 206.52 -86.819479 
L 206.657958 -87.64229 
L 207.013959 -88.465101 
L 207.557404 -89.287912 
L 208.244971 -90.110724 
L 209.030864 -90.933535 
L 209.875611 -91.756346 
L 210.750239 -92.579158 
L 211.635231 -93.401969 
L 212.516279 -94.22478 
L 213.379935 -95.047591 
L 214.211492 -95.870403 
L 214.995572 -96.693214 
L 215.718353 -97.516025 
L 216.36996 -98.338837 
L 216.946059 -99.161648 
L 217.448405 -99.984459 
L 217.884408 -100.80727 
L 218.265715 -101.630082 
L 218.605776 -102.452893 
L 218.916635 -103.275704 
L 219.20575 -104.098515 
L 219.473988 -104.921327 
L 219.715752 -105.744138 
L 219.921447 -106.566949 
L 220.081563 -107.389761 
L 220.190895 -108.212572 
L 220.251369 -109.035383 
L 220.272424 -109.858194 
L 220.26888 -110.681006 
L 220.257184 -111.503817 
L 220.251467 -112.326628 
L 220.260789 -113.14944 
L 220.288294 -113.972251 
L 220.332166 -114.795062 
L 220.387641 -115.617873 
L 220.449162 -116.440685 
L 220.51205 -117.263496 
L 220.573453 -118.086307 
L 220.632634 -118.909119 
L 220.690736 -119.73193 
L 220.750102 -120.554741 
L 220.813282 -121.377552 
L 220.881912 -122.200364 
L 220.955836 -123.023175 
L 221.032787 -123.845986 
L 221.108781 -124.668798 
L 221.179082 -125.491609 
L 221.239335 -126.31442 
L 221.286458 -127.137231 
L 221.319035 -127.960043 
L 221.33724 -128.782854 
L 221.342505 -129.605665 
L 221.337193 -130.428477 
L 221.324378 -131.251288 
L 221.307694 -132.074099 
L 221.291065 -132.89691 
L 221.278235 -133.719722 
L 221.272113 -134.542533 
L 221.274168 -135.365344 
L 221.28414 -136.188156 
L 221.300212 -137.010967 
L 221.319616 -137.833778 
L 221.339442 -138.656589 
L 221.357333 -139.479401 
L 221.371887 -140.302212 
L 221.382677 -141.125023 
L 221.417323 -141.125023 
L 221.417323 -141.125023 
L 221.428113 -140.302212 
L 221.442667 -139.479401 
L 221.460558 -138.656589 
L 221.480384 -137.833778 
L 221.499788 -137.010967 
L 221.51586 -136.188156 
L 221.525832 -135.365344 
L 221.527887 -134.542533 
L 221.521765 -133.719722 
L 221.508935 -132.89691 
L 221.492306 -132.074099 
L 221.475622 -131.251288 
L 221.462807 -130.428477 
L 221.457495 -129.605665 
L 221.46276 -128.782854 
L 221.480965 -127.960043 
L 221.513542 -127.137231 
L 221.560665 -126.31442 
L 221.620918 -125.491609 
L 221.691219 -124.668798 
L 221.767213 -123.845986 
L 221.844164 -123.023175 
L 221.918088 -122.200364 
L 221.986718 -121.377552 
L 222.049898 -120.554741 
L 222.109264 -119.73193 
L 222.167366 -118.909119 
L 222.226547 -118.086307 
L 222.28795 -117.263496 
L 222.350838 -116.440685 
L 222.412359 -115.617873 
L 222.467834 -114.795062 
L 222.511706 -113.972251 
L 222.539211 -113.14944 
L 222.548533 -112.326628 
L 222.542816 -111.503817 
L 222.53112 -110.681006 
L 222.527576 -109.858194 
L 222.548631 -109.035383 
L 222.609105 -108.212572 
L 222.718437 -107.389761 
L 222.878553 -106.566949 
L 223.084248 -105.744138 
L 223.326012 -104.921327 
L 223.59425 -104.098515 
L 223.883365 -103.275704 
L 224.194224 -102.452893 
L 224.534285 -101.630082 
L 224.915592 -100.80727 
L 225.351595 -99.984459 
L 225.853941 -99.161648 
L 226.43004 -98.338837 
L 227.081647 -97.516025 
L 227.804428 -96.693214 
L 228.588508 -95.870403 
L 229.420065 -95.047591 
L 230.283721 -94.22478 
L 231.164769 -93.401969 
L 232.049761 -92.579158 
L 232.924389 -91.756346 
L 233.769136 -90.933535 
L 234.555029 -90.110724 
L 235.242596 -89.287912 
L 235.786041 -88.465101 
L 236.142042 -87.64229 
L 236.28 -86.819479 
L 236.189591 -85.996667 
L 235.882689 -85.173856 
L 235.389306 -84.351045 
L 234.74964 -83.528233 
L 234.005463 -82.705422 
L 233.193558 -81.882611 
L 232.342455 -81.0598 
L 231.47223 -80.236988 
L 230.596256 -79.414177 
L 229.723691 -78.591366 
L 228.861843 -77.768554 
L 228.017975 -76.945743 
L 227.200406 -76.122932 
L 226.418868 -75.300121 
L 225.684142 -74.477309 
L 225.007094 -73.654498 
L 224.397333 -72.831687 
L 223.861813 -72.008875 
L 223.403725 -71.186064 
L 223.021886 -70.363253 
L 222.710796 -69.540442 
L 222.461349 -68.71763 
L 222.262167 -67.894819 
L 222.101332 -67.072008 
L 221.968164 -66.249196 
L 221.854613 -65.426385 
L 221.755847 -64.603574 
L 221.669931 -63.780763 
L 221.596804 -62.957951 
L 221.536992 -62.13514 
L 221.49057 -61.312329 
L 221.456651 -60.489517 
L 221.433428 -59.666706 
z
" id="m0d88334b84" style="stroke:#3d3d3d;stroke-width:1.5;"/>
    </defs>
    <g clip-path="url(#pbc29d8b212)">
     <use style="fill:#9372b2;stroke:#3d3d3d;stroke-width:1.5;" x="0" xlink:href="#m0d88334b84" y="288"/>
    </g>
   </g>
   <g id="PolyCollection_6">
    <defs>
     <path d="M 258.636805 -62.444491 
L 258.563195 -62.444491 
L 258.541472 -63.697819 
L 258.509155 -64.951148 
L 258.462025 -66.204476 
L 258.394473 -67.457804 
L 258.299178 -68.711132 
L 258.166831 -69.96446 
L 257.986062 -71.217788 
L 257.743726 -72.471116 
L 257.425738 -73.724444 
L 257.018549 -74.977772 
L 256.511234 -76.2311 
L 255.89794 -77.484429 
L 255.180298 -78.737757 
L 254.369242 -79.991085 
L 253.485749 -81.244413 
L 252.560154 -82.497741 
L 251.630051 -83.751069 
L 250.737052 -85.004397 
L 249.922967 -86.257725 
L 249.22602 -87.511053 
L 248.677598 -88.764381 
L 248.299821 -90.01771 
L 248.104019 -91.271038 
L 248.090072 -92.524366 
L 248.246615 -93.777694 
L 248.552174 -95.031022 
L 248.977362 -96.28435 
L 249.488119 -97.537678 
L 250.049726 -98.791006 
L 250.63098 -100.044334 
L 251.207677 -101.297662 
L 251.764593 -102.550991 
L 252.295493 -103.804319 
L 252.801222 -105.057647 
L 253.286526 -106.310975 
L 253.756559 -107.564303 
L 254.214082 -108.817631 
L 254.658016 -110.070959 
L 255.083532 -111.324287 
L 255.483352 -112.577615 
L 255.84964 -113.830943 
L 256.175825 -115.084271 
L 256.457863 -116.3376 
L 256.694748 -117.590928 
L 256.888345 -118.844256 
L 257.042766 -120.097584 
L 257.163591 -121.350912 
L 257.257103 -122.60424 
L 257.329689 -123.857568 
L 257.387403 -125.110896 
L 257.435694 -126.364224 
L 257.479249 -127.617552 
L 257.521932 -128.870881 
L 257.566766 -130.124209 
L 257.615946 -131.377537 
L 257.670849 -132.630865 
L 257.732017 -133.884193 
L 257.799145 -135.137521 
L 257.871067 -136.390849 
L 257.945812 -137.644177 
L 258.020749 -138.897505 
L 258.09285 -140.150833 
L 258.159058 -141.404162 
L 258.21672 -142.65749 
L 258.264008 -143.910818 
L 258.300239 -145.164146 
L 258.326028 -146.417474 
L 258.343199 -147.670802 
L 258.354477 -148.92413 
L 258.362995 -150.177458 
L 258.371725 -151.430786 
L 258.382959 -152.684114 
L 258.397943 -153.937442 
L 258.416748 -155.190771 
L 258.43837 -156.444099 
L 258.461017 -157.697427 
L 258.482499 -158.950755 
L 258.500616 -160.204083 
L 258.513492 -161.457411 
L 258.519806 -162.710739 
L 258.518939 -163.964067 
L 258.511034 -165.217395 
L 258.497012 -166.470723 
L 258.47851 -167.724052 
L 258.457758 -168.97738 
L 258.437358 -170.230708 
L 258.419972 -171.484036 
L 258.407959 -172.737364 
L 258.403019 -173.990692 
L 258.405934 -175.24402 
L 258.416455 -176.497348 
L 258.433394 -177.750676 
L 258.454878 -179.004004 
L 258.478702 -180.257333 
L 258.502718 -181.510661 
L 258.525138 -182.763989 
L 258.544723 -184.017317 
L 258.560837 -185.270645 
L 258.573377 -186.523973 
L 258.626623 -186.523973 
L 258.626623 -186.523973 
L 258.639163 -185.270645 
L 258.655277 -184.017317 
L 258.674862 -182.763989 
L 258.697282 -181.510661 
L 258.721298 -180.257333 
L 258.745122 -179.004004 
L 258.766606 -177.750676 
L 258.783545 -176.497348 
L 258.794066 -175.24402 
L 258.796981 -173.990692 
L 258.792041 -172.737364 
L 258.780028 -171.484036 
L 258.762642 -170.230708 
L 258.742242 -168.97738 
L 258.72149 -167.724052 
L 258.702988 -166.470723 
L 258.688966 -165.217395 
L 258.681061 -163.964067 
L 258.680194 -162.710739 
L 258.686508 -161.457411 
L 258.699384 -160.204083 
L 258.717501 -158.950755 
L 258.738983 -157.697427 
L 258.76163 -156.444099 
L 258.783252 -155.190771 
L 258.802057 -153.937442 
L 258.817041 -152.684114 
L 258.828275 -151.430786 
L 258.837005 -150.177458 
L 258.845523 -148.92413 
L 258.856801 -147.670802 
L 258.873972 -146.417474 
L 258.899761 -145.164146 
L 258.935992 -143.910818 
L 258.98328 -142.65749 
L 259.040942 -141.404162 
L 259.10715 -140.150833 
L 259.179251 -138.897505 
L 259.254188 -137.644177 
L 259.328933 -136.390849 
L 259.400855 -135.137521 
L 259.467983 -133.884193 
L 259.529151 -132.630865 
L 259.584054 -131.377537 
L 259.633234 -130.124209 
L 259.678068 -128.870881 
L 259.720751 -127.617552 
L 259.764306 -126.364224 
L 259.812597 -125.110896 
L 259.870311 -123.857568 
L 259.942897 -122.60424 
L 260.036409 -121.350912 
L 260.157234 -120.097584 
L 260.311655 -118.844256 
L 260.505252 -117.590928 
L 260.742137 -116.3376 
L 261.024175 -115.084271 
L 261.35036 -113.830943 
L 261.716648 -112.577615 
L 262.116468 -111.324287 
L 262.541984 -110.070959 
L 262.985918 -108.817631 
L 263.443441 -107.564303 
L 263.913474 -106.310975 
L 264.398778 -105.057647 
L 264.904507 -103.804319 
L 265.435407 -102.550991 
L 265.992323 -101.297662 
L 266.56902 -100.044334 
L 267.150274 -98.791006 
L 267.711881 -97.537678 
L 268.222638 -96.28435 
L 268.647826 -95.031022 
L 268.953385 -93.777694 
L 269.109928 -92.524366 
L 269.095981 -91.271038 
L 268.900179 -90.01771 
L 268.522402 -88.764381 
L 267.97398 -87.511053 
L 267.277033 -86.257725 
L 266.462948 -85.004397 
L 265.569949 -83.751069 
L 264.639846 -82.497741 
L 263.714251 -81.244413 
L 262.830758 -79.991085 
L 262.019702 -78.737757 
L 261.30206 -77.484429 
L 260.688766 -76.2311 
L 260.181451 -74.977772 
L 259.774262 -73.724444 
L 259.456274 -72.471116 
L 259.213938 -71.217788 
L 259.033169 -69.96446 
L 258.900822 -68.711132 
L 258.805527 -67.457804 
L 258.737975 -66.204476 
L 258.690845 -64.951148 
L 258.658528 -63.697819 
L 258.636805 -62.444491 
z
" id="m680ee6e35f" style="stroke:#3d3d3d;stroke-width:1.5;"/>
    </defs>
    <g clip-path="url(#pbc29d8b212)">
     <use style="fill:#845b53;stroke:#3d3d3d;stroke-width:1.5;" x="0" xlink:href="#m680ee6e35f" y="288"/>
    </g>
   </g>
   <g id="PolyCollection_7">
    <defs>
     <path d="M 295.826945 -61.436576 
L 295.773055 -61.436576 
L 295.752973 -62.913412 
L 295.721007 -64.390249 
L 295.672048 -65.867086 
L 295.599751 -67.343922 
L 295.49661 -68.820759 
L 295.354214 -70.297596 
L 295.163715 -71.774432 
L 294.916592 -73.251269 
L 294.60576 -74.728106 
L 294.227007 -76.204942 
L 293.780636 -77.681779 
L 293.27296 -79.158615 
L 292.717138 -80.635452 
L 292.132786 -82.112289 
L 291.544036 -83.589125 
L 290.976148 -85.065962 
L 290.45141 -86.542799 
L 289.985475 -88.019635 
L 289.585314 -89.496472 
L 289.249495 -90.973309 
L 288.970738 -92.450145 
L 288.73989 -93.926982 
L 288.550044 -95.403818 
L 288.399574 -96.880655 
L 288.293264 -98.357492 
L 288.241317 -99.834328 
L 288.256567 -101.311165 
L 288.350627 -102.788002 
L 288.529948 -104.264838 
L 288.792845 -105.741675 
L 289.128371 -107.218512 
L 289.517503 -108.695348 
L 289.936429 -110.172185 
L 290.361034 -111.649021 
L 290.771228 -113.125858 
L 291.153797 -114.602695 
L 291.50301 -116.079531 
L 291.819071 -117.556368 
L 292.105319 -119.033205 
L 292.36546 -120.510041 
L 292.601897 -121.986878 
L 292.81562 -123.463715 
L 293.007341 -124.940551 
L 293.179078 -126.417388 
L 293.335288 -127.894225 
L 293.482995 -129.371061 
L 293.630804 -130.847898 
L 293.787137 -132.324734 
L 293.958248 -133.801571 
L 294.146586 -135.278408 
L 294.349968 -136.755244 
L 294.561797 -138.232081 
L 294.77228 -139.708918 
L 294.97037 -141.185754 
L 295.145936 -142.662591 
L 295.291632 -144.139428 
L 295.404033 -145.616264 
L 295.48383 -147.093101 
L 295.535164 -148.569937 
L 295.564372 -150.046774 
L 295.578525 -151.523611 
L 295.584114 -153.000447 
L 295.586126 -154.477284 
L 295.58763 -155.954121 
L 295.589844 -157.430957 
L 295.592602 -158.907794 
L 295.595024 -160.384631 
L 295.596227 -161.861467 
L 295.595876 -163.338304 
L 295.594466 -164.81514 
L 295.593273 -166.291977 
L 295.594034 -167.768814 
L 295.598464 -169.24565 
L 295.607778 -170.722487 
L 295.622346 -172.199324 
L 295.641575 -173.67616 
L 295.664021 -175.152997 
L 295.687682 -176.629834 
L 295.710375 -178.10667 
L 295.730085 -179.583507 
L 295.745225 -181.060344 
L 295.754781 -182.53718 
L 295.758356 -184.014017 
L 295.756167 -185.490853 
L 295.749034 -186.96769 
L 295.738335 -188.444527 
L 295.725923 -189.921363 
L 295.713932 -191.3982 
L 295.70448 -192.875037 
L 295.699295 -194.351873 
L 295.699381 -195.82871 
L 295.704821 -197.305547 
L 295.714798 -198.782383 
L 295.727834 -200.25922 
L 295.74217 -201.736056 
L 295.756158 -203.212893 
L 295.768555 -204.68973 
L 295.778664 -206.166566 
L 295.786304 -207.643403 
L 295.813696 -207.643403 
L 295.813696 -207.643403 
L 295.821336 -206.166566 
L 295.831445 -204.68973 
L 295.843842 -203.212893 
L 295.85783 -201.736056 
L 295.872166 -200.25922 
L 295.885202 -198.782383 
L 295.895179 -197.305547 
L 295.900619 -195.82871 
L 295.900705 -194.351873 
L 295.89552 -192.875037 
L 295.886068 -191.3982 
L 295.874077 -189.921363 
L 295.861665 -188.444527 
L 295.850966 -186.96769 
L 295.843833 -185.490853 
L 295.841644 -184.014017 
L 295.845219 -182.53718 
L 295.854775 -181.060344 
L 295.869915 -179.583507 
L 295.889625 -178.10667 
L 295.912318 -176.629834 
L 295.935979 -175.152997 
L 295.958425 -173.67616 
L 295.977654 -172.199324 
L 295.992222 -170.722487 
L 296.001536 -169.24565 
L 296.005966 -167.768814 
L 296.006727 -166.291977 
L 296.005534 -164.81514 
L 296.004124 -163.338304 
L 296.003773 -161.861467 
L 296.004976 -160.384631 
L 296.007398 -158.907794 
L 296.010156 -157.430957 
L 296.01237 -155.954121 
L 296.013874 -154.477284 
L 296.015886 -153.000447 
L 296.021475 -151.523611 
L 296.035628 -150.046774 
L 296.064836 -148.569937 
L 296.11617 -147.093101 
L 296.195967 -145.616264 
L 296.308368 -144.139428 
L 296.454064 -142.662591 
L 296.62963 -141.185754 
L 296.82772 -139.708918 
L 297.038203 -138.232081 
L 297.250032 -136.755244 
L 297.453414 -135.278408 
L 297.641752 -133.801571 
L 297.812863 -132.324734 
L 297.969196 -130.847898 
L 298.117005 -129.371061 
L 298.264712 -127.894225 
L 298.420922 -126.417388 
L 298.592659 -124.940551 
L 298.78438 -123.463715 
L 298.998103 -121.986878 
L 299.23454 -120.510041 
L 299.494681 -119.033205 
L 299.780929 -117.556368 
L 300.09699 -116.079531 
L 300.446203 -114.602695 
L 300.828772 -113.125858 
L 301.238966 -111.649021 
L 301.663571 -110.172185 
L 302.082497 -108.695348 
L 302.471629 -107.218512 
L 302.807155 -105.741675 
L 303.070052 -104.264838 
L 303.249373 -102.788002 
L 303.343433 -101.311165 
L 303.358683 -99.834328 
L 303.306736 -98.357492 
L 303.200426 -96.880655 
L 303.049956 -95.403818 
L 302.86011 -93.926982 
L 302.629262 -92.450145 
L 302.350505 -90.973309 
L 302.014686 -89.496472 
L 301.614525 -88.019635 
L 301.14859 -86.542799 
L 300.623852 -85.065962 
L 300.055964 -83.589125 
L 299.467214 -82.112289 
L 298.882862 -80.635452 
L 298.32704 -79.158615 
L 297.819364 -77.681779 
L 297.372993 -76.204942 
L 296.99424 -74.728106 
L 296.683408 -73.251269 
L 296.436285 -71.774432 
L 296.245786 -70.297596 
L 296.10339 -68.820759 
L 296.000249 -67.343922 
L 295.927952 -65.867086 
L 295.878993 -64.390249 
L 295.847027 -62.913412 
L 295.826945 -61.436576 
z
" id="m57293773b4" style="stroke:#3d3d3d;stroke-width:1.5;"/>
    </defs>
    <g clip-path="url(#pbc29d8b212)">
     <use style="fill:#d684bd;stroke:#3d3d3d;stroke-width:1.5;" x="0" xlink:href="#m57293773b4" y="288"/>
    </g>
   </g>
   <g id="PolyCollection_8">
    <defs>
     <path d="M 333.050924 -49.057499 
L 332.949076 -49.057499 
L 332.920861 -50.201376 
L 332.881492 -51.345253 
L 332.828548 -52.48913 
L 332.759553 -53.633006 
L 332.671793 -54.776883 
L 332.561899 -55.92076 
L 332.425205 -57.064637 
L 332.255064 -58.208513 
L 332.042347 -59.35239 
L 331.77545 -60.496267 
L 331.441027 -61.640143 
L 331.025509 -62.78402 
L 330.517249 -63.927897 
L 329.908916 -65.071774 
L 329.199671 -66.21565 
L 328.396685 -67.359527 
L 327.515724 -68.503404 
L 326.580711 -69.647281 
L 325.622362 -70.791157 
L 324.676109 -71.935034 
L 323.779561 -73.078911 
L 322.969795 -74.222788 
L 322.280755 -75.366664 
L 321.741062 -76.510541 
L 321.372442 -77.654418 
L 321.188863 -78.798295 
L 321.196277 -79.942171 
L 321.392726 -81.086048 
L 321.768513 -82.229925 
L 322.306334 -83.373802 
L 322.981453 -84.517678 
L 323.762269 -85.661555 
L 324.611663 -86.805432 
L 325.489362 -87.949309 
L 326.355233 -89.093185 
L 327.173028 -90.237062 
L 327.913874 -91.380939 
L 328.558777 -92.524816 
L 329.099605 -93.668692 
L 329.538428 -94.812569 
L 329.885483 -95.956446 
L 330.156304 -97.100323 
L 330.368716 -98.244199 
L 330.540238 -99.388076 
L 330.686263 -100.531953 
L 330.819059 -101.67583 
L 330.947472 -102.819706 
L 331.077056 -103.963583 
L 331.210423 -105.10746 
L 331.347645 -106.251337 
L 331.486687 -107.395213 
L 331.623859 -108.53909 
L 331.754348 -109.682967 
L 331.872838 -110.826844 
L 331.97422 -111.97072 
L 332.054349 -113.114597 
L 332.11081 -114.258474 
L 332.143567 -115.40235 
L 332.155381 -116.546227 
L 332.151827 -117.690104 
L 332.140796 -118.833981 
L 332.131457 -119.977857 
L 332.132804 -121.121734 
L 332.152076 -122.265611 
L 332.19343 -123.409488 
L 332.257219 -124.553364 
L 332.340064 -125.697241 
L 332.435721 -126.841118 
L 332.536467 -127.984995 
L 332.634629 -129.128871 
L 332.723879 -130.272748 
L 332.800012 -131.416625 
L 332.861137 -132.560502 
L 332.907366 -133.704378 
L 332.940193 -134.848255 
L 332.961786 -135.992132 
L 332.974372 -137.136009 
L 332.979811 -138.279885 
L 332.979402 -139.423762 
L 332.973882 -140.567639 
L 332.963593 -141.711516 
L 332.948748 -142.855392 
L 332.92973 -143.999269 
L 332.907365 -145.143146 
L 332.883083 -146.287023 
L 332.858916 -147.430899 
L 332.837303 -148.574776 
L 332.820724 -149.718653 
L 332.811251 -150.86253 
L 332.810126 -152.006406 
L 332.817502 -153.150283 
L 332.832405 -154.29416 
L 332.852946 -155.438037 
L 332.876716 -156.581913 
L 332.901248 -157.72579 
L 332.924421 -158.869667 
L 332.944733 -160.013544 
L 332.961387 -161.15742 
L 332.974223 -162.301297 
L 333.025777 -162.301297 
L 333.025777 -162.301297 
L 333.038613 -161.15742 
L 333.055267 -160.013544 
L 333.075579 -158.869667 
L 333.098752 -157.72579 
L 333.123284 -156.581913 
L 333.147054 -155.438037 
L 333.167595 -154.29416 
L 333.182498 -153.150283 
L 333.189874 -152.006406 
L 333.188749 -150.86253 
L 333.179276 -149.718653 
L 333.162697 -148.574776 
L 333.141084 -147.430899 
L 333.116917 -146.287023 
L 333.092635 -145.143146 
L 333.07027 -143.999269 
L 333.051252 -142.855392 
L 333.036407 -141.711516 
L 333.026118 -140.567639 
L 333.020598 -139.423762 
L 333.020189 -138.279885 
L 333.025628 -137.136009 
L 333.038214 -135.992132 
L 333.059807 -134.848255 
L 333.092634 -133.704378 
L 333.138863 -132.560502 
L 333.199988 -131.416625 
L 333.276121 -130.272748 
L 333.365371 -129.128871 
L 333.463533 -127.984995 
L 333.564279 -126.841118 
L 333.659936 -125.697241 
L 333.742781 -124.553364 
L 333.80657 -123.409488 
L 333.847924 -122.265611 
L 333.867196 -121.121734 
L 333.868543 -119.977857 
L 333.859204 -118.833981 
L 333.848173 -117.690104 
L 333.844619 -116.546227 
L 333.856433 -115.40235 
L 333.88919 -114.258474 
L 333.945651 -113.114597 
L 334.02578 -111.97072 
L 334.127162 -110.826844 
L 334.245652 -109.682967 
L 334.376141 -108.53909 
L 334.513313 -107.395213 
L 334.652355 -106.251337 
L 334.789577 -105.10746 
L 334.922944 -103.963583 
L 335.052528 -102.819706 
L 335.180941 -101.67583 
L 335.313737 -100.531953 
L 335.459762 -99.388076 
L 335.631284 -98.244199 
L 335.843696 -97.100323 
L 336.114517 -95.956446 
L 336.461572 -94.812569 
L 336.900395 -93.668692 
L 337.441223 -92.524816 
L 338.086126 -91.380939 
L 338.826972 -90.237062 
L 339.644767 -89.093185 
L 340.510638 -87.949309 
L 341.388337 -86.805432 
L 342.237731 -85.661555 
L 343.018547 -84.517678 
L 343.693666 -83.373802 
L 344.231487 -82.229925 
L 344.607274 -81.086048 
L 344.803723 -79.942171 
L 344.811137 -78.798295 
L 344.627558 -77.654418 
L 344.258938 -76.510541 
L 343.719245 -75.366664 
L 343.030205 -74.222788 
L 342.220439 -73.078911 
L 341.323891 -71.935034 
L 340.377638 -70.791157 
L 339.419289 -69.647281 
L 338.484276 -68.503404 
L 337.603315 -67.359527 
L 336.800329 -66.21565 
L 336.091084 -65.071774 
L 335.482751 -63.927897 
L 334.974491 -62.78402 
L 334.558973 -61.640143 
L 334.22455 -60.496267 
L 333.957653 -59.35239 
L 333.744936 -58.208513 
L 333.574795 -57.064637 
L 333.438101 -55.92076 
L 333.328207 -54.776883 
L 333.240447 -53.633006 
L 333.171452 -52.48913 
L 333.118508 -51.345253 
L 333.079139 -50.201376 
L 333.050924 -49.057499 
z
" id="m7873ffd737" style="stroke:#3d3d3d;stroke-width:1.5;"/>
    </defs>
    <g clip-path="url(#pbc29d8b212)">
     <use style="fill:#7f7f7f;stroke:#3d3d3d;stroke-width:1.5;" x="0" xlink:href="#m7873ffd737" y="288"/>
    </g>
   </g>
   <g id="PolyCollection_9">
    <defs>
     <path d="M 370.363772 -69.618142 
L 370.036228 -69.618142 
L 369.979202 -70.23188 
L 369.905838 -70.845619 
L 369.812669 -71.459357 
L 369.695864 -72.073095 
L 369.551292 -72.686833 
L 369.374629 -73.300571 
L 369.161488 -73.914309 
L 368.907597 -74.528047 
L 368.609002 -75.141785 
L 368.262302 -75.755524 
L 367.864891 -76.369262 
L 367.415214 -76.983 
L 366.913012 -77.596738 
L 366.359533 -78.210476 
L 365.757708 -78.824214 
L 365.112268 -79.437952 
L 364.429781 -80.05169 
L 363.71862 -80.665429 
L 362.988828 -81.279167 
L 362.251902 -81.892905 
L 361.52048 -82.506643 
L 360.807956 -83.120381 
L 360.128023 -83.734119 
L 359.494169 -84.347857 
L 358.919148 -84.961595 
L 358.414448 -85.575334 
L 357.989796 -86.189072 
L 357.652709 -86.80281 
L 357.408147 -87.416548 
L 357.258271 -88.030286 
L 357.202349 -88.644024 
L 357.236801 -89.257762 
L 357.355408 -89.8715 
L 357.549668 -90.485238 
L 357.809279 -91.098977 
L 358.122724 -91.712715 
L 358.477913 -92.326453 
L 358.862837 -92.940191 
L 359.266192 -93.553929 
L 359.677916 -94.167667 
L 360.089611 -94.781405 
L 360.494811 -95.395143 
L 360.889093 -96.008882 
L 361.270026 -96.62262 
L 361.636968 -97.236358 
L 361.99075 -97.850096 
L 362.333277 -98.463834 
L 362.667082 -99.077572 
L 362.994889 -99.69131 
L 363.319207 -100.305048 
L 363.642 -100.918787 
L 363.964437 -101.532525 
L 364.286746 -102.146263 
L 364.608175 -102.760001 
L 364.927033 -103.373739 
L 365.240821 -103.987477 
L 365.546415 -104.601215 
L 365.840298 -105.214953 
L 366.118807 -105.828692 
L 366.378383 -106.44243 
L 366.615814 -107.056168 
L 366.828443 -107.669906 
L 367.014345 -108.283644 
L 367.172457 -108.897382 
L 367.302664 -109.51112 
L 367.405827 -110.124858 
L 367.483763 -110.738597 
L 367.539179 -111.352335 
L 367.575555 -111.966073 
L 367.596991 -112.579811 
L 367.608026 -113.193549 
L 367.613428 -113.807287 
L 367.617977 -114.421025 
L 367.626248 -115.034763 
L 367.642403 -115.648502 
L 367.670006 -116.26224 
L 367.711869 -116.875978 
L 367.769942 -117.489716 
L 367.845249 -118.103454 
L 367.937874 -118.717192 
L 368.047 -119.33093 
L 368.170995 -119.944668 
L 368.307539 -120.558407 
L 368.453786 -121.172145 
L 368.606543 -121.785883 
L 368.762457 -122.399621 
L 368.918207 -123.013359 
L 369.070661 -123.627097 
L 369.217028 -124.240835 
L 369.354957 -124.854573 
L 369.482612 -125.468312 
L 369.598704 -126.08205 
L 369.702482 -126.695788 
L 369.793699 -127.309526 
L 369.872554 -127.923264 
L 369.939611 -128.537002 
L 369.995714 -129.15074 
L 370.041899 -129.764478 
L 370.079315 -130.378217 
L 370.320685 -130.378217 
L 370.320685 -130.378217 
L 370.358101 -129.764478 
L 370.404286 -129.15074 
L 370.460389 -128.537002 
L 370.527446 -127.923264 
L 370.606301 -127.309526 
L 370.697518 -126.695788 
L 370.801296 -126.08205 
L 370.917388 -125.468312 
L 371.045043 -124.854573 
L 371.182972 -124.240835 
L 371.329339 -123.627097 
L 371.481793 -123.013359 
L 371.637543 -122.399621 
L 371.793457 -121.785883 
L 371.946214 -121.172145 
L 372.092461 -120.558407 
L 372.229005 -119.944668 
L 372.353 -119.33093 
L 372.462126 -118.717192 
L 372.554751 -118.103454 
L 372.630058 -117.489716 
L 372.688131 -116.875978 
L 372.729994 -116.26224 
L 372.757597 -115.648502 
L 372.773752 -115.034763 
L 372.782023 -114.421025 
L 372.786572 -113.807287 
L 372.791974 -113.193549 
L 372.803009 -112.579811 
L 372.824445 -111.966073 
L 372.860821 -111.352335 
L 372.916237 -110.738597 
L 372.994173 -110.124858 
L 373.097336 -109.51112 
L 373.227543 -108.897382 
L 373.385655 -108.283644 
L 373.571557 -107.669906 
L 373.784186 -107.056168 
L 374.021617 -106.44243 
L 374.281193 -105.828692 
L 374.559702 -105.214953 
L 374.853585 -104.601215 
L 375.159179 -103.987477 
L 375.472967 -103.373739 
L 375.791825 -102.760001 
L 376.113254 -102.146263 
L 376.435563 -101.532525 
L 376.758 -100.918787 
L 377.080793 -100.305048 
L 377.405111 -99.69131 
L 377.732918 -99.077572 
L 378.066723 -98.463834 
L 378.40925 -97.850096 
L 378.763032 -97.236358 
L 379.129974 -96.62262 
L 379.510907 -96.008882 
L 379.905189 -95.395143 
L 380.310389 -94.781405 
L 380.722084 -94.167667 
L 381.133808 -93.553929 
L 381.537163 -92.940191 
L 381.922087 -92.326453 
L 382.277276 -91.712715 
L 382.590721 -91.098977 
L 382.850332 -90.485238 
L 383.044592 -89.8715 
L 383.163199 -89.257762 
L 383.197651 -88.644024 
L 383.141729 -88.030286 
L 382.991853 -87.416548 
L 382.747291 -86.80281 
L 382.410204 -86.189072 
L 381.985552 -85.575334 
L 381.480852 -84.961595 
L 380.905831 -84.347857 
L 380.271977 -83.734119 
L 379.592044 -83.120381 
L 378.87952 -82.506643 
L 378.148098 -81.892905 
L 377.411172 -81.279167 
L 376.68138 -80.665429 
L 375.970219 -80.05169 
L 375.287732 -79.437952 
L 374.642292 -78.824214 
L 374.040467 -78.210476 
L 373.486988 -77.596738 
L 372.984786 -76.983 
L 372.535109 -76.369262 
L 372.137698 -75.755524 
L 371.790998 -75.141785 
L 371.492403 -74.528047 
L 371.238512 -73.914309 
L 371.025371 -73.300571 
L 370.848708 -72.686833 
L 370.704136 -72.073095 
L 370.587331 -71.459357 
L 370.494162 -70.845619 
L 370.420798 -70.23188 
L 370.363772 -69.618142 
z
" id="mfc50f1ea1d" style="stroke:#3d3d3d;stroke-width:1.5;"/>
    </defs>
    <g clip-path="url(#pbc29d8b212)">
     <use style="fill:#a9aa35;stroke:#3d3d3d;stroke-width:1.5;" x="0" xlink:href="#mfc50f1ea1d" y="288"/>
    </g>
   </g>
   <g id="matplotlib.axis_1">
    <g id="xtick_1">
     <g id="line2d_1">
      <defs>
       <path d="M 0 0 
L 0 3.5 
" id="m8e00704c74" style="stroke:#000000;stroke-width:0.8;"/>
      </defs>
      <g>
       <use style="stroke:#000000;stroke-width:0.8;" x="72.6" xlink:href="#m8e00704c74" y="252"/>
      </g>
     </g>
    </g>
    <g id="xtick_2">
     <g id="line2d_2">
      <g>
       <use style="stroke:#000000;stroke-width:0.8;" x="109.8" xlink:href="#m8e00704c74" y="252"/>
      </g>
     </g>
    </g>
    <g id="xtick_3">
     <g id="line2d_3">
      <g>
       <use style="stroke:#000000;stroke-width:0.8;" x="147" xlink:href="#m8e00704c74" y="252"/>
      </g>
     </g>
    </g>
    <g id="xtick_4">
     <g id="line2d_4">
      <g>
       <use style="stroke:#000000;stroke-width:0.8;" x="184.2" xlink:href="#m8e00704c74" y="252"/>
      </g>
     </g>
    </g>
    <g id="xtick_5">
     <g id="line2d_5">
      <g>
       <use style="stroke:#000000;stroke-width:0.8;" x="221.4" xlink:href="#m8e00704c74" y="252"/>
      </g>
     </g>
    </g>
    <g id="xtick_6">
     <g id="line2d_6">
      <g>
       <use style="stroke:#000000;stroke-width:0.8;" x="258.6" xlink:href="#m8e00704c74" y="252"/>
      </g>
     </g>
    </g>
    <g id="xtick_7">
     <g id="line2d_7">
      <g>
       <use style="stroke:#000000;stroke-width:0.8;" x="295.8" xlink:href="#m8e00704c74" y="252"/>
      </g>
     </g>
    </g>
    <g id="xtick_8">
     <g id="line2d_8">
      <g>
       <use style="stroke:#000000;stroke-width:0.8;" x="333" xlink:href="#m8e00704c74" y="252"/>
      </g>
     </g>
    </g>
    <g id="xtick_9">
     <g id="line2d_9">
      <g>
       <use style="stroke:#000000;stroke-width:0.8;" x="370.2" xlink:href="#m8e00704c74" y="252"/>
      </g>
     </g>
    </g>
    <g id="text_1">
     <!-- rucc -->
     <defs>
      <path d="M 41.109375 46.296875 
Q 39.59375 47.171875 37.8125 47.578125 
Q 36.03125 48 33.890625 48 
Q 26.265625 48 22.1875 43.046875 
Q 18.109375 38.09375 18.109375 28.8125 
L 18.109375 0 
L 9.078125 0 
L 9.078125 54.6875 
L 18.109375 54.6875 
L 18.109375 46.1875 
Q 20.953125 51.171875 25.484375 53.578125 
Q 30.03125 56 36.53125 56 
Q 37.453125 56 38.578125 55.875 
Q 39.703125 55.765625 41.0625 55.515625 
z
" id="DejaVuSans-114"/>
      <path d="M 8.5 21.578125 
L 8.5 54.6875 
L 17.484375 54.6875 
L 17.484375 21.921875 
Q 17.484375 14.15625 20.5 10.265625 
Q 23.53125 6.390625 29.59375 6.390625 
Q 36.859375 6.390625 41.078125 11.03125 
Q 45.3125 15.671875 45.3125 23.6875 
L 45.3125 54.6875 
L 54.296875 54.6875 
L 54.296875 0 
L 45.3125 0 
L 45.3125 8.40625 
Q 42.046875 3.421875 37.71875 1 
Q 33.40625 -1.421875 27.6875 -1.421875 
Q 18.265625 -1.421875 13.375 4.4375 
Q 8.5 10.296875 8.5 21.578125 
z
M 31.109375 56 
z
" id="DejaVuSans-117"/>
      <path d="M 48.78125 52.59375 
L 48.78125 44.1875 
Q 44.96875 46.296875 41.140625 47.34375 
Q 37.3125 48.390625 33.40625 48.390625 
Q 24.65625 48.390625 19.8125 42.84375 
Q 14.984375 37.3125 14.984375 27.296875 
Q 14.984375 17.28125 19.8125 11.734375 
Q 24.65625 6.203125 33.40625 6.203125 
Q 37.3125 6.203125 41.140625 7.25 
Q 44.96875 8.296875 48.78125 10.40625 
L 48.78125 2.09375 
Q 45.015625 0.34375 40.984375 -0.53125 
Q 36.96875 -1.421875 32.421875 -1.421875 
Q 20.0625 -1.421875 12.78125 6.34375 
Q 5.515625 14.109375 5.515625 27.296875 
Q 5.515625 40.671875 12.859375 48.328125 
Q 20.21875 56 33.015625 56 
Q 37.15625 56 41.109375 55.140625 
Q 45.0625 54.296875 48.78125 52.59375 
z
" id="DejaVuSans-99"/>
     </defs>
     <g transform="translate(210.677344 270.598437)scale(0.1 -0.1)">
      <use xlink:href="#DejaVuSans-114"/>
      <use x="41.113281" xlink:href="#DejaVuSans-117"/>
      <use x="104.492188" xlink:href="#DejaVuSans-99"/>
      <use x="159.472656" xlink:href="#DejaVuSans-99"/>
     </g>
    </g>
   </g>
   <g id="matplotlib.axis_2">
    <g id="ytick_1">
     <g id="line2d_10">
      <defs>
       <path d="M 0 0 
L -3.5 0 
" id="mc5fde2d53e" style="stroke:#000000;stroke-width:0.8;"/>
      </defs>
      <g>
       <use style="stroke:#000000;stroke-width:0.8;" x="54" xlink:href="#mc5fde2d53e" y="242.768769"/>
      </g>
     </g>
     <g id="text_2">
      <!-- 250 -->
      <defs>
       <path d="M 19.1875 8.296875 
L 53.609375 8.296875 
L 53.609375 0 
L 7.328125 0 
L 7.328125 8.296875 
Q 12.9375 14.109375 22.625 23.890625 
Q 32.328125 33.6875 34.8125 36.53125 
Q 39.546875 41.84375 41.421875 45.53125 
Q 43.3125 49.21875 43.3125 52.78125 
Q 43.3125 58.59375 39.234375 62.25 
Q 35.15625 65.921875 28.609375 65.921875 
Q 23.96875 65.921875 18.8125 64.3125 
Q 13.671875 62.703125 7.8125 59.421875 
L 7.8125 69.390625 
Q 13.765625 71.78125 18.9375 73 
Q 24.125 74.21875 28.421875 74.21875 
Q 39.75 74.21875 46.484375 68.546875 
Q 53.21875 62.890625 53.21875 53.421875 
Q 53.21875 48.921875 51.53125 44.890625 
Q 49.859375 40.875 45.40625 35.40625 
Q 44.1875 33.984375 37.640625 27.21875 
Q 31.109375 20.453125 19.1875 8.296875 
z
" id="DejaVuSans-50"/>
       <path d="M 10.796875 72.90625 
L 49.515625 72.90625 
L 49.515625 64.59375 
L 19.828125 64.59375 
L 19.828125 46.734375 
Q 21.96875 47.46875 24.109375 47.828125 
Q 26.265625 48.1875 28.421875 48.1875 
Q 40.625 48.1875 47.75 41.5 
Q 54.890625 34.8125 54.890625 23.390625 
Q 54.890625 11.625 47.5625 5.09375 
Q 40.234375 -1.421875 26.90625 -1.421875 
Q 22.3125 -1.421875 17.546875 -0.640625 
Q 12.796875 0.140625 7.71875 1.703125 
L 7.71875 11.625 
Q 12.109375 9.234375 16.796875 8.0625 
Q 21.484375 6.890625 26.703125 6.890625 
Q 35.15625 6.890625 40.078125 11.328125 
Q 45.015625 15.765625 45.015625 23.390625 
Q 45.015625 31 40.078125 35.4375 
Q 35.15625 39.890625 26.703125 39.890625 
Q 22.75 39.890625 18.8125 39.015625 
Q 14.890625 38.140625 10.796875 36.28125 
z
" id="DejaVuSans-53"/>
       <path d="M 31.78125 66.40625 
Q 24.171875 66.40625 20.328125 58.90625 
Q 16.5 51.421875 16.5 36.375 
Q 16.5 21.390625 20.328125 13.890625 
Q 24.171875 6.390625 31.78125 6.390625 
Q 39.453125 6.390625 43.28125 13.890625 
Q 47.125 21.390625 47.125 36.375 
Q 47.125 51.421875 43.28125 58.90625 
Q 39.453125 66.40625 31.78125 66.40625 
z
M 31.78125 74.21875 
Q 44.046875 74.21875 50.515625 64.515625 
Q 56.984375 54.828125 56.984375 36.375 
Q 56.984375 17.96875 50.515625 8.265625 
Q 44.046875 -1.421875 31.78125 -1.421875 
Q 19.53125 -1.421875 13.0625 8.265625 
Q 6.59375 17.96875 6.59375 36.375 
Q 6.59375 54.828125 13.0625 64.515625 
Q 19.53125 74.21875 31.78125 74.21875 
z
" id="DejaVuSans-48"/>
      </defs>
      <g transform="translate(27.9125 246.567988)scale(0.1 -0.1)">
       <use xlink:href="#DejaVuSans-50"/>
       <use x="63.623047" xlink:href="#DejaVuSans-53"/>
       <use x="127.246094" xlink:href="#DejaVuSans-48"/>
      </g>
     </g>
    </g>
    <g id="ytick_2">
     <g id="line2d_11">
      <g>
       <use style="stroke:#000000;stroke-width:0.8;" x="54" xlink:href="#mc5fde2d53e" y="214.362676"/>
      </g>
     </g>
     <g id="text_3">
      <!-- 500 -->
      <g transform="translate(27.9125 218.161894)scale(0.1 -0.1)">
       <use xlink:href="#DejaVuSans-53"/>
       <use x="63.623047" xlink:href="#DejaVuSans-48"/>
       <use x="127.246094" xlink:href="#DejaVuSans-48"/>
      </g>
     </g>
    </g>
    <g id="ytick_3">
     <g id="line2d_12">
      <g>
       <use style="stroke:#000000;stroke-width:0.8;" x="54" xlink:href="#mc5fde2d53e" y="185.956582"/>
      </g>
     </g>
     <g id="text_4">
      <!-- 750 -->
      <defs>
       <path d="M 8.203125 72.90625 
L 55.078125 72.90625 
L 55.078125 68.703125 
L 28.609375 0 
L 18.3125 0 
L 43.21875 64.59375 
L 8.203125 64.59375 
z
" id="DejaVuSans-55"/>
      </defs>
      <g transform="translate(27.9125 189.755801)scale(0.1 -0.1)">
       <use xlink:href="#DejaVuSans-55"/>
       <use x="63.623047" xlink:href="#DejaVuSans-53"/>
       <use x="127.246094" xlink:href="#DejaVuSans-48"/>
      </g>
     </g>
    </g>
    <g id="ytick_4">
     <g id="line2d_13">
      <g>
       <use style="stroke:#000000;stroke-width:0.8;" x="54" xlink:href="#mc5fde2d53e" y="157.550488"/>
      </g>
     </g>
     <g id="text_5">
      <!-- 1000 -->
      <defs>
       <path d="M 12.40625 8.296875 
L 28.515625 8.296875 
L 28.515625 63.921875 
L 10.984375 60.40625 
L 10.984375 69.390625 
L 28.421875 72.90625 
L 38.28125 72.90625 
L 38.28125 8.296875 
L 54.390625 8.296875 
L 54.390625 0 
L 12.40625 0 
z
" id="DejaVuSans-49"/>
      </defs>
      <g transform="translate(21.55 161.349707)scale(0.1 -0.1)">
       <use xlink:href="#DejaVuSans-49"/>
       <use x="63.623047" xlink:href="#DejaVuSans-48"/>
       <use x="127.246094" xlink:href="#DejaVuSans-48"/>
       <use x="190.869141" xlink:href="#DejaVuSans-48"/>
      </g>
     </g>
    </g>
    <g id="ytick_5">
     <g id="line2d_14">
      <g>
       <use style="stroke:#000000;stroke-width:0.8;" x="54" xlink:href="#mc5fde2d53e" y="129.144394"/>
      </g>
     </g>
     <g id="text_6">
      <!-- 1250 -->
      <g transform="translate(21.55 132.943613)scale(0.1 -0.1)">
       <use xlink:href="#DejaVuSans-49"/>
       <use x="63.623047" xlink:href="#DejaVuSans-50"/>
       <use x="127.246094" xlink:href="#DejaVuSans-53"/>
       <use x="190.869141" xlink:href="#DejaVuSans-48"/>
      </g>
     </g>
    </g>
    <g id="ytick_6">
     <g id="line2d_15">
      <g>
       <use style="stroke:#000000;stroke-width:0.8;" x="54" xlink:href="#mc5fde2d53e" y="100.738301"/>
      </g>
     </g>
     <g id="text_7">
      <!-- 1500 -->
      <g transform="translate(21.55 104.537519)scale(0.1 -0.1)">
       <use xlink:href="#DejaVuSans-49"/>
       <use x="63.623047" xlink:href="#DejaVuSans-53"/>
       <use x="127.246094" xlink:href="#DejaVuSans-48"/>
       <use x="190.869141" xlink:href="#DejaVuSans-48"/>
      </g>
     </g>
    </g>
    <g id="ytick_7">
     <g id="line2d_16">
      <g>
       <use style="stroke:#000000;stroke-width:0.8;" x="54" xlink:href="#mc5fde2d53e" y="72.332207"/>
      </g>
     </g>
     <g id="text_8">
      <!-- 1750 -->
      <g transform="translate(21.55 76.131426)scale(0.1 -0.1)">
       <use xlink:href="#DejaVuSans-49"/>
       <use x="63.623047" xlink:href="#DejaVuSans-55"/>
       <use x="127.246094" xlink:href="#DejaVuSans-53"/>
       <use x="190.869141" xlink:href="#DejaVuSans-48"/>
      </g>
     </g>
    </g>
    <g id="ytick_8">
     <g id="line2d_17">
      <g>
       <use style="stroke:#000000;stroke-width:0.8;" x="54" xlink:href="#mc5fde2d53e" y="43.926113"/>
      </g>
     </g>
     <g id="text_9">
      <!-- 2000 -->
      <g transform="translate(21.55 47.725332)scale(0.1 -0.1)">
       <use xlink:href="#DejaVuSans-50"/>
       <use x="63.623047" xlink:href="#DejaVuSans-48"/>
       <use x="127.246094" xlink:href="#DejaVuSans-48"/>
       <use x="190.869141" xlink:href="#DejaVuSans-48"/>
      </g>
     </g>
    </g>
    <g id="text_10">
     <!-- gross_rent -->
     <defs>
      <path d="M 45.40625 27.984375 
Q 45.40625 37.75 41.375 43.109375 
Q 37.359375 48.484375 30.078125 48.484375 
Q 22.859375 48.484375 18.828125 43.109375 
Q 14.796875 37.75 14.796875 27.984375 
Q 14.796875 18.265625 18.828125 12.890625 
Q 22.859375 7.515625 30.078125 7.515625 
Q 37.359375 7.515625 41.375 12.890625 
Q 45.40625 18.265625 45.40625 27.984375 
z
M 54.390625 6.78125 
Q 54.390625 -7.171875 48.1875 -13.984375 
Q 42 -20.796875 29.203125 -20.796875 
Q 24.46875 -20.796875 20.265625 -20.09375 
Q 16.0625 -19.390625 12.109375 -17.921875 
L 12.109375 -9.1875 
Q 16.0625 -11.328125 19.921875 -12.34375 
Q 23.78125 -13.375 27.78125 -13.375 
Q 36.625 -13.375 41.015625 -8.765625 
Q 45.40625 -4.15625 45.40625 5.171875 
L 45.40625 9.625 
Q 42.625 4.78125 38.28125 2.390625 
Q 33.9375 0 27.875 0 
Q 17.828125 0 11.671875 7.65625 
Q 5.515625 15.328125 5.515625 27.984375 
Q 5.515625 40.671875 11.671875 48.328125 
Q 17.828125 56 27.875 56 
Q 33.9375 56 38.28125 53.609375 
Q 42.625 51.21875 45.40625 46.390625 
L 45.40625 54.6875 
L 54.390625 54.6875 
z
" id="DejaVuSans-103"/>
      <path d="M 30.609375 48.390625 
Q 23.390625 48.390625 19.1875 42.75 
Q 14.984375 37.109375 14.984375 27.296875 
Q 14.984375 17.484375 19.15625 11.84375 
Q 23.34375 6.203125 30.609375 6.203125 
Q 37.796875 6.203125 41.984375 11.859375 
Q 46.1875 17.53125 46.1875 27.296875 
Q 46.1875 37.015625 41.984375 42.703125 
Q 37.796875 48.390625 30.609375 48.390625 
z
M 30.609375 56 
Q 42.328125 56 49.015625 48.375 
Q 55.71875 40.765625 55.71875 27.296875 
Q 55.71875 13.875 49.015625 6.21875 
Q 42.328125 -1.421875 30.609375 -1.421875 
Q 18.84375 -1.421875 12.171875 6.21875 
Q 5.515625 13.875 5.515625 27.296875 
Q 5.515625 40.765625 12.171875 48.375 
Q 18.84375 56 30.609375 56 
z
" id="DejaVuSans-111"/>
      <path d="M 44.28125 53.078125 
L 44.28125 44.578125 
Q 40.484375 46.53125 36.375 47.5 
Q 32.28125 48.484375 27.875 48.484375 
Q 21.1875 48.484375 17.84375 46.4375 
Q 14.5 44.390625 14.5 40.28125 
Q 14.5 37.15625 16.890625 35.375 
Q 19.28125 33.59375 26.515625 31.984375 
L 29.59375 31.296875 
Q 39.15625 29.25 43.1875 25.515625 
Q 47.21875 21.78125 47.21875 15.09375 
Q 47.21875 7.46875 41.1875 3.015625 
Q 35.15625 -1.421875 24.609375 -1.421875 
Q 20.21875 -1.421875 15.453125 -0.5625 
Q 10.6875 0.296875 5.421875 2 
L 5.421875 11.28125 
Q 10.40625 8.6875 15.234375 7.390625 
Q 20.0625 6.109375 24.8125 6.109375 
Q 31.15625 6.109375 34.5625 8.28125 
Q 37.984375 10.453125 37.984375 14.40625 
Q 37.984375 18.0625 35.515625 20.015625 
Q 33.0625 21.96875 24.703125 23.78125 
L 21.578125 24.515625 
Q 13.234375 26.265625 9.515625 29.90625 
Q 5.8125 33.546875 5.8125 39.890625 
Q 5.8125 47.609375 11.28125 51.796875 
Q 16.75 56 26.8125 56 
Q 31.78125 56 36.171875 55.265625 
Q 40.578125 54.546875 44.28125 53.078125 
z
" id="DejaVuSans-115"/>
      <path d="M 50.984375 -16.609375 
L 50.984375 -23.578125 
L -0.984375 -23.578125 
L -0.984375 -16.609375 
z
" id="DejaVuSans-95"/>
      <path d="M 56.203125 29.59375 
L 56.203125 25.203125 
L 14.890625 25.203125 
Q 15.484375 15.921875 20.484375 11.0625 
Q 25.484375 6.203125 34.421875 6.203125 
Q 39.59375 6.203125 44.453125 7.46875 
Q 49.3125 8.734375 54.109375 11.28125 
L 54.109375 2.78125 
Q 49.265625 0.734375 44.1875 -0.34375 
Q 39.109375 -1.421875 33.890625 -1.421875 
Q 20.796875 -1.421875 13.15625 6.1875 
Q 5.515625 13.8125 5.515625 26.8125 
Q 5.515625 40.234375 12.765625 48.109375 
Q 20.015625 56 32.328125 56 
Q 43.359375 56 49.78125 48.890625 
Q 56.203125 41.796875 56.203125 29.59375 
z
M 47.21875 32.234375 
Q 47.125 39.59375 43.09375 43.984375 
Q 39.0625 48.390625 32.421875 48.390625 
Q 24.90625 48.390625 20.390625 44.140625 
Q 15.875 39.890625 15.1875 32.171875 
z
" id="DejaVuSans-101"/>
      <path d="M 54.890625 33.015625 
L 54.890625 0 
L 45.90625 0 
L 45.90625 32.71875 
Q 45.90625 40.484375 42.875 44.328125 
Q 39.84375 48.1875 33.796875 48.1875 
Q 26.515625 48.1875 22.3125 43.546875 
Q 18.109375 38.921875 18.109375 30.90625 
L 18.109375 0 
L 9.078125 0 
L 9.078125 54.6875 
L 18.109375 54.6875 
L 18.109375 46.1875 
Q 21.34375 51.125 25.703125 53.5625 
Q 30.078125 56 35.796875 56 
Q 45.21875 56 50.046875 50.171875 
Q 54.890625 44.34375 54.890625 33.015625 
z
" id="DejaVuSans-110"/>
      <path d="M 18.3125 70.21875 
L 18.3125 54.6875 
L 36.8125 54.6875 
L 36.8125 47.703125 
L 18.3125 47.703125 
L 18.3125 18.015625 
Q 18.3125 11.328125 20.140625 9.421875 
Q 21.96875 7.515625 27.59375 7.515625 
L 36.8125 7.515625 
L 36.8125 0 
L 27.59375 0 
Q 17.1875 0 13.234375 3.875 
Q 9.28125 7.765625 9.28125 18.015625 
L 9.28125 47.703125 
L 2.6875 47.703125 
L 2.6875 54.6875 
L 9.28125 54.6875 
L 9.28125 70.21875 
z
" id="DejaVuSans-116"/>
     </defs>
     <g transform="translate(15.192187 169.53625)rotate(-90)scale(0.1 -0.1)">
      <use xlink:href="#DejaVuSans-103"/>
      <use x="63.476562" xlink:href="#DejaVuSans-114"/>
      <use x="104.558594" xlink:href="#DejaVuSans-111"/>
      <use x="165.740234" xlink:href="#DejaVuSans-115"/>
      <use x="217.839844" xlink:href="#DejaVuSans-115"/>
      <use x="269.939453" xlink:href="#DejaVuSans-95"/>
      <use x="319.939453" xlink:href="#DejaVuSans-114"/>
      <use x="361.021484" xlink:href="#DejaVuSans-101"/>
      <use x="422.544922" xlink:href="#DejaVuSans-110"/>
      <use x="485.923828" xlink:href="#DejaVuSans-116"/>
     </g>
    </g>
   </g>
   <g id="line2d_18">
    <path clip-path="url(#pbc29d8b212)" d="M 72.6 231.292707 
L 72.6 177.775627 
" style="fill:none;stroke:#3d3d3d;stroke-linecap:square;stroke-width:1.5;"/>
   </g>
   <g id="line2d_19">
    <path clip-path="url(#pbc29d8b212)" d="M 72.6 214.703549 
L 72.6 199.818756 
" style="fill:none;stroke:#3d3d3d;stroke-linecap:square;stroke-width:4.5;"/>
   </g>
   <g id="line2d_20">
    <path clip-path="url(#pbc29d8b212)" d="M 109.8 224.020747 
L 109.8 181.184358 
" style="fill:none;stroke:#3d3d3d;stroke-linecap:square;stroke-width:1.5;"/>
   </g>
   <g id="line2d_21">
    <path clip-path="url(#pbc29d8b212)" d="M 109.8 208.397396 
L 109.8 197.120177 
" style="fill:none;stroke:#3d3d3d;stroke-linecap:square;stroke-width:4.5;"/>
   </g>
   <g id="line2d_22">
    <path clip-path="url(#pbc29d8b212)" d="M 147 218.907651 
L 147 163.799829 
" style="fill:none;stroke:#3d3d3d;stroke-linecap:square;stroke-width:1.5;"/>
   </g>
   <g id="line2d_23">
    <path clip-path="url(#pbc29d8b212)" d="M 147 199.023385 
L 147 183.229597 
" style="fill:none;stroke:#3d3d3d;stroke-linecap:square;stroke-width:4.5;"/>
   </g>
   <g id="line2d_24">
    <path clip-path="url(#pbc29d8b212)" d="M 184.2 210.044949 
L 184.2 98.806686 
" style="fill:none;stroke:#3d3d3d;stroke-linecap:square;stroke-width:1.5;"/>
   </g>
   <g id="line2d_25">
    <path clip-path="url(#pbc29d8b212)" d="M 184.2 182.661475 
L 184.2 149.02866 
" style="fill:none;stroke:#3d3d3d;stroke-linecap:square;stroke-width:4.5;"/>
   </g>
   <g id="line2d_26">
    <path clip-path="url(#pbc29d8b212)" d="M 221.4 219.362148 
L 221.4 180.048114 
" style="fill:none;stroke:#3d3d3d;stroke-linecap:square;stroke-width:1.5;"/>
   </g>
   <g id="line2d_27">
    <path clip-path="url(#pbc29d8b212)" d="M 221.4 205.499974 
L 221.4 194.932907 
" style="fill:none;stroke:#3d3d3d;stroke-linecap:square;stroke-width:4.5;"/>
   </g>
   <g id="line2d_28">
    <path clip-path="url(#pbc29d8b212)" d="M 258.6 213.226432 
L 258.6 159.368478 
" style="fill:none;stroke:#3d3d3d;stroke-linecap:square;stroke-width:1.5;"/>
   </g>
   <g id="line2d_29">
    <path clip-path="url(#pbc29d8b212)" d="M 258.6 199.137009 
L 258.6 182.775099 
" style="fill:none;stroke:#3d3d3d;stroke-linecap:square;stroke-width:4.5;"/>
   </g>
   <g id="line2d_30">
    <path clip-path="url(#pbc29d8b212)" d="M 295.8 214.021802 
L 295.8 149.483157 
" style="fill:none;stroke:#3d3d3d;stroke-linecap:square;stroke-width:1.5;"/>
   </g>
   <g id="line2d_31">
    <path clip-path="url(#pbc29d8b212)" d="M 295.8 194.819283 
L 295.8 173.685149 
" style="fill:none;stroke:#3d3d3d;stroke-linecap:square;stroke-width:4.5;"/>
   </g>
   <g id="line2d_32">
    <path clip-path="url(#pbc29d8b212)" d="M 333 228.224849 
L 333 184.593089 
" style="fill:none;stroke:#3d3d3d;stroke-linecap:square;stroke-width:1.5;"/>
   </g>
   <g id="line2d_33">
    <path clip-path="url(#pbc29d8b212)" d="M 333 212.147 
L 333 200.699344 
" style="fill:none;stroke:#3d3d3d;stroke-linecap:square;stroke-width:4.5;"/>
   </g>
   <g id="line2d_34">
    <path clip-path="url(#pbc29d8b212)" d="M 370.2 208.567832 
L 370.2 171.639911 
" style="fill:none;stroke:#3d3d3d;stroke-linecap:square;stroke-width:1.5;"/>
   </g>
   <g id="line2d_35">
    <path clip-path="url(#pbc29d8b212)" d="M 370.2 200.358471 
L 370.2 188.427912 
" style="fill:none;stroke:#3d3d3d;stroke-linecap:square;stroke-width:4.5;"/>
   </g>
   <g id="patch_3">
    <path d="M 54 252 
L 54 34.56 
" style="fill:none;stroke:#000000;stroke-linecap:square;stroke-linejoin:miter;stroke-width:0.8;"/>
   </g>
   <g id="patch_4">
    <path d="M 388.8 252 
L 388.8 34.56 
" style="fill:none;stroke:#000000;stroke-linecap:square;stroke-linejoin:miter;stroke-width:0.8;"/>
   </g>
   <g id="patch_5">
    <path d="M 54 252 
L 388.8 252 
" style="fill:none;stroke:#000000;stroke-linecap:square;stroke-linejoin:miter;stroke-width:0.8;"/>
   </g>
   <g id="patch_6">
    <path d="M 54 34.56 
L 388.8 34.56 
" style="fill:none;stroke:#000000;stroke-linecap:square;stroke-linejoin:miter;stroke-width:0.8;"/>
   </g>
   <g id="PathCollection_1">
    <defs>
     <path d="M 0 1.5 
C 0.397805 1.5 0.77937 1.341951 1.06066 1.06066 
C 1.341951 0.77937 1.5 0.397805 1.5 0 
C 1.5 -0.397805 1.341951 -0.77937 1.06066 -1.06066 
C 0.77937 -1.341951 0.397805 -1.5 0 -1.5 
C -0.397805 -1.5 -0.77937 -1.341951 -1.06066 -1.06066 
C -1.341951 -0.77937 -1.5 -0.397805 -1.5 0 
C -1.5 0.397805 -1.341951 0.77937 -1.06066 1.06066 
C -0.77937 1.341951 -0.397805 1.5 0 1.5 
z
" id="mab13e2b027" style="stroke:#3d3d3d;"/>
    </defs>
    <g clip-path="url(#pbc29d8b212)">
     <use style="fill:#ffffff;stroke:#3d3d3d;" x="72.6" xlink:href="#mab13e2b027" y="208.567832"/>
    </g>
   </g>
   <g id="PathCollection_2">
    <g clip-path="url(#pbc29d8b212)">
     <use style="fill:#ffffff;stroke:#3d3d3d;" x="109.8" xlink:href="#mab13e2b027" y="203.852421"/>
    </g>
   </g>
   <g id="PathCollection_3">
    <g clip-path="url(#pbc29d8b212)">
     <use style="fill:#ffffff;stroke:#3d3d3d;" x="147" xlink:href="#mab13e2b027" y="190.387932"/>
    </g>
   </g>
   <g id="PathCollection_4">
    <g clip-path="url(#pbc29d8b212)">
     <use style="fill:#ffffff;stroke:#3d3d3d;" x="184.2" xlink:href="#mab13e2b027" y="166.413189"/>
    </g>
   </g>
   <g id="PathCollection_5">
    <g clip-path="url(#pbc29d8b212)">
     <use style="fill:#ffffff;stroke:#3d3d3d;" x="221.4" xlink:href="#mab13e2b027" y="200.614126"/>
    </g>
   </g>
   <g id="PathCollection_6">
    <g clip-path="url(#pbc29d8b212)">
     <use style="fill:#ffffff;stroke:#3d3d3d;" x="258.6" xlink:href="#mab13e2b027" y="193.455791"/>
    </g>
   </g>
   <g id="PathCollection_7">
    <g clip-path="url(#pbc29d8b212)">
     <use style="fill:#ffffff;stroke:#3d3d3d;" x="295.8" xlink:href="#mab13e2b027" y="185.161211"/>
    </g>
   </g>
   <g id="PathCollection_8">
    <g clip-path="url(#pbc29d8b212)">
     <use style="fill:#ffffff;stroke:#3d3d3d;" x="333" xlink:href="#mab13e2b027" y="206.863467"/>
    </g>
   </g>
   <g id="PathCollection_9">
    <g clip-path="url(#pbc29d8b212)">
     <use style="fill:#ffffff;stroke:#3d3d3d;" x="370.2" xlink:href="#mab13e2b027" y="196.410024"/>
    </g>
   </g>
   <g id="legend_1">
    <g id="patch_7">
     <path d="M 395.8 177.16625 
L 634.657813 177.16625 
Q 636.657813 177.16625 636.657813 175.16625 
L 636.657813 41.56 
Q 636.657813 39.56 634.657813 39.56 
L 395.8 39.56 
Q 393.8 39.56 393.8 41.56 
L 393.8 175.16625 
Q 393.8 177.16625 395.8 177.16625 
z
" style="fill:#ffffff;opacity:0.8;stroke:#cccccc;stroke-linejoin:miter;"/>
    </g>
    <g id="line2d_36">
     <path d="M 397.8 47.658437 
L 417.8 47.658437 
" style="fill:none;stroke:#3d3d3d;stroke-linecap:square;stroke-width:1.5;"/>
    </g>
    <g id="line2d_37"/>
    <g id="text_11">
     <!-- Nonmetro_urbpop&lt;2.5^3_non_met_adj -->
     <defs>
      <path d="M 9.8125 72.90625 
L 23.09375 72.90625 
L 55.421875 11.921875 
L 55.421875 72.90625 
L 64.984375 72.90625 
L 64.984375 0 
L 51.703125 0 
L 19.390625 60.984375 
L 19.390625 0 
L 9.8125 0 
z
" id="DejaVuSans-78"/>
      <path d="M 52 44.1875 
Q 55.375 50.25 60.0625 53.125 
Q 64.75 56 71.09375 56 
Q 79.640625 56 84.28125 50.015625 
Q 88.921875 44.046875 88.921875 33.015625 
L 88.921875 0 
L 79.890625 0 
L 79.890625 32.71875 
Q 79.890625 40.578125 77.09375 44.375 
Q 74.3125 48.1875 68.609375 48.1875 
Q 61.625 48.1875 57.5625 43.546875 
Q 53.515625 38.921875 53.515625 30.90625 
L 53.515625 0 
L 44.484375 0 
L 44.484375 32.71875 
Q 44.484375 40.625 41.703125 44.40625 
Q 38.921875 48.1875 33.109375 48.1875 
Q 26.21875 48.1875 22.15625 43.53125 
Q 18.109375 38.875 18.109375 30.90625 
L 18.109375 0 
L 9.078125 0 
L 9.078125 54.6875 
L 18.109375 54.6875 
L 18.109375 46.1875 
Q 21.1875 51.21875 25.484375 53.609375 
Q 29.78125 56 35.6875 56 
Q 41.65625 56 45.828125 52.96875 
Q 50 49.953125 52 44.1875 
z
" id="DejaVuSans-109"/>
      <path d="M 48.6875 27.296875 
Q 48.6875 37.203125 44.609375 42.84375 
Q 40.53125 48.484375 33.40625 48.484375 
Q 26.265625 48.484375 22.1875 42.84375 
Q 18.109375 37.203125 18.109375 27.296875 
Q 18.109375 17.390625 22.1875 11.75 
Q 26.265625 6.109375 33.40625 6.109375 
Q 40.53125 6.109375 44.609375 11.75 
Q 48.6875 17.390625 48.6875 27.296875 
z
M 18.109375 46.390625 
Q 20.953125 51.265625 25.265625 53.625 
Q 29.59375 56 35.59375 56 
Q 45.5625 56 51.78125 48.09375 
Q 58.015625 40.1875 58.015625 27.296875 
Q 58.015625 14.40625 51.78125 6.484375 
Q 45.5625 -1.421875 35.59375 -1.421875 
Q 29.59375 -1.421875 25.265625 0.953125 
Q 20.953125 3.328125 18.109375 8.203125 
L 18.109375 0 
L 9.078125 0 
L 9.078125 75.984375 
L 18.109375 75.984375 
z
" id="DejaVuSans-98"/>
      <path d="M 18.109375 8.203125 
L 18.109375 -20.796875 
L 9.078125 -20.796875 
L 9.078125 54.6875 
L 18.109375 54.6875 
L 18.109375 46.390625 
Q 20.953125 51.265625 25.265625 53.625 
Q 29.59375 56 35.59375 56 
Q 45.5625 56 51.78125 48.09375 
Q 58.015625 40.1875 58.015625 27.296875 
Q 58.015625 14.40625 51.78125 6.484375 
Q 45.5625 -1.421875 35.59375 -1.421875 
Q 29.59375 -1.421875 25.265625 0.953125 
Q 20.953125 3.328125 18.109375 8.203125 
z
M 48.6875 27.296875 
Q 48.6875 37.203125 44.609375 42.84375 
Q 40.53125 48.484375 33.40625 48.484375 
Q 26.265625 48.484375 22.1875 42.84375 
Q 18.109375 37.203125 18.109375 27.296875 
Q 18.109375 17.390625 22.1875 11.75 
Q 26.265625 6.109375 33.40625 6.109375 
Q 40.53125 6.109375 44.609375 11.75 
Q 48.6875 17.390625 48.6875 27.296875 
z
" id="DejaVuSans-112"/>
      <path d="M 73.1875 49.21875 
L 22.796875 31.296875 
L 73.1875 13.484375 
L 73.1875 4.59375 
L 10.59375 27.296875 
L 10.59375 35.40625 
L 73.1875 58.109375 
z
" id="DejaVuSans-60"/>
      <path d="M 10.6875 12.40625 
L 21 12.40625 
L 21 0 
L 10.6875 0 
z
" id="DejaVuSans-46"/>
      <path d="M 46.6875 72.90625 
L 73.1875 45.703125 
L 63.375 45.703125 
L 41.890625 64.984375 
L 20.40625 45.703125 
L 10.59375 45.703125 
L 37.109375 72.90625 
z
" id="DejaVuSans-94"/>
      <path d="M 40.578125 39.3125 
Q 47.65625 37.796875 51.625 33 
Q 55.609375 28.21875 55.609375 21.1875 
Q 55.609375 10.40625 48.1875 4.484375 
Q 40.765625 -1.421875 27.09375 -1.421875 
Q 22.515625 -1.421875 17.65625 -0.515625 
Q 12.796875 0.390625 7.625 2.203125 
L 7.625 11.71875 
Q 11.71875 9.328125 16.59375 8.109375 
Q 21.484375 6.890625 26.8125 6.890625 
Q 36.078125 6.890625 40.9375 10.546875 
Q 45.796875 14.203125 45.796875 21.1875 
Q 45.796875 27.640625 41.28125 31.265625 
Q 36.765625 34.90625 28.71875 34.90625 
L 20.21875 34.90625 
L 20.21875 43.015625 
L 29.109375 43.015625 
Q 36.375 43.015625 40.234375 45.921875 
Q 44.09375 48.828125 44.09375 54.296875 
Q 44.09375 59.90625 40.109375 62.90625 
Q 36.140625 65.921875 28.71875 65.921875 
Q 24.65625 65.921875 20.015625 65.03125 
Q 15.375 64.15625 9.8125 62.3125 
L 9.8125 71.09375 
Q 15.4375 72.65625 20.34375 73.4375 
Q 25.25 74.21875 29.59375 74.21875 
Q 40.828125 74.21875 47.359375 69.109375 
Q 53.90625 64.015625 53.90625 55.328125 
Q 53.90625 49.265625 50.4375 45.09375 
Q 46.96875 40.921875 40.578125 39.3125 
z
" id="DejaVuSans-51"/>
      <path d="M 34.28125 27.484375 
Q 23.390625 27.484375 19.1875 25 
Q 14.984375 22.515625 14.984375 16.5 
Q 14.984375 11.71875 18.140625 8.90625 
Q 21.296875 6.109375 26.703125 6.109375 
Q 34.1875 6.109375 38.703125 11.40625 
Q 43.21875 16.703125 43.21875 25.484375 
L 43.21875 27.484375 
z
M 52.203125 31.203125 
L 52.203125 0 
L 43.21875 0 
L 43.21875 8.296875 
Q 40.140625 3.328125 35.546875 0.953125 
Q 30.953125 -1.421875 24.3125 -1.421875 
Q 15.921875 -1.421875 10.953125 3.296875 
Q 6 8.015625 6 15.921875 
Q 6 25.140625 12.171875 29.828125 
Q 18.359375 34.515625 30.609375 34.515625 
L 43.21875 34.515625 
L 43.21875 35.40625 
Q 43.21875 41.609375 39.140625 45 
Q 35.0625 48.390625 27.6875 48.390625 
Q 23 48.390625 18.546875 47.265625 
Q 14.109375 46.140625 10.015625 43.890625 
L 10.015625 52.203125 
Q 14.9375 54.109375 19.578125 55.046875 
Q 24.21875 56 28.609375 56 
Q 40.484375 56 46.34375 49.84375 
Q 52.203125 43.703125 52.203125 31.203125 
z
" id="DejaVuSans-97"/>
      <path d="M 45.40625 46.390625 
L 45.40625 75.984375 
L 54.390625 75.984375 
L 54.390625 0 
L 45.40625 0 
L 45.40625 8.203125 
Q 42.578125 3.328125 38.25 0.953125 
Q 33.9375 -1.421875 27.875 -1.421875 
Q 17.96875 -1.421875 11.734375 6.484375 
Q 5.515625 14.40625 5.515625 27.296875 
Q 5.515625 40.1875 11.734375 48.09375 
Q 17.96875 56 27.875 56 
Q 33.9375 56 38.25 53.625 
Q 42.578125 51.265625 45.40625 46.390625 
z
M 14.796875 27.296875 
Q 14.796875 17.390625 18.875 11.75 
Q 22.953125 6.109375 30.078125 6.109375 
Q 37.203125 6.109375 41.296875 11.75 
Q 45.40625 17.390625 45.40625 27.296875 
Q 45.40625 37.203125 41.296875 42.84375 
Q 37.203125 48.484375 30.078125 48.484375 
Q 22.953125 48.484375 18.875 42.84375 
Q 14.796875 37.203125 14.796875 27.296875 
z
" id="DejaVuSans-100"/>
      <path d="M 9.421875 54.6875 
L 18.40625 54.6875 
L 18.40625 -0.984375 
Q 18.40625 -11.421875 14.421875 -16.109375 
Q 10.453125 -20.796875 1.609375 -20.796875 
L -1.8125 -20.796875 
L -1.8125 -13.1875 
L 0.59375 -13.1875 
Q 5.71875 -13.1875 7.5625 -10.8125 
Q 9.421875 -8.453125 9.421875 -0.984375 
z
M 9.421875 75.984375 
L 18.40625 75.984375 
L 18.40625 64.59375 
L 9.421875 64.59375 
z
" id="DejaVuSans-106"/>
     </defs>
     <g transform="translate(425.8 51.158437)scale(0.1 -0.1)">
      <use xlink:href="#DejaVuSans-78"/>
      <use x="74.804688" xlink:href="#DejaVuSans-111"/>
      <use x="135.986328" xlink:href="#DejaVuSans-110"/>
      <use x="199.365234" xlink:href="#DejaVuSans-109"/>
      <use x="296.777344" xlink:href="#DejaVuSans-101"/>
      <use x="358.300781" xlink:href="#DejaVuSans-116"/>
      <use x="397.509766" xlink:href="#DejaVuSans-114"/>
      <use x="438.591797" xlink:href="#DejaVuSans-111"/>
      <use x="499.773438" xlink:href="#DejaVuSans-95"/>
      <use x="549.773438" xlink:href="#DejaVuSans-117"/>
      <use x="613.152344" xlink:href="#DejaVuSans-114"/>
      <use x="654.265625" xlink:href="#DejaVuSans-98"/>
      <use x="717.742188" xlink:href="#DejaVuSans-112"/>
      <use x="781.21875" xlink:href="#DejaVuSans-111"/>
      <use x="842.400391" xlink:href="#DejaVuSans-112"/>
      <use x="905.876953" xlink:href="#DejaVuSans-60"/>
      <use x="989.666016" xlink:href="#DejaVuSans-50"/>
      <use x="1053.289062" xlink:href="#DejaVuSans-46"/>
      <use x="1085.076172" xlink:href="#DejaVuSans-53"/>
      <use x="1148.699219" xlink:href="#DejaVuSans-94"/>
      <use x="1232.488281" xlink:href="#DejaVuSans-51"/>
      <use x="1296.111328" xlink:href="#DejaVuSans-95"/>
      <use x="1346.111328" xlink:href="#DejaVuSans-110"/>
      <use x="1409.490234" xlink:href="#DejaVuSans-111"/>
      <use x="1470.671875" xlink:href="#DejaVuSans-110"/>
      <use x="1534.050781" xlink:href="#DejaVuSans-95"/>
      <use x="1584.050781" xlink:href="#DejaVuSans-109"/>
      <use x="1681.462891" xlink:href="#DejaVuSans-101"/>
      <use x="1742.986328" xlink:href="#DejaVuSans-116"/>
      <use x="1782.195312" xlink:href="#DejaVuSans-95"/>
      <use x="1832.195312" xlink:href="#DejaVuSans-97"/>
      <use x="1893.474609" xlink:href="#DejaVuSans-100"/>
      <use x="1956.951172" xlink:href="#DejaVuSans-106"/>
     </g>
    </g>
    <g id="line2d_38">
     <path d="M 397.8 62.614688 
L 417.8 62.614688 
" style="fill:none;stroke:#3d3d3d;stroke-linecap:square;stroke-width:4.5;"/>
    </g>
    <g id="line2d_39"/>
    <g id="text_12">
     <!-- Nonmetro_urbpop&lt;2.0^4_non_met_adj -->
     <defs>
      <path d="M 37.796875 64.3125 
L 12.890625 25.390625 
L 37.796875 25.390625 
z
M 35.203125 72.90625 
L 47.609375 72.90625 
L 47.609375 25.390625 
L 58.015625 25.390625 
L 58.015625 17.1875 
L 47.609375 17.1875 
L 47.609375 0 
L 37.796875 0 
L 37.796875 17.1875 
L 4.890625 17.1875 
L 4.890625 26.703125 
z
" id="DejaVuSans-52"/>
     </defs>
     <g transform="translate(425.8 66.114688)scale(0.1 -0.1)">
      <use xlink:href="#DejaVuSans-78"/>
      <use x="74.804688" xlink:href="#DejaVuSans-111"/>
      <use x="135.986328" xlink:href="#DejaVuSans-110"/>
      <use x="199.365234" xlink:href="#DejaVuSans-109"/>
      <use x="296.777344" xlink:href="#DejaVuSans-101"/>
      <use x="358.300781" xlink:href="#DejaVuSans-116"/>
      <use x="397.509766" xlink:href="#DejaVuSans-114"/>
      <use x="438.591797" xlink:href="#DejaVuSans-111"/>
      <use x="499.773438" xlink:href="#DejaVuSans-95"/>
      <use x="549.773438" xlink:href="#DejaVuSans-117"/>
      <use x="613.152344" xlink:href="#DejaVuSans-114"/>
      <use x="654.265625" xlink:href="#DejaVuSans-98"/>
      <use x="717.742188" xlink:href="#DejaVuSans-112"/>
      <use x="781.21875" xlink:href="#DejaVuSans-111"/>
      <use x="842.400391" xlink:href="#DejaVuSans-112"/>
      <use x="905.876953" xlink:href="#DejaVuSans-60"/>
      <use x="989.666016" xlink:href="#DejaVuSans-50"/>
      <use x="1053.289062" xlink:href="#DejaVuSans-46"/>
      <use x="1085.076172" xlink:href="#DejaVuSans-48"/>
      <use x="1148.699219" xlink:href="#DejaVuSans-94"/>
      <use x="1232.488281" xlink:href="#DejaVuSans-52"/>
      <use x="1296.111328" xlink:href="#DejaVuSans-95"/>
      <use x="1346.111328" xlink:href="#DejaVuSans-110"/>
      <use x="1409.490234" xlink:href="#DejaVuSans-111"/>
      <use x="1470.671875" xlink:href="#DejaVuSans-110"/>
      <use x="1534.050781" xlink:href="#DejaVuSans-95"/>
      <use x="1584.050781" xlink:href="#DejaVuSans-109"/>
      <use x="1681.462891" xlink:href="#DejaVuSans-101"/>
      <use x="1742.986328" xlink:href="#DejaVuSans-116"/>
      <use x="1782.195312" xlink:href="#DejaVuSans-95"/>
      <use x="1832.195312" xlink:href="#DejaVuSans-97"/>
      <use x="1893.474609" xlink:href="#DejaVuSans-100"/>
      <use x="1956.951172" xlink:href="#DejaVuSans-106"/>
     </g>
    </g>
    <g id="line2d_40">
     <path d="M 397.8 77.570938 
L 417.8 77.570938 
" style="fill:none;stroke:#3d3d3d;stroke-linecap:square;stroke-width:1.5;"/>
    </g>
    <g id="line2d_41"/>
    <g id="text_13">
     <!-- Metro_urbpop&lt;2.5^5 -->
     <defs>
      <path d="M 9.8125 72.90625 
L 24.515625 72.90625 
L 43.109375 23.296875 
L 61.8125 72.90625 
L 76.515625 72.90625 
L 76.515625 0 
L 66.890625 0 
L 66.890625 64.015625 
L 48.09375 14.015625 
L 38.1875 14.015625 
L 19.390625 64.015625 
L 19.390625 0 
L 9.8125 0 
z
" id="DejaVuSans-77"/>
     </defs>
     <g transform="translate(425.8 81.070938)scale(0.1 -0.1)">
      <use xlink:href="#DejaVuSans-77"/>
      <use x="86.279297" xlink:href="#DejaVuSans-101"/>
      <use x="147.802734" xlink:href="#DejaVuSans-116"/>
      <use x="187.011719" xlink:href="#DejaVuSans-114"/>
      <use x="228.09375" xlink:href="#DejaVuSans-111"/>
      <use x="289.275391" xlink:href="#DejaVuSans-95"/>
      <use x="339.275391" xlink:href="#DejaVuSans-117"/>
      <use x="402.654297" xlink:href="#DejaVuSans-114"/>
      <use x="443.767578" xlink:href="#DejaVuSans-98"/>
      <use x="507.244141" xlink:href="#DejaVuSans-112"/>
      <use x="570.720703" xlink:href="#DejaVuSans-111"/>
      <use x="631.902344" xlink:href="#DejaVuSans-112"/>
      <use x="695.378906" xlink:href="#DejaVuSans-60"/>
      <use x="779.167969" xlink:href="#DejaVuSans-50"/>
      <use x="842.791016" xlink:href="#DejaVuSans-46"/>
      <use x="874.578125" xlink:href="#DejaVuSans-53"/>
      <use x="938.201172" xlink:href="#DejaVuSans-94"/>
      <use x="1021.990234" xlink:href="#DejaVuSans-53"/>
     </g>
    </g>
    <g id="line2d_42">
     <path d="M 397.8 92.527187 
L 417.8 92.527187 
" style="fill:none;stroke:#3d3d3d;stroke-linecap:square;stroke-width:4.5;"/>
    </g>
    <g id="line2d_43"/>
    <g id="text_14">
     <!-- Metro_urbpop=&gt;1.0^6 -->
     <defs>
      <path d="M 10.59375 45.40625 
L 73.1875 45.40625 
L 73.1875 37.203125 
L 10.59375 37.203125 
z
M 10.59375 25.484375 
L 73.1875 25.484375 
L 73.1875 17.1875 
L 10.59375 17.1875 
z
" id="DejaVuSans-61"/>
      <path d="M 10.59375 49.21875 
L 10.59375 58.109375 
L 73.1875 35.40625 
L 73.1875 27.296875 
L 10.59375 4.59375 
L 10.59375 13.484375 
L 60.890625 31.296875 
z
" id="DejaVuSans-62"/>
      <path d="M 33.015625 40.375 
Q 26.375 40.375 22.484375 35.828125 
Q 18.609375 31.296875 18.609375 23.390625 
Q 18.609375 15.53125 22.484375 10.953125 
Q 26.375 6.390625 33.015625 6.390625 
Q 39.65625 6.390625 43.53125 10.953125 
Q 47.40625 15.53125 47.40625 23.390625 
Q 47.40625 31.296875 43.53125 35.828125 
Q 39.65625 40.375 33.015625 40.375 
z
M 52.59375 71.296875 
L 52.59375 62.3125 
Q 48.875 64.0625 45.09375 64.984375 
Q 41.3125 65.921875 37.59375 65.921875 
Q 27.828125 65.921875 22.671875 59.328125 
Q 17.53125 52.734375 16.796875 39.40625 
Q 19.671875 43.65625 24.015625 45.921875 
Q 28.375 48.1875 33.59375 48.1875 
Q 44.578125 48.1875 50.953125 41.515625 
Q 57.328125 34.859375 57.328125 23.390625 
Q 57.328125 12.15625 50.6875 5.359375 
Q 44.046875 -1.421875 33.015625 -1.421875 
Q 20.359375 -1.421875 13.671875 8.265625 
Q 6.984375 17.96875 6.984375 36.375 
Q 6.984375 53.65625 15.1875 63.9375 
Q 23.390625 74.21875 37.203125 74.21875 
Q 40.921875 74.21875 44.703125 73.484375 
Q 48.484375 72.75 52.59375 71.296875 
z
" id="DejaVuSans-54"/>
     </defs>
     <g transform="translate(425.8 96.027187)scale(0.1 -0.1)">
      <use xlink:href="#DejaVuSans-77"/>
      <use x="86.279297" xlink:href="#DejaVuSans-101"/>
      <use x="147.802734" xlink:href="#DejaVuSans-116"/>
      <use x="187.011719" xlink:href="#DejaVuSans-114"/>
      <use x="228.09375" xlink:href="#DejaVuSans-111"/>
      <use x="289.275391" xlink:href="#DejaVuSans-95"/>
      <use x="339.275391" xlink:href="#DejaVuSans-117"/>
      <use x="402.654297" xlink:href="#DejaVuSans-114"/>
      <use x="443.767578" xlink:href="#DejaVuSans-98"/>
      <use x="507.244141" xlink:href="#DejaVuSans-112"/>
      <use x="570.720703" xlink:href="#DejaVuSans-111"/>
      <use x="631.902344" xlink:href="#DejaVuSans-112"/>
      <use x="695.378906" xlink:href="#DejaVuSans-61"/>
      <use x="779.167969" xlink:href="#DejaVuSans-62"/>
      <use x="862.957031" xlink:href="#DejaVuSans-49"/>
      <use x="926.580078" xlink:href="#DejaVuSans-46"/>
      <use x="958.367188" xlink:href="#DejaVuSans-48"/>
      <use x="1021.990234" xlink:href="#DejaVuSans-94"/>
      <use x="1105.779297" xlink:href="#DejaVuSans-54"/>
     </g>
    </g>
    <g id="line2d_44">
     <path d="M 397.8 107.483437 
L 417.8 107.483437 
" style="fill:none;stroke:#3d3d3d;stroke-linecap:square;stroke-width:1.5;"/>
    </g>
    <g id="line2d_45"/>
    <g id="text_15">
     <!-- Nonmetro_urbpop&lt;2.0^4_met_adj -->
     <g transform="translate(425.8 110.983437)scale(0.1 -0.1)">
      <use xlink:href="#DejaVuSans-78"/>
      <use x="74.804688" xlink:href="#DejaVuSans-111"/>
      <use x="135.986328" xlink:href="#DejaVuSans-110"/>
      <use x="199.365234" xlink:href="#DejaVuSans-109"/>
      <use x="296.777344" xlink:href="#DejaVuSans-101"/>
      <use x="358.300781" xlink:href="#DejaVuSans-116"/>
      <use x="397.509766" xlink:href="#DejaVuSans-114"/>
      <use x="438.591797" xlink:href="#DejaVuSans-111"/>
      <use x="499.773438" xlink:href="#DejaVuSans-95"/>
      <use x="549.773438" xlink:href="#DejaVuSans-117"/>
      <use x="613.152344" xlink:href="#DejaVuSans-114"/>
      <use x="654.265625" xlink:href="#DejaVuSans-98"/>
      <use x="717.742188" xlink:href="#DejaVuSans-112"/>
      <use x="781.21875" xlink:href="#DejaVuSans-111"/>
      <use x="842.400391" xlink:href="#DejaVuSans-112"/>
      <use x="905.876953" xlink:href="#DejaVuSans-60"/>
      <use x="989.666016" xlink:href="#DejaVuSans-50"/>
      <use x="1053.289062" xlink:href="#DejaVuSans-46"/>
      <use x="1085.076172" xlink:href="#DejaVuSans-48"/>
      <use x="1148.699219" xlink:href="#DejaVuSans-94"/>
      <use x="1232.488281" xlink:href="#DejaVuSans-52"/>
      <use x="1296.111328" xlink:href="#DejaVuSans-95"/>
      <use x="1346.111328" xlink:href="#DejaVuSans-109"/>
      <use x="1443.523438" xlink:href="#DejaVuSans-101"/>
      <use x="1505.046875" xlink:href="#DejaVuSans-116"/>
      <use x="1544.255859" xlink:href="#DejaVuSans-95"/>
      <use x="1594.255859" xlink:href="#DejaVuSans-97"/>
      <use x="1655.535156" xlink:href="#DejaVuSans-100"/>
      <use x="1719.011719" xlink:href="#DejaVuSans-106"/>
     </g>
    </g>
    <g id="line2d_46">
     <path d="M 397.8 122.439687 
L 417.8 122.439687 
" style="fill:none;stroke:#3d3d3d;stroke-linecap:square;stroke-width:4.5;"/>
    </g>
    <g id="line2d_47"/>
    <g id="text_16">
     <!-- Nonmetro_urbpop=&gt;2.0^4_met_adj -->
     <g transform="translate(425.8 125.939687)scale(0.1 -0.1)">
      <use xlink:href="#DejaVuSans-78"/>
      <use x="74.804688" xlink:href="#DejaVuSans-111"/>
      <use x="135.986328" xlink:href="#DejaVuSans-110"/>
      <use x="199.365234" xlink:href="#DejaVuSans-109"/>
      <use x="296.777344" xlink:href="#DejaVuSans-101"/>
      <use x="358.300781" xlink:href="#DejaVuSans-116"/>
      <use x="397.509766" xlink:href="#DejaVuSans-114"/>
      <use x="438.591797" xlink:href="#DejaVuSans-111"/>
      <use x="499.773438" xlink:href="#DejaVuSans-95"/>
      <use x="549.773438" xlink:href="#DejaVuSans-117"/>
      <use x="613.152344" xlink:href="#DejaVuSans-114"/>
      <use x="654.265625" xlink:href="#DejaVuSans-98"/>
      <use x="717.742188" xlink:href="#DejaVuSans-112"/>
      <use x="781.21875" xlink:href="#DejaVuSans-111"/>
      <use x="842.400391" xlink:href="#DejaVuSans-112"/>
      <use x="905.876953" xlink:href="#DejaVuSans-61"/>
      <use x="989.666016" xlink:href="#DejaVuSans-62"/>
      <use x="1073.455078" xlink:href="#DejaVuSans-50"/>
      <use x="1137.078125" xlink:href="#DejaVuSans-46"/>
      <use x="1168.865234" xlink:href="#DejaVuSans-48"/>
      <use x="1232.488281" xlink:href="#DejaVuSans-94"/>
      <use x="1316.277344" xlink:href="#DejaVuSans-52"/>
      <use x="1379.900391" xlink:href="#DejaVuSans-95"/>
      <use x="1429.900391" xlink:href="#DejaVuSans-109"/>
      <use x="1527.3125" xlink:href="#DejaVuSans-101"/>
      <use x="1588.835938" xlink:href="#DejaVuSans-116"/>
      <use x="1628.044922" xlink:href="#DejaVuSans-95"/>
      <use x="1678.044922" xlink:href="#DejaVuSans-97"/>
      <use x="1739.324219" xlink:href="#DejaVuSans-100"/>
      <use x="1802.800781" xlink:href="#DejaVuSans-106"/>
     </g>
    </g>
    <g id="line2d_48">
     <path d="M 397.8 137.395938 
L 417.8 137.395938 
" style="fill:none;stroke:#3d3d3d;stroke-linecap:square;stroke-width:1.5;"/>
    </g>
    <g id="line2d_49"/>
    <g id="text_17">
     <!-- Metro_urbpop&lt;1.0^6 -->
     <g transform="translate(425.8 140.895938)scale(0.1 -0.1)">
      <use xlink:href="#DejaVuSans-77"/>
      <use x="86.279297" xlink:href="#DejaVuSans-101"/>
      <use x="147.802734" xlink:href="#DejaVuSans-116"/>
      <use x="187.011719" xlink:href="#DejaVuSans-114"/>
      <use x="228.09375" xlink:href="#DejaVuSans-111"/>
      <use x="289.275391" xlink:href="#DejaVuSans-95"/>
      <use x="339.275391" xlink:href="#DejaVuSans-117"/>
      <use x="402.654297" xlink:href="#DejaVuSans-114"/>
      <use x="443.767578" xlink:href="#DejaVuSans-98"/>
      <use x="507.244141" xlink:href="#DejaVuSans-112"/>
      <use x="570.720703" xlink:href="#DejaVuSans-111"/>
      <use x="631.902344" xlink:href="#DejaVuSans-112"/>
      <use x="695.378906" xlink:href="#DejaVuSans-60"/>
      <use x="779.167969" xlink:href="#DejaVuSans-49"/>
      <use x="842.791016" xlink:href="#DejaVuSans-46"/>
      <use x="874.578125" xlink:href="#DejaVuSans-48"/>
      <use x="938.201172" xlink:href="#DejaVuSans-94"/>
      <use x="1021.990234" xlink:href="#DejaVuSans-54"/>
     </g>
    </g>
    <g id="line2d_50">
     <path d="M 397.8 152.352187 
L 417.8 152.352187 
" style="fill:none;stroke:#3d3d3d;stroke-linecap:square;stroke-width:4.5;"/>
    </g>
    <g id="line2d_51"/>
    <g id="text_18">
     <!-- Nonmetro_urbpop&lt;2.5^3_met_adj -->
     <g transform="translate(425.8 155.852187)scale(0.1 -0.1)">
      <use xlink:href="#DejaVuSans-78"/>
      <use x="74.804688" xlink:href="#DejaVuSans-111"/>
      <use x="135.986328" xlink:href="#DejaVuSans-110"/>
      <use x="199.365234" xlink:href="#DejaVuSans-109"/>
      <use x="296.777344" xlink:href="#DejaVuSans-101"/>
      <use x="358.300781" xlink:href="#DejaVuSans-116"/>
      <use x="397.509766" xlink:href="#DejaVuSans-114"/>
      <use x="438.591797" xlink:href="#DejaVuSans-111"/>
      <use x="499.773438" xlink:href="#DejaVuSans-95"/>
      <use x="549.773438" xlink:href="#DejaVuSans-117"/>
      <use x="613.152344" xlink:href="#DejaVuSans-114"/>
      <use x="654.265625" xlink:href="#DejaVuSans-98"/>
      <use x="717.742188" xlink:href="#DejaVuSans-112"/>
      <use x="781.21875" xlink:href="#DejaVuSans-111"/>
      <use x="842.400391" xlink:href="#DejaVuSans-112"/>
      <use x="905.876953" xlink:href="#DejaVuSans-60"/>
      <use x="989.666016" xlink:href="#DejaVuSans-50"/>
      <use x="1053.289062" xlink:href="#DejaVuSans-46"/>
      <use x="1085.076172" xlink:href="#DejaVuSans-53"/>
      <use x="1148.699219" xlink:href="#DejaVuSans-94"/>
      <use x="1232.488281" xlink:href="#DejaVuSans-51"/>
      <use x="1296.111328" xlink:href="#DejaVuSans-95"/>
      <use x="1346.111328" xlink:href="#DejaVuSans-109"/>
      <use x="1443.523438" xlink:href="#DejaVuSans-101"/>
      <use x="1505.046875" xlink:href="#DejaVuSans-116"/>
      <use x="1544.255859" xlink:href="#DejaVuSans-95"/>
      <use x="1594.255859" xlink:href="#DejaVuSans-97"/>
      <use x="1655.535156" xlink:href="#DejaVuSans-100"/>
      <use x="1719.011719" xlink:href="#DejaVuSans-106"/>
     </g>
    </g>
    <g id="line2d_52">
     <path d="M 397.8 167.308437 
L 417.8 167.308437 
" style="fill:none;stroke:#3d3d3d;stroke-linecap:square;stroke-width:1.5;"/>
    </g>
    <g id="line2d_53"/>
    <g id="text_19">
     <!-- Nonmetro_urbpop=&gt;2.0^4_non_met_adj -->
     <g transform="translate(425.8 170.808437)scale(0.1 -0.1)">
      <use xlink:href="#DejaVuSans-78"/>
      <use x="74.804688" xlink:href="#DejaVuSans-111"/>
      <use x="135.986328" xlink:href="#DejaVuSans-110"/>
      <use x="199.365234" xlink:href="#DejaVuSans-109"/>
      <use x="296.777344" xlink:href="#DejaVuSans-101"/>
      <use x="358.300781" xlink:href="#DejaVuSans-116"/>
      <use x="397.509766" xlink:href="#DejaVuSans-114"/>
      <use x="438.591797" xlink:href="#DejaVuSans-111"/>
      <use x="499.773438" xlink:href="#DejaVuSans-95"/>
      <use x="549.773438" xlink:href="#DejaVuSans-117"/>
      <use x="613.152344" xlink:href="#DejaVuSans-114"/>
      <use x="654.265625" xlink:href="#DejaVuSans-98"/>
      <use x="717.742188" xlink:href="#DejaVuSans-112"/>
      <use x="781.21875" xlink:href="#DejaVuSans-111"/>
      <use x="842.400391" xlink:href="#DejaVuSans-112"/>
      <use x="905.876953" xlink:href="#DejaVuSans-61"/>
      <use x="989.666016" xlink:href="#DejaVuSans-62"/>
      <use x="1073.455078" xlink:href="#DejaVuSans-50"/>
      <use x="1137.078125" xlink:href="#DejaVuSans-46"/>
      <use x="1168.865234" xlink:href="#DejaVuSans-48"/>
      <use x="1232.488281" xlink:href="#DejaVuSans-94"/>
      <use x="1316.277344" xlink:href="#DejaVuSans-52"/>
      <use x="1379.900391" xlink:href="#DejaVuSans-95"/>
      <use x="1429.900391" xlink:href="#DejaVuSans-110"/>
      <use x="1493.279297" xlink:href="#DejaVuSans-111"/>
      <use x="1554.460938" xlink:href="#DejaVuSans-110"/>
      <use x="1617.839844" xlink:href="#DejaVuSans-95"/>
      <use x="1667.839844" xlink:href="#DejaVuSans-109"/>
      <use x="1765.251953" xlink:href="#DejaVuSans-101"/>
      <use x="1826.775391" xlink:href="#DejaVuSans-116"/>
      <use x="1865.984375" xlink:href="#DejaVuSans-95"/>
      <use x="1915.984375" xlink:href="#DejaVuSans-97"/>
      <use x="1977.263672" xlink:href="#DejaVuSans-100"/>
      <use x="2040.740234" xlink:href="#DejaVuSans-106"/>
     </g>
    </g>
   </g>
  </g>
 </g>
 <defs>
  <clipPath id="pbc29d8b212">
   <rect height="217.44" width="334.8" x="54" y="34.56"/>
  </clipPath>
 </defs>
</svg>
